<?xml version="1.0" standalone="no"?>
<!DOCTYPE svg PUBLIC "-//W3C//DTD SVG 1.1//EN" "http://www.w3.org/Graphics/SVG/1.1/DTD/svg11.dtd" >
<svg>
<metadata>
Created by FontForge 20120731 at Wed Nov 26 06:31:35 2014
 By Orthosie Webhosting
Copyright (c) 2005 by OurType. Sansa is a design by Fred Smeijers. All rights reserved.
</metadata>
<defs>
<font id="SansaSoftProNormal" horiz-adv-x="625" >
  <font-face 
    font-family="SansaSoftProNormal"
    font-weight="400"
    font-stretch="normal"
    units-per-em="1000"
    panose-1="2 0 6 3 8 0 0 2 0 4"
    ascent="812"
    descent="-188"
    x-height="547"
    cap-height="750"
    bbox="-212 -219 1283 1031"
    underline-thickness="21"
    underline-position="-113"
    unicode-range="U+0020-FB02"
  />
<missing-glyph horiz-adv-x="500" 
d="M0 0v700h500v-700h-500zM250 395l170 255h-340zM280 350l170 -255v510zM80 50h340l-170 255zM50 605v-510l170 255z" />
    <glyph glyph-name="fi" unicode="fi" horiz-adv-x="633" 
d="M539 516v-485q0 -31 -31 -31h-24q-31 0 -31 31v438h-250v-438q0 -31 -31 -31h-24q-31 0 -31 31v438h-54q-32 0 -32 31v16q0 14 8.5 22.5t22.5 8.5h55v23q0 87 48.5 133.5t131.5 46.5h31q31 0 31 -31v-16q0 -31 -31 -31h-31q-52 0 -73 -24t-21 -78v-23h305q31 0 31 -31z
M539 719v-32q0 -31 -31 -31h-24q-31 0 -31 31v32q0 31 31 31h24q31 0 31 -31z" />
    <glyph glyph-name="fl" unicode="fl" horiz-adv-x="633" 
d="M453 672h-156q-52 0 -73 -24t-21 -78v-23h109q32 0 32 -31v-16q0 -31 -32 -31h-109v-438q0 -31 -31 -31h-24q-31 0 -31 31v438h-54q-32 0 -32 31v16q0 14 8.5 22.5t22.5 8.5h55v23q0 87 48.5 133.5t131.5 46.5h211q31 0 31 -31v-688q0 -31 -31 -31h-24q-31 0 -31 31v641z
" />
    <glyph glyph-name="f_f" unicode="ff" horiz-adv-x="680" 
d="M328 672h-31q-52 0 -73 -24t-21 -78v-23h250v23q0 87 48.5 133.5t131.5 46.5h31q31 0 31 -31v-16q0 -31 -31 -31h-31q-52 0 -73 -24t-21 -78v-23h109q32 0 32 -31v-16q0 -31 -32 -31h-109v-438q0 -31 -31 -31h-24q-31 0 -31 31v438h-250v-438q0 -31 -31 -31h-24
q-31 0 -31 31v438h-54q-32 0 -32 31v16q2 31 31 31h55v23q0 87 48.5 133.5t131.5 46.5h31q31 0 31 -31v-16q0 -31 -31 -31z" />
    <glyph glyph-name="f_f_i" unicode="ffi" horiz-adv-x="969" 
d="M875 516v-485q0 -31 -31 -31h-24q-31 0 -31 31v438h-250v-438q0 -31 -31 -31h-24q-31 0 -31 31v438h-250v-438q0 -31 -31 -31h-24q-31 0 -31 31v438h-54q-32 0 -32 31v16q2 31 31 31h55v23q0 87 48.5 133.5t131.5 46.5h31q31 0 31 -31v-16q0 -31 -31 -31h-31
q-52 0 -73 -24t-21 -78v-23h250v23q0 87 48.5 133.5t131.5 46.5h31q31 0 31 -31v-16q0 -31 -31 -31h-31q-52 0 -73 -24t-21 -78v-23h305q31 0 31 -31zM875 719v-32q0 -31 -31 -31h-24q-31 0 -31 31v32q0 31 31 31h24q31 0 31 -31z" />
    <glyph glyph-name="f_f_l" unicode="ffl" horiz-adv-x="969" 
d="M648 469h-109v-438q0 -31 -31 -31h-24q-31 0 -31 31v438h-250v-438q0 -31 -31 -31h-24q-31 0 -31 31v438h-54q-32 0 -32 31v16q2 31 31 31h55v23q0 87 48.5 133.5t131.5 46.5h31q31 0 31 -31v-16q0 -31 -31 -31h-31q-52 0 -73 -24t-21 -78v-23h250v23q0 87 48.5 133.5
t131.5 46.5h211q31 0 31 -31v-688q0 -31 -31 -31h-24q-31 0 -31 31v641h-156q-52 0 -73 -24t-21 -78v-23h109q32 0 32 -31v-16q0 -31 -32 -31z" />
    <glyph glyph-name="f_t" unicode="ft" horiz-adv-x="734" 
d="M328 672h-31q-52 0 -73 -24t-21 -78v-23h242v94q0 31 32 31h23q31 0 31 -31v-94h125q31 0 31 -31v-16q0 -31 -31 -31h-125v-289q0 -48 24.5 -75t69.5 -27h47q31 0 31 -31v-16q0 -31 -31 -31h-47q-83 0 -131.5 46.5t-48.5 133.5v289h-242v-438q0 -31 -31 -31h-24
q-31 0 -31 31v438h-54q-32 0 -32 31v16q2 31 31 31h55v23q0 87 48.5 133.5t131.5 46.5h31q31 0 31 -31v-16q0 -31 -31 -31z" />
    <glyph glyph-name="f_j" unicode="fj" horiz-adv-x="633" 
d="M328 672h-31q-52 0 -73 -24t-21 -78v-23h305q14 0 22.5 -8t8.5 -22v-454q0 -130 -54.5 -190.5t-174.5 -60.5q-32 0 -32 32v15q0 32 33 32h12q72 0 101 38t29 118v422h-250v-438q0 -31 -31 -31h-24q-31 0 -31 31v438h-54q-32 0 -32 31v16q2 31 31 31h55v23
q0 87 48.5 133.5t131.5 46.5h31q31 0 31 -31v-16q0 -31 -31 -31zM539 719v-32q0 -31 -31 -31h-24q-31 0 -31 31v32q0 31 31 31h24q31 0 31 -31z" />
    <glyph glyph-name="f_b" unicode="fb" horiz-adv-x="945" 
d="M598 0h-118q-31 0 -31 31v641h-152q-52 0 -73 -24t-21 -78v-23h109q32 0 32 -31v-16q0 -31 -32 -31h-109v-438q0 -31 -31 -31h-24q-31 0 -31 31v438h-54q-32 0 -32 31v16q2 31 31 31h55v23q0 87 48.5 133.5t131.5 46.5h207q31 0 31 -31v-274l39 39q71 71 156 71
q69 0 113 -46.5t44 -141.5v-86q0 -124 -86.5 -202.5t-202.5 -78.5zM566 391l-31 -32v-281h63q89 0 146 55.5t57 147.5v86q0 110 -86 110q-60 0 -149 -86z" />
    <glyph glyph-name="f_h" unicode="fh" horiz-adv-x="973" 
d="M797 31v336q0 110 -86 110q-58 0 -141 -86l-31 -32v-328q0 -31 -31 -31h-24q-31 0 -31 31v641h-156q-52 0 -73 -24t-21 -78v-23h109q32 0 32 -31v-16q0 -31 -32 -31h-109v-438q0 -31 -31 -31h-24q-31 0 -31 31v438h-54q-32 0 -32 31v16q2 31 31 31h55v23q0 87 48.5 133.5
t131.5 46.5h211q31 0 31 -31v-274l39 39q71 71 156 71q149 0 149 -188v-336q0 -31 -31 -31h-24q-31 0 -31 31z" />
    <glyph glyph-name="f_k" unicode="fk" horiz-adv-x="898" 
d="M664 301l197 -270q6 -9 6 -15q0 -16 -22 -16h-40q-25 0 -46 31l-165 227h-55v-227q0 -31 -31 -31h-24q-31 0 -31 31v641h-156q-52 0 -73 -24t-21 -78v-23h109q32 0 32 -31v-16q0 -31 -32 -31h-109v-438q0 -31 -31 -31h-24q-31 0 -31 31v438h-54q-32 0 -32 31v16
q2 31 31 31h55v23q0 87 48.5 133.5t131.5 46.5h211q31 0 31 -31v-383h55l153 180q28 31 49 31h38q23 0 23 -16q0 -7 -6 -15z" />
    <glyph glyph-name=".notdef" horiz-adv-x="500" 
d="M0 0v700h500v-700h-500zM250 395l170 255h-340zM280 350l170 -255v510zM80 50h340l-170 255zM50 605v-510l170 255z" />
    <glyph glyph-name=".null" horiz-adv-x="0" 
 />
    <glyph glyph-name="nonmarkingreturn" horiz-adv-x="333" 
 />
    <glyph glyph-name="space" unicode=" " horiz-adv-x="266" 
 />
    <glyph glyph-name="exclam" unicode="!" horiz-adv-x="273" 
d="M179 719l-11 -477q0 -23 -23 -23h-16q-24 0 -24 23l-10 477q0 31 31 31h21q32 0 32 -31zM180 62v-31q0 -31 -32 -31h-23q-31 0 -31 31v31q0 32 31 32h23q32 0 32 -32z" />
    <glyph glyph-name="quotedbl" unicode="&#x22;" horiz-adv-x="445" 
d="M179 719l-5 -141q-2 -31 -33 -31h-8q-31 0 -33 31l-5 141q-2 31 29 31h25q32 0 30 -31zM350 719l-5 -141q-2 -31 -33 -31h-8q-15 0 -24 8.5t-9 22.5l-5 141q-2 31 29 31h25q32 0 30 -31z" />
    <glyph glyph-name="numbersign" unicode="#" 
d="M62 250h94v250h-94q-31 0 -31 31v16q0 31 31 31h94v141q0 31 31 31h16q31 0 31 -31v-141h157v141q0 31 31 31h15q32 0 32 -31v-141h93q32 0 32 -31v-16q0 -31 -32 -31h-93v-250h93q32 0 32 -31v-16q0 -31 -32 -31h-93v-141q0 -31 -32 -31h-15q-31 0 -31 31v141h-157v-141
q0 -31 -31 -31h-16q-31 0 -31 31v141h-94q-31 0 -31 31v16q0 31 31 31zM234 500v-250h157v250h-157z" />
    <glyph glyph-name="dollar" unicode="$" 
d="M105 15q-31 8 -31 37v21q0 27 23 27q6 0 8 -1q102 -25 165 -25h31q156 0 156 129q0 58 -26.5 84.5t-82.5 40.5l-102 27q-164 44 -164 200q0 82 53.5 136t145.5 64v81q0 31 31 31h16q31 0 31 -31v-78q66 -2 129 -21q32 -10 32 -37v-19q0 -27 -23 -27q-6 0 -9 1
q-76 21 -140 21h-24q-148 0 -148 -121q0 -53 27.5 -77.5t81.5 -39.5l98 -28q34 -9 59.5 -21.5t52.5 -35t41.5 -60.5t14.5 -90q0 -89 -55.5 -144t-155.5 -65v-88q0 -31 -31 -31h-16q-31 0 -31 31v86q-75 2 -157 23z" />
    <glyph glyph-name="percent" unicode="%" horiz-adv-x="938" 
d="M260 23l357 704q12 23 31 23h14q19 0 19 -13q0 -5 -3 -10l-358 -704q-12 -23 -31 -23h-14q-18 0 -18 13q0 5 3 10zM238 320q-87 0 -128 53.5t-41 163.5q0 111 41 164.5t128 53.5t128 -53.5t41 -164.5q0 -110 -41 -163.5t-128 -53.5zM238 381q52 0 72.5 35t20.5 121
t-20.5 122t-72.5 36t-72 -35.5t-20 -122.5q0 -84 20.5 -120t71.5 -36zM699 -4q-87 0 -128 53t-41 164q0 110 41 164t128 54q169 0 169 -218q0 -110 -41.5 -163.5t-127.5 -53.5zM699 57q52 0 72.5 35t20.5 121t-20.5 122t-72.5 36t-72.5 -36t-20.5 -122q0 -83 20.5 -119.5
t72.5 -36.5z" />
    <glyph glyph-name="ampersand" unicode="&#x26;" horiz-adv-x="656" 
d="M477 655q-89 21 -133 21h-31q-62 0 -93.5 -28t-31.5 -93q0 -50 31 -84t78 -34h281q31 0 31 -31v-19q0 -32 -31 -32h-39v-328q-35 -14 -101.5 -24.5t-124.5 -10.5q-243 0 -243 219q0 62 28.5 111.5t85.5 72.5q-41 20 -65.5 64.5t-24.5 95.5q0 92 55.5 147.5t163.5 55.5h31
q39 0 82 -7.5t62 -16.5q13 -5 16.5 -12t3.5 -23v-26q0 -20 -18 -20q-5 0 -13 2zM313 74q86 0 132 16v265h-148q-63 0 -98 -40t-35 -104q0 -70 36 -103.5t113 -33.5z" />
    <glyph glyph-name="quotesingle" unicode="'" horiz-adv-x="273" 
d="M179 719l-5 -141q-2 -31 -33 -31h-8q-31 0 -33 31l-5 141q-2 31 29 31h25q32 0 30 -31z" />
    <glyph glyph-name="parenleft" unicode="(" horiz-adv-x="352" 
d="M189 -94q-68 65 -105 167t-37 224v31q0 122 37 224t105 167q32 28 45 30q4 1 8 1h21q20 0 20 -13q0 -8 -11 -18q-139 -136 -139 -391v-31q0 -262 139 -391q11 -10 11 -18q0 -13 -20 -13h-21q-9 0 -18.5 5t-14 8.5t-20.5 17.5z" />
    <glyph glyph-name="parenright" unicode=")" horiz-adv-x="352" 
d="M162 -94q-34 -31 -53 -31h-20q-21 0 -21 13q0 8 11 18q140 130 140 391v31q0 254 -140 391q-11 10 -11 18q0 13 21 13h20q19 0 53 -31q68 -65 105.5 -167t37.5 -224v-31q0 -122 -37.5 -224t-105.5 -167z" />
    <glyph glyph-name="asterisk" unicode="*" horiz-adv-x="500" 
d="M219 597v130q0 23 23 23h16q23 0 23 -23v-130l113 65q5 4 13 4q12 0 19 -13l8 -13q3 -5 3 -14q0 -12 -12 -19l-112 -64l112 -64q12 -7 12 -19q0 -9 -3 -14l-8 -13q-7 -13 -19 -13q-8 0 -13 4l-113 64v-129q0 -23 -23 -23h-16q-23 0 -23 23v129l-113 -64q-5 -4 -13 -4
q-12 0 -19 13l-8 13q-4 7 -4 14q0 12 13 19l111 64l-111 64q-13 7 -13 19q0 7 4 14l8 13q7 13 19 13q8 0 13 -4z" />
    <glyph glyph-name="plus" unicode="+" 
d="M352 555v-149h148q31 0 31 -31v-16q0 -31 -31 -31h-148v-148q0 -32 -32 -32h-15q-32 0 -32 32v148h-148q-31 0 -31 31v16q0 31 31 31h148v149q0 31 32 31h15q32 0 32 -31z" />
    <glyph glyph-name="comma" unicode="," horiz-adv-x="273" 
d="M38 -104l44 166q8 32 37 32h34q31 0 31 -32q0 -17 -6 -28l-76 -139q-10 -20 -25 -20h-22q-18 0 -18 15q0 4 1 6z" />
    <glyph glyph-name="hyphen" unicode="-" horiz-adv-x="406" 
d="M312 328h-217q-33 0 -33 31v16q0 31 32 31h218q32 0 32 -31v-16q0 -31 -32 -31z" />
    <glyph glyph-name="hyphen" unicode="&#xad;" horiz-adv-x="406" 
d="M312 328h-217q-33 0 -33 31v16q0 31 32 31h218q32 0 32 -31v-16q0 -31 -32 -31z" />
    <glyph glyph-name="period" unicode="." horiz-adv-x="273" 
d="M184 62v-31q0 -31 -32 -31h-31q-31 0 -31 31v31q0 32 31 32h31q32 0 32 -32z" />
    <glyph glyph-name="slash" unicode="/" horiz-adv-x="500" 
d="M38 -94l344 813q15 31 38 31h19q26 0 26 -19q0 -5 -3 -12l-344 -813q-13 -31 -39 -31h-18q-26 0 -26 19q0 4 3 12z" />
    <glyph glyph-name="zero" unicode="0" 
d="M313 -8q-128 0 -189 94t-61 289t61 289t189 94t189 -94.5t61 -288.5t-61 -288.5t-189 -94.5zM313 74q87 0 121.5 67.5t34.5 233.5t-34.5 233.5t-121.5 67.5q-88 0 -122.5 -67.5t-34.5 -233.5q0 -161 35 -231t122 -70z" />
    <glyph glyph-name="one" unicode="1" 
d="M312 648l-186 -75q-9 -3 -12 -3q-20 0 -20 27v25q0 27 31 39l199 81q19 8 39 8h12q31 0 31 -31v-688q0 -31 -31 -31h-31q-32 0 -32 31v617z" />
    <glyph glyph-name="two" unicode="2" 
d="M508 0h-391q-31 0 -31 31v67q0 161 148 242l86 47q63 34 90.5 66.5t27.5 89.5q0 72 -35 98.5t-106 26.5h-163q-32 0 -32 31v20q0 31 31 31h164q234 0 234 -207q0 -77 -40 -127t-124 -96l-86 -47q-42 -22 -65 -52.5t-29.5 -58.5t-6.5 -68v-12h328q31 0 31 -31v-20
q0 -31 -31 -31z" />
    <glyph glyph-name="three" unicode="3" 
d="M297 355h-93q-32 0 -32 32v19q0 31 31 31h141q94 53 94 126q0 59 -35.5 80t-113.5 21h-163q-32 0 -32 31v24q0 31 31 31h172q234 0 234 -168q0 -54 -21.5 -92.5t-75.5 -75.5q60 -27 86.5 -70t26.5 -117q0 -109 -71 -168t-187 -59h-163q-32 0 -32 31v20q0 31 31 31h164
q76 0 120 37t44 108q0 70 -39 99t-117 29z" />
    <glyph glyph-name="four" unicode="4" 
d="M229 719q5 31 35 31h31q28 0 28 -24q0 -6 -6 -30q-52 -229 -172 -446h246v187q0 32 31 32h31q31 0 31 -32v-187h63q31 0 31 -31v-16q0 -31 -31 -31h-63v-141q0 -31 -31 -31h-31q-31 0 -31 31v141h-313q-31 0 -31 31v8q0 25 9 39q122 208 173 469z" />
    <glyph glyph-name="five" unicode="5" 
d="M508 719v-20q0 -31 -31 -31h-282v-199h102q242 0 242 -223q0 -108 -60 -177t-182 -69h-172q-31 0 -31 31v20q0 31 31 31h172q148 0 148 164q0 78 -35 109.5t-113 31.5h-156q-32 0 -32 31v301q0 31 32 31h336q31 0 31 -31z" />
    <glyph glyph-name="six" unicode="6" 
d="M484 719v-20q0 -31 -31 -31h-78q-203 0 -203 -199v-43q93 43 156 43q115 0 167 -57.5t52 -177.5q0 -110 -56.5 -176t-177.5 -66q-117 0 -176 62t-59 180v235q0 124 75.5 202.5t221.5 78.5h78q31 0 31 -31zM313 74q68 0 104 37t36 123q0 84 -29.5 118.5t-95.5 34.5
q-82 0 -156 -38v-115q0 -160 141 -160z" />
    <glyph glyph-name="seven" unicode="7" 
d="M312 109v-78q0 -31 -31 -31h-31q-31 0 -31 31v63q0 310 242 578h-367q-32 0 -32 31v16q0 31 32 31h437q31 0 31 -31v-12q0 -19 -14 -35q-111 -128 -173.5 -261.5t-62.5 -301.5z" />
    <glyph glyph-name="eight" unicode="8" 
d="M297 -8q-105 0 -166 52t-61 159q0 41 13.5 72t30.5 48.5t50 43.5l35 28q-113 54 -113 171q0 101 59.5 146.5t151.5 45.5h31q101 0 156 -44.5t55 -147.5q0 -50 -20.5 -82.5t-65.5 -73.5l-24 -21q63 -28 94.5 -70.5t31.5 -115.5q0 -101 -64 -156t-163 -55h-31zM354 419
l21 19q25 24 37.5 37.5t22.5 37.5t10 53q0 64 -30 89t-87 25h-31q-57 0 -87 -25t-30 -89q0 -78 78 -109zM305 78h15q66 0 103.5 27.5t37.5 97.5q0 88 -86 121l-102 40l-31 -24q-1 -1 -10 -8t-11 -9t-10.5 -9t-11 -10.5t-9 -11.5t-9 -13.5t-7 -14.5t-6 -18t-3 -20t-1.5 -23
q0 -73 37 -99t104 -26z" />
    <glyph glyph-name="nine" unicode="9" 
d="M172 0q-31 0 -31 31v20q0 31 31 31h78q203 0 203 199v43q-93 -43 -156 -43q-219 0 -219 235q0 109 58.5 175.5t176.5 66.5q116 0 175 -62t59 -180v-235q0 -124 -75.5 -202.5t-221.5 -78.5h-78zM297 363q82 0 156 38v115q0 160 -140 160q-69 0 -105 -36.5t-36 -123.5
q0 -84 29.5 -118.5t95.5 -34.5z" />
    <glyph glyph-name="colon" unicode=":" horiz-adv-x="273" 
d="M184 62v-31q0 -31 -32 -31h-31q-31 0 -31 31v31q0 32 31 32h31q32 0 32 -32zM184 516v-32q0 -31 -32 -31h-31q-31 0 -31 31v32q0 31 31 31h31q32 0 32 -31z" />
    <glyph glyph-name="semicolon" unicode=";" horiz-adv-x="273" 
d="M184 516v-32q0 -31 -32 -31h-31q-31 0 -31 31v32q0 31 31 31h31q32 0 32 -31zM38 -104l44 166q8 32 37 32h34q31 0 31 -32q0 -17 -6 -28l-76 -139q-10 -20 -25 -20h-22q-18 0 -18 15q0 4 1 6z" />
    <glyph glyph-name="less" unicode="&#x3c;" 
d="M125 423l375 194q7 4 14 4q17 0 17 -24v-25q0 -26 -31 -41l-328 -164l328 -163q31 -16 31 -41v-24q0 -26 -18 -26q-3 0 -13 4l-375 195q-31 17 -31 42v27q0 25 31 42z" />
    <glyph glyph-name="equal" unicode="=" 
d="M125 297h375q31 0 31 -31v-16q0 -31 -31 -31h-375q-31 0 -31 31v16q0 31 31 31zM125 516h375q31 0 31 -32v-15q0 -32 -31 -32h-375q-31 0 -31 32v15q0 32 31 32z" />
    <glyph glyph-name="greater" unicode="&#x3e;" 
d="M125 617l375 -195q31 -17 31 -42v-26q0 -25 -31 -42l-375 -195q-10 -4 -13 -4q-18 0 -18 26v24q0 25 31 41l328 163l-328 164q-31 15 -31 41v25q0 24 17 24q7 0 14 -4z" />
    <glyph glyph-name="question" unicode="?" horiz-adv-x="434" 
d="M215 277v-58q0 -32 -31 -32h-24q-31 0 -31 32v39q0 24 14 39l91 109q82 98 82 172q0 94 -117 94h-104q-32 0 -32 31v16q0 31 32 31h104q105 0 154 -42t49 -130q0 -79 -89 -183zM215 62v-31q0 -31 -31 -31h-24q-31 0 -31 31v31q0 32 31 32h24q31 0 31 -32z" />
    <glyph glyph-name="at" unicode="@" horiz-adv-x="930" 
d="M477 -102q-80 0 -151.5 25t-131 75.5t-94.5 136.5t-35 197q0 83 23 153.5t62 120t92.5 84.5t114.5 51.5t127 16.5q173 0 278 -96t105 -264q0 -101 -65.5 -171.5t-168.5 -70.5h-172q-74 0 -118 46.5t-44 129.5q0 82 52.5 133t125.5 51h101q31 0 31 -32v-265h24
q59 0 103.5 46t44.5 133q0 136 -75.5 209t-221.5 73q-156 0 -245 -89.5t-89 -267.5q0 -167 90.5 -256.5t236.5 -89.5q60 0 97 3.5t50.5 7t16.5 3.5q23 0 23 -22v-25q0 -8 -1.5 -12.5t-11.5 -11.5t-28.5 -11.5t-55.5 -7.5t-90 -3zM461 219h62v234h-46q-40 0 -66 -35.5
t-26 -95.5q0 -49 20.5 -76t55.5 -27z" />
    <glyph glyph-name="A" unicode="A" horiz-adv-x="672" 
d="M29 31q27 111 80 289q32 110 84.5 244.5t79.5 185.5h125q27 -50 79.5 -184.5t85.5 -245.5q63 -220 80 -289q1 -3 1 -8q0 -23 -29 -23h-35q-25 0 -33 31q-17 73 -39 153h-345q-22 -80 -39 -153q-8 -31 -33 -31h-34q-29 0 -29 23q0 5 1 8zM203 320q-2 -5 -16 -54h298
q-1 2 -7 22.5t-9 31.5q-65 222 -133 352q-68 -130 -133 -352z" />
    <glyph glyph-name="B" unicode="B" horiz-adv-x="648" 
d="M359 0h-234q-31 0 -31 31v688q0 31 31 31h227q211 0 211 -187q0 -64 -30.5 -111t-75.5 -69q121 -41 121 -172q0 -105 -56 -158t-163 -53zM352 336h-165v-254h172q125 0 125 129q0 125 -132 125zM352 668h-165v-250h165q55 0 86 41t31 96q0 60 -28.5 86.5t-88.5 26.5z" />
    <glyph glyph-name="C" unicode="C" horiz-adv-x="641" 
d="M555 97q9 3 14 3q17 0 17 -20v-25q0 -12 -1 -17.5t-5.5 -10.5t-13.5 -8q-69 -27 -136 -27h-47q-164 0 -246 91.5t-82 244.5v94q0 162 96 249t263 87q100 0 172 -35v-137q0 -31 -31 -31h-24q-31 0 -31 31v78q-47 12 -102 12q-113 0 -181.5 -62t-68.5 -192v-94
q0 -122 61.5 -188t173.5 -66h47q56 0 125 23z" />
    <glyph glyph-name="D" unicode="D" horiz-adv-x="711" 
d="M332 0h-207q-31 0 -31 31v688q0 31 31 31h191q169 0 250.5 -78t81.5 -234v-110q0 -154 -76.5 -241t-239.5 -87zM316 668h-129v-586h145q118 0 170.5 60.5t52.5 185.5v110q0 121 -59.5 175.5t-179.5 54.5z" />
    <glyph glyph-name="E" unicode="E" horiz-adv-x="578" 
d="M484 0h-187q-203 0 -203 203v516q0 31 31 31h359q32 0 32 -31v-20q0 -31 -32 -31h-297v-231h266q31 0 31 -31v-19q0 -32 -31 -32h-266v-160q0 -57 27 -85t75 -28h195q32 0 32 -31v-20q0 -31 -32 -31z" />
    <glyph glyph-name="F" unicode="F" horiz-adv-x="547" 
d="M297 750h172q31 0 31 -31v-20q0 -31 -31 -31h-180q-48 0 -75 -28t-27 -85v-118h266q31 0 31 -31v-19q0 -32 -31 -32h-266v-324q0 -31 -31 -31h-31q-31 0 -31 31v516q0 203 203 203z" />
    <glyph glyph-name="G" unicode="G" horiz-adv-x="695" 
d="M406 367h184q12 0 19.5 -8.5t7.5 -22.5v-305q-23 -13 -79.5 -26t-99.5 -13h-32q-165 0 -254 92.5t-89 243.5v102q0 158 99 243t260 85q84 0 176 -28q19 -4 19 -35v-26q0 -20 -17 -20q-4 0 -14 2q-93 25 -164 25q-121 0 -193.5 -58.5t-72.5 -187.5v-102q0 -122 66 -188
t184 -66h32q45 0 93 13v198h-125q-31 0 -31 31v20q0 31 31 31z" />
    <glyph glyph-name="H" unicode="H" horiz-adv-x="742" 
d="M648 719v-688q0 -31 -31 -31h-31q-31 0 -31 31v324h-368v-324q0 -31 -31 -31h-31q-31 0 -31 31v688q0 31 31 31h31q31 0 31 -31v-281h368v281q0 31 31 31h31q31 0 31 -31z" />
    <glyph glyph-name="I" unicode="I" horiz-adv-x="281" 
d="M187 719v-688q0 -31 -31 -31h-31q-31 0 -31 31v688q0 31 31 31h31q31 0 31 -31z" />
    <glyph glyph-name="J" unicode="J" horiz-adv-x="453" 
d="M78 82h63q59 0 92 36.5t33 100.5v449h-157q-31 0 -31 31v20q0 31 31 31h219q31 0 31 -31v-500q0 -100 -59.5 -159.5t-158.5 -59.5h-63q-31 0 -31 31v20q0 31 31 31z" />
    <glyph glyph-name="K" unicode="K" horiz-adv-x="641" 
d="M494 31l-264 321h-43v-321q0 -31 -31 -31h-31q-31 0 -31 31v688q0 31 31 31h31q31 0 31 -31v-289h47l257 289q28 31 47 31h44q22 0 22 -15q0 -8 -7 -16l-288 -324l296 -364q9 -11 9 -17q0 -14 -21 -14h-52q-21 0 -47 31z" />
    <glyph glyph-name="L" unicode="L" horiz-adv-x="516" 
d="M469 0h-172q-98 0 -150.5 51t-52.5 152v516q0 31 31 31h31q31 0 31 -31v-524q0 -57 27 -85t75 -28h180q31 0 31 -31v-20q0 -31 -31 -31z" />
    <glyph glyph-name="M" unicode="M" horiz-adv-x="844" 
d="M408 281q-12 0 -25 18l-196 275v-543q0 -31 -31 -31h-31q-31 0 -31 31v688q0 31 31 31h27q20 0 34 -20l236 -335l236 335q14 20 33 20h28q31 0 31 -31v-688q0 -31 -31 -31h-32q-31 0 -31 31v551l-205 -283q-13 -18 -25 -18h-18z" />
    <glyph glyph-name="N" unicode="N" horiz-adv-x="750" 
d="M656 719v-688q0 -31 -31 -31h-12q-19 0 -34 20l-391 535l-1 4v-528q0 -31 -31 -31h-31q-31 0 -31 31v688q0 31 31 31h12q19 0 34 -20l391 -534v523q0 31 32 31h31q31 0 31 -31z" />
    <glyph glyph-name="O" unicode="O" horiz-adv-x="734" 
d="M367 -8q-152 0 -232 90.5t-80 261.5v62q0 166 80.5 259t231.5 93q152 0 232.5 -91t80.5 -261v-62q0 -166 -81 -259t-232 -93zM367 74q110 0 164.5 65.5t54.5 204.5v62q0 139 -54.5 204.5t-164.5 65.5t-164.5 -65.5t-54.5 -204.5v-62q0 -139 54.5 -204.5t164.5 -65.5z" />
    <glyph glyph-name="P" unicode="P" horiz-adv-x="609" 
d="M320 250h-133v-219q0 -31 -31 -31h-31q-31 0 -31 31v688q0 31 31 31h211q227 0 227 -242q0 -120 -61.5 -189t-181.5 -69zM328 668h-141v-336h133q87 0 118 45t31 131q0 85 -30.5 122.5t-110.5 37.5z" />
    <glyph glyph-name="Q" unicode="Q" horiz-adv-x="734" 
d="M574 -174q-53 -14 -105 -14q-69 0 -105 39.5t-36 105.5v37q-133 11 -203 101t-70 249v62q0 166 80.5 259t231.5 93q152 0 232.5 -91t80.5 -261v-62q0 -155 -71 -247t-203 -103v-37q0 -33 16 -47.5t58 -14.5q47 0 82 7q10 2 14 2q18 0 18 -19v-24q0 -11 -1 -16.5t-5.5 -11
t-13.5 -7.5zM367 74q110 0 164.5 65.5t54.5 204.5v62q0 139 -54.5 204.5t-164.5 65.5t-164.5 -65.5t-54.5 -204.5v-62q0 -139 54.5 -204.5t164.5 -65.5z" />
    <glyph glyph-name="R" unicode="R" horiz-adv-x="656" 
d="M601 31q2 -8 2 -10q0 -21 -28 -21h-40q-13 0 -19.5 7t-13.5 24q-27 65 -76.5 141t-89.5 109h-149v-250q0 -31 -31 -31h-31q-31 0 -31 31v688q0 31 31 31h211q117 0 172 -54.5t55 -172.5q0 -86 -35 -136t-102 -78q49 -45 100 -128.5t75 -149.5zM328 668h-141v-305h126
q156 0 156 160q0 81 -31.5 113t-109.5 32z" />
    <glyph glyph-name="S" unicode="S" horiz-adv-x="586" 
d="M86 100q88 -26 164 -26h31q157 0 157 129q0 57 -26.5 83.5t-83.5 41.5l-101 27q-164 46 -164 200q0 91 65.5 147t176.5 56h23q73 0 152 -24q13 -4 16.5 -11.5t3.5 -23.5v-26q0 -20 -18 -20q-3 0 -13 2q-89 21 -141 21h-23q-149 0 -149 -121q0 -53 27.5 -77t82.5 -40
l97 -28q35 -10 60 -22t52 -34.5t41.5 -60.5t14.5 -90q0 -97 -66.5 -154t-183.5 -57h-31q-42 0 -96 9t-80 17q-19 4 -19 35v29q0 20 17 20q4 0 14 -2z" />
    <glyph glyph-name="T" unicode="T" horiz-adv-x="594" 
d="M547 668h-203v-637q0 -31 -32 -31h-31q-31 0 -31 31v637h-203q-31 0 -31 31v20q0 31 31 31h500q31 0 31 -31v-20q0 -31 -31 -31z" />
    <glyph glyph-name="U" unicode="U" horiz-adv-x="719" 
d="M633 719v-461q0 -127 -74.5 -196.5t-199.5 -69.5q-129 0 -201 69.5t-72 196.5v461q0 31 31 31h31q32 0 32 -31v-461q0 -95 49 -139.5t130 -44.5q82 0 131 44.5t49 139.5v461q0 31 31 31h32q31 0 31 -31z" />
    <glyph glyph-name="V" unicode="V" horiz-adv-x="641" 
d="M525 719q7 31 34 31h27q27 0 27 -25q0 -8 -8 -45q-42 -211 -109 -402.5t-117 -277.5h-117q-50 85 -116.5 276.5t-110.5 403.5q-9 39 -9 46q0 24 29 24h35q26 0 33 -31q78 -391 201 -641q128 260 201 641z" />
    <glyph glyph-name="W" unicode="W" horiz-adv-x="992" 
d="M456 719q5 31 32 31h24q27 0 32 -31q59 -391 167 -641q103 218 167 641q5 31 32 31h27q28 0 28 -25q0 -12 -4 -34q-34 -213 -90.5 -406t-100.5 -285h-114q-32 64 -75 199t-81 297q-83 -351 -156 -496h-121q-45 92 -101.5 285t-90.5 406q-4 22 -4 34q0 25 28 25h35
q27 0 32 -31q59 -394 167 -641q103 222 167 641z" />
    <glyph glyph-name="X" unicode="X" 
d="M479 31l-174 268l-171 -268q-21 -31 -43 -31h-38q-24 0 -24 16q0 6 6 15l221 345l-221 343q-6 9 -6 15q0 16 24 16h50q22 0 43 -31l165 -257l165 257q20 31 43 31h39q23 0 23 -16q0 -6 -6 -15l-214 -334l229 -354q6 -9 6 -15q0 -16 -24 -16h-50q-22 0 -43 31z" />
    <glyph glyph-name="Y" unicode="Y" horiz-adv-x="602" 
d="M309 391l174 328q18 31 40 31h35q23 0 23 -18q0 -6 -4 -13l-225 -410v-278q0 -31 -32 -31h-31q-31 0 -31 31v270l-226 418q-4 7 -4 13q0 18 25 18h42q21 0 39 -31z" />
    <glyph glyph-name="Z" unicode="Z" horiz-adv-x="609" 
d="M94 750h429q12 0 20.5 -8.5t8.5 -20.5q0 -6 -4 -18q-50 -123 -164.5 -312.5t-203.5 -308.5h351q31 0 31 -31v-20q0 -31 -31 -31h-451q-15 0 -24 7.5t-9 19.5q0 6 0.5 10.5t3.5 9.5t4 7t6.5 8.5t6.5 8.5q101 135 211.5 309.5t154.5 287.5h-340q-32 0 -32 31v20q0 31 32 31
z" />
    <glyph glyph-name="bracketleft" unicode="[" horiz-adv-x="375" 
d="M94 -94v812q0 32 31 32h164q23 0 23 -23v-16q0 -14 -5 -19t-18 -5h-109v-750h109q23 0 23 -23v-16q0 -14 -5 -18.5t-18 -4.5h-164q-31 0 -31 31z" />
    <glyph glyph-name="backslash" unicode="\" horiz-adv-x="500" 
d="M382 -94l-344 813q-3 7 -3 12q0 19 26 19h18q26 0 39 -31l344 -813q3 -8 3 -12q0 -19 -26 -19h-19q-23 0 -38 31z" />
    <glyph glyph-name="bracketright" unicode="]" horiz-adv-x="375" 
d="M281 720v-812q0 -31 -31 -31h-164q-13 0 -18.5 4.5t-5.5 18.5v16q0 23 24 23h109v750h-109q-13 0 -18.5 5t-5.5 19v16q0 23 24 23h164q31 0 31 -32z" />
    <glyph glyph-name="asciicircum" unicode="^" 
d="M369 516l194 -375q4 -7 4 -14q0 -18 -24 -18h-24q-27 0 -41 32l-165 328l-163 -328q-14 -32 -41 -32h-24q-25 0 -25 19q0 2 1.5 6.5t1.5 6.5l196 375q18 31 42 31h26q24 0 42 -31z" />
    <glyph glyph-name="underscore" unicode="_" 
d="M562 -78h-499q-32 0 -32 31v16q0 31 31 31h500q32 0 32 -31v-16q0 -31 -32 -31z" />
    <glyph glyph-name="grave" unicode="`" horiz-adv-x="190" 
d="M110 750l77 -109q0 -2 1.5 -5t1.5 -4q0 -7 -11 -7h-33q-16 0 -30 16l-109 109q-7 7 -7 16q0 15 20 15h48q22 0 42 -31z" />
    <glyph glyph-name="a" unicode="a" horiz-adv-x="590" 
d="M215 -8q-69 0 -112.5 46.5t-43.5 141.5v86q0 124 86 202.5t203 78.5h117q31 0 31 -31v-485q0 -31 -31 -31h-24q-31 0 -31 31v71l-39 -39q-73 -71 -156 -71zM379 156l31 32v281h-62q-90 0 -146.5 -55t-56.5 -148v-86q0 -110 85 -110q63 0 149 86z" />
    <glyph glyph-name="b" unicode="b" horiz-adv-x="590" 
d="M242 0h-117q-31 0 -31 31v688q0 31 31 31h23q32 0 32 -31v-274l39 39q71 71 156 71q69 0 112.5 -46.5t43.5 -141.5v-86q0 -124 -86 -202.5t-203 -78.5zM211 391l-31 -32v-281h62q89 0 146 55.5t57 147.5v86q0 110 -86 110q-62 0 -148 -86z" />
    <glyph glyph-name="c" unicode="c" horiz-adv-x="500" 
d="M449 516v-110q0 -31 -31 -31h-16q-31 0 -31 31v55q-32 16 -78 16q-64 0 -106 -38.5t-42 -118.5v-93q0 -76 38.5 -116.5t109.5 -40.5q63 0 117 24q8 3 14 3q17 0 17 -21v-22q0 -16 -3.5 -22.5t-15.5 -12.5q-54 -27 -129 -27q-109 0 -171.5 60t-62.5 175v93q0 109 70 172
t164 63q92 0 156 -39z" />
    <glyph glyph-name="d" unicode="d" horiz-adv-x="590" 
d="M215 -8q-69 0 -112 46.5t-44 141.5v86q0 124 86 202.5t203 78.5h62v172q0 31 31 31h24q31 0 31 -31v-688q0 -31 -31 -31h-24q-31 0 -31 31v71l-39 -39q-73 -71 -156 -71zM145 266v-86q0 -110 85 -110q63 0 149 86l31 32v281h-62q-90 0 -146.5 -55t-56.5 -148z" />
    <glyph glyph-name="e" unicode="e" horiz-adv-x="531" 
d="M293 -8q-106 0 -170 54t-64 165v109q0 109 65.5 172t168.5 63q86 0 136.5 -39t50.5 -118q0 -73 -45 -114.5t-126 -41.5h-164v-31q0 -141 148 -141q21 0 44.5 3.5t38 8t28 9t14.5 4.5q10 2 14 2q17 0 17 -20v-22q0 -16 -3.5 -22.5t-15.5 -12.5q-6 -3 -24.5 -9t-51.5 -12.5
t-61 -6.5zM145 313h140q62 0 86 21t24 64q0 79 -102 79q-148 0 -148 -157v-7z" />
    <glyph glyph-name="f" unicode="f" horiz-adv-x="344" 
d="M328 672h-31q-52 0 -73 -24t-21 -78v-23h109q32 0 32 -31v-16q0 -31 -32 -31h-109v-438q0 -31 -31 -31h-24q-31 0 -31 31v438h-54q-32 0 -32 31v16q2 31 31 31h55v23q0 87 48.5 133.5t131.5 46.5h31q31 0 31 -31v-16q0 -31 -31 -31z" />
    <glyph glyph-name="g" unicode="g" horiz-adv-x="590" 
d="M410 63v23l-8 -4q-3 -2 -18 -9.5t-21.5 -10t-21 -9t-25 -9.5t-25 -6.5t-30 -5t-31.5 -1.5q-74 0 -122.5 51t-48.5 148v36q0 130 78.5 205.5t194.5 75.5h133q31 0 31 -31v-446q0 -136 -75.5 -197t-221.5 -61h-62q-32 0 -32 32v15q0 32 32 32h62q113 0 162 39t49 133z
M395 148l15 8v313h-78q-87 0 -137 -54.5t-50 -148.5v-36q0 -121 101 -121q69 0 149 39z" />
    <glyph glyph-name="h" unicode="h" horiz-adv-x="613" 
d="M180 719v-274l39 39q71 71 156 71q148 0 148 -188v-336q0 -31 -31 -31h-23q-32 0 -32 31v336q0 110 -85 110q-55 0 -141 -86l-31 -32v-328q0 -31 -32 -31h-23q-31 0 -31 31v688q0 31 31 31h23q32 0 32 -31z" />
    <glyph glyph-name="i" unicode="i" horiz-adv-x="289" 
d="M195 516v-485q0 -31 -31 -31h-23q-32 0 -32 31v438h-61q-31 0 -31 31v16q0 31 30 31h117q31 0 31 -31zM195 719v-32q0 -31 -31 -31h-23q-32 0 -32 31v32q0 31 32 31h23q31 0 31 -31z" />
    <glyph glyph-name="j" unicode="j" horiz-adv-x="297" 
d="M-26 -188q-32 0 -32 32v15q0 32 33 32h12q72 0 101 38t29 118v422h-61q-32 0 -32 31v16q0 31 32 31h116q14 0 22.5 -8t8.5 -22v-454q0 -130 -54.5 -190.5t-174.5 -60.5zM203 719v-32q0 -31 -31 -31h-24q-31 0 -31 31v32q0 31 31 31h24q31 0 31 -31z" />
    <glyph glyph-name="k" unicode="k" horiz-adv-x="539" 
d="M180 719v-383h54l154 180q26 31 49 31h38q23 0 23 -16q0 -8 -7 -15l-186 -215l197 -270q6 -9 6 -15q0 -16 -23 -16h-40q-23 0 -46 31l-165 227h-54v-227q0 -31 -32 -31h-23q-31 0 -31 31v688q0 31 31 31h23q32 0 32 -31z" />
    <glyph glyph-name="l" unicode="l" horiz-adv-x="273" 
d="M180 719v-688q0 -31 -32 -31h-23q-31 0 -31 31v641h-61q-31 0 -31 31v16q0 31 30 31h116q32 0 32 -31z" />
    <glyph glyph-name="m" unicode="m" horiz-adv-x="957" 
d="M180 516v-71l39 39q71 71 156 71q109 0 138 -102h14l33 31q73 71 159 71q148 0 148 -188v-336q0 -31 -31 -31h-24q-31 0 -31 31v336q0 110 -86 110q-54 0 -140 -86l-32 -32v-328q0 -31 -31 -31h-23q-32 0 -32 31v336q0 110 -85 110q-55 0 -141 -86l-31 -32v-328
q0 -31 -32 -31h-23q-31 0 -31 31v485q0 31 31 31h23q32 0 32 -31z" />
    <glyph glyph-name="n" unicode="n" horiz-adv-x="613" 
d="M180 516v-71l39 39q71 71 156 71q148 0 148 -188v-336q0 -31 -31 -31h-23q-32 0 -32 31v336q0 110 -85 110q-55 0 -141 -86l-31 -32v-328q0 -31 -32 -31h-23q-31 0 -31 31v485q0 31 31 31h23q32 0 32 -31z" />
    <glyph glyph-name="o" unicode="o" horiz-adv-x="586" 
d="M293 70q152 0 152 211q0 97 -34 146.5t-118 49.5t-118 -49.5t-34 -146.5q0 -211 152 -211zM293 -8q-238 0 -238 289q0 127 60.5 200.5t177.5 73.5q121 0 179.5 -72.5t58.5 -201.5q0 -137 -60 -213t-178 -76z" />
    <glyph glyph-name="p" unicode="p" horiz-adv-x="590" 
d="M180 0v-156q0 -32 -32 -32h-23q-31 0 -31 32v672q0 31 31 31h23q32 0 32 -31v-71l39 39q71 71 156 71q69 0 112.5 -46.5t43.5 -141.5v-86q0 -124 -86 -202.5t-203 -78.5h-62zM180 78h62q89 0 146 55.5t57 147.5v86q0 110 -86 110q-62 0 -148 -86l-31 -32v-281z" />
    <glyph glyph-name="q" unicode="q" horiz-adv-x="590" 
d="M215 -8q-69 0 -112 46.5t-44 141.5v86q0 124 86 202.5t203 78.5h117q31 0 31 -31v-672q0 -32 -31 -32h-24q-31 0 -31 32v258l-39 -39q-73 -71 -156 -71zM145 266v-86q0 -110 85 -110q63 0 149 86l31 32v281h-62q-90 0 -146.5 -55t-56.5 -148z" />
    <glyph glyph-name="r" unicode="r" horiz-adv-x="398" 
d="M352 453h-8q-61 0 -102 -39l-62 -62v-321q0 -31 -32 -31h-23q-31 0 -31 31v485q0 31 31 31h23q32 0 32 -31v-90l8 12q71 109 160 109h4q31 0 31 -31v-32q0 -31 -31 -31z" />
    <glyph glyph-name="s" unicode="s" horiz-adv-x="516" 
d="M281 477q-125 0 -125 -79q0 -32 16 -43.5t54 -20.5q5 -1 8 -2l67 -16q73 -17 112.5 -52t39.5 -108q0 -85 -62 -124.5t-157 -39.5q-87 0 -136 14q-15 4 -19.5 9.5t-4.5 19.5v27q0 23 25 23q6 0 10 -1q63 -14 125 -14q133 0 133 86q0 59 -86 78l-82 20q-129 30 -129 144
q0 73 57 115t154 42q44 0 121 -11q15 -2 19.5 -8t4.5 -21v-28q0 -22 -26 -22q-2 0 -41 6t-78 6z" />
    <glyph glyph-name="t" unicode="t" horiz-adv-x="406" 
d="M297 78h47q31 0 31 -31v-16q0 -31 -31 -31h-47q-83 0 -131.5 46.5t-48.5 133.5v289h-55q-30 0 -30 31v16q0 31 31 31h54v94q0 31 31 31h24q31 0 31 -31v-94h125q31 0 31 -31v-16q0 -31 -31 -31h-125v-289q0 -48 24.5 -75t69.5 -27z" />
    <glyph glyph-name="u" unicode="u" horiz-adv-x="613" 
d="M434 31v71l-39 -40q-72 -70 -157 -70q-148 0 -148 188v336q0 31 31 31h24q31 0 31 -31v-336q0 -110 86 -110q54 0 140 86l32 31v329q0 31 31 31h23q32 0 32 -31v-485q0 -31 -32 -31h-23q-31 0 -31 31z" />
    <glyph glyph-name="v" unicode="v" horiz-adv-x="523" 
d="M469 516v-110q0 -125 -55.5 -242.5t-108.5 -163.5h-94q-51 44 -103.5 162t-52.5 244v110q0 31 31 31h23q32 0 32 -31v-110q0 -109 36 -202t85 -141q49 49 85 141.5t36 201.5v110q0 31 31 31h23q32 0 32 -31z" />
    <glyph glyph-name="w" unicode="w" horiz-adv-x="758" 
d="M703 516v-110q0 -129 -42.5 -243.5t-90.5 -162.5h-93q-24 26 -57 86.5t-41 101.5q-8 -41 -41 -101.5t-57 -86.5h-93q-48 48 -90.5 162.5t-42.5 243.5v110q0 31 31 31h23q32 0 32 -31v-110q0 -109 29 -202t68 -141q39 49 68.5 141.5t29.5 201.5v110q0 31 31 31h24
q31 0 31 -31v-110q0 -109 29.5 -201.5t68.5 -141.5q39 49 68 141.5t29 201.5v110q0 31 31 31h24q31 0 31 -31z" />
    <glyph glyph-name="x" unicode="x" horiz-adv-x="500" 
d="M300 279l161 -248q5 -8 5 -14q0 -17 -24 -17h-36q-23 0 -44 31l-113 174l-118 -174q-21 -31 -44 -31h-28q-24 0 -24 17q0 5 6 14l164 242l-157 243q-6 8 -6 14q0 17 23 17h38q22 0 43 -31l109 -168l114 168q21 31 43 31h30q24 0 24 -17q0 -8 -5 -14z" />
    <glyph glyph-name="y" unicode="y" horiz-adv-x="613" 
d="M434 63v78l-39 -39q-71 -71 -159 -71q-146 0 -146 188v297q0 31 31 31h24q31 0 31 -31v-297q0 -110 84 -110q56 0 142 86l32 32v289q0 31 31 31h23q32 0 32 -31v-446q0 -136 -75.5 -197t-221.5 -61h-63q-31 0 -31 32v15q0 32 31 32h63q112 0 161.5 39.5t49.5 132.5z" />
    <glyph glyph-name="z" unicode="z" horiz-adv-x="500" 
d="M437 0h-351q-29 0 -31 31v16q0 21 15 39q76 80 161 189.5t132 193.5h-260q-33 0 -33 31v16q0 31 32 31h328q31 0 31 -31v-16q0 -25 -7 -39q-35 -77 -132.5 -203t-157.5 -180h273q32 0 32 -31v-16q0 -31 -32 -31z" />
    <glyph glyph-name="braceleft" unicode="{" horiz-adv-x="469" 
d="M391 -63h23q23 0 23 -23v-16q0 -14 -5 -18.5t-18 -4.5h-23q-97 0 -134.5 40.5t-37.5 131.5v125q0 98 -140 112q-16 2 -16 17v23q0 15 16 17q72 8 106 35.5t34 76.5v125q0 91 37.5 131.5t134.5 40.5h23q23 0 23 -23v-16q0 -14 -5 -19t-18 -5h-23q-52 0 -69 -20.5
t-17 -80.5v-125q0 -68 -34.5 -101.5t-94.5 -46.5q60 -14 94.5 -47.5t34.5 -101.5v-125q0 -60 17 -81t69 -21z" />
    <glyph glyph-name="bar" unicode="|" horiz-adv-x="273" 
d="M98 -156v936q0 32 31 32h16q31 0 31 -31v-937q0 -32 -31 -32h-16q-31 0 -31 32z" />
    <glyph glyph-name="braceright" unicode="}" horiz-adv-x="469" 
d="M55 -63h23q52 0 69 21t17 81v125q0 68 34.5 101.5t94.5 47.5q-60 13 -94.5 46.5t-34.5 101.5v125q0 59 -17 80t-69 21h-23q-13 0 -18.5 5t-5.5 19v16q0 23 24 23h23q97 0 134.5 -40.5t37.5 -131.5v-125q0 -49 34 -76.5t106 -35.5q15 -2 15 -17v-23q0 -15 -15 -17
q-140 -14 -140 -112v-125q0 -91 -37.5 -131.5t-134.5 -40.5h-23q-13 0 -18.5 4.5t-5.5 18.5v16q0 23 24 23z" />
    <glyph glyph-name="asciitilde" unicode="~" 
d="M531 345q0 -24 -31 -51q-37 -32 -86 -32q-37 0 -109 33t-98 33q-49 0 -82 -36q-12 -13 -20 -13q-11 0 -11 21v22q0 23 31 51q35 33 86 33q37 0 109 -33t98 -33q52 0 82 32q12 13 20 13q11 0 11 -21v-19z" />
    <glyph glyph-name="exclamdown" unicode="&#xa1;" horiz-adv-x="273" 
d="M168 508l11 -477q0 -31 -32 -31h-21q-31 0 -31 31l10 477q0 23 24 23h16q23 0 23 -23zM180 719v-32q0 -31 -32 -31h-23q-31 0 -31 31v32q0 31 31 31h23q32 0 32 -31z" />
    <glyph glyph-name="cent" unicode="&#xa2;" 
d="M555 655q-77 21 -157 21q-113 0 -181.5 -62t-68.5 -192v-94q0 -122 61.5 -188t173.5 -66h47q54 0 125 23q8 2 10 2q21 0 21 -26v-19q0 -29 -31 -39q-63 -22 -118 -23v-86q0 -31 -31 -31h-15q-32 0 -32 31v87q-152 7 -228 97t-76 238v94q0 145 78.5 230.5t218.5 101.5v82
q0 31 31 31h15q32 0 32 -31v-78q64 -3 125 -21q31 -10 31 -37v-19q0 -28 -22 -28q-1 0 -9 2z" />
    <glyph glyph-name="sterling" unicode="&#xa3;" 
d="M547 51v-20q0 -31 -31 -31h-422q-32 0 -32 31v20q0 31 32 31h15q79 54 79 184v89h-63q-31 0 -31 32v19q0 31 31 31h63v71q0 110 69 176t181 66h78q31 0 31 -31v-20q0 -31 -31 -31h-78q-77 0 -117 -40.5t-40 -119.5v-71h188q31 0 31 -31v-19q0 -32 -31 -32h-188v-89
q0 -136 -78 -184h313q31 0 31 -31z" />
    <glyph glyph-name="currency" unicode="&#xa4;" horiz-adv-x="500" 
d="M256 534h1q70 0 115 -40l71 75l45 -46l-79 -71q35 -47 35 -118q0 -76 -35 -122l75 -74l-44 -44l-69 76q-45 -42 -117 -42q-71 0 -114 40l-67 -74l-43 44l72 70q-37 50 -37 121q0 73 39 123l-76 71l45 46l68 -76q48 41 115 41zM255 471h-1q-53 0 -85.5 -40.5t-32.5 -100.5
q0 -67 36.5 -103t81.5 -36q48 0 83.5 35.5t35.5 106.5q0 56 -31.5 97t-86.5 41z" />
    <glyph glyph-name="yen" unicode="&#xa5;" 
d="M584 719l-225 -375v-74h172q31 0 31 -32v-19q0 -32 -31 -32h-172v-156q0 -31 -31 -31h-31q-31 0 -31 31v156h-172q-32 0 -32 32v19q0 32 32 32h172v74l-225 375q-5 10 -5 14q0 17 25 17h40q23 0 43 -31l176 -297l170 297q18 31 42 31h32q25 0 25 -17q0 -4 -5 -14z" />
    <glyph glyph-name="brokenbar" unicode="&#xa6;" horiz-adv-x="273" 
d="M98 -156v343q0 32 31 32h16q31 0 31 -32v-343q0 -32 -31 -32h-16q-31 0 -31 32zM98 437v343q0 32 31 32h16q31 0 31 -31v-344q0 -31 -31 -31h-16q-31 0 -31 31z" />
    <glyph glyph-name="section" unicode="&#xa7;" horiz-adv-x="500" 
d="M266 90l-176 116q-31 20 -31 44v35q0 24 16 24q7 0 15 -5l223 -144q117 -75 117 -180q0 -77 -58 -122.5t-145 -45.5h-165q-31 0 -31 32v19q0 32 31 32h168q106 0 106 82q0 67 -70 113zM441 259l-222 143q-117 75 -117 180q0 77 57.5 122.5t145.5 45.5h164q31 0 31 -31
v-20q0 -31 -31 -31h-168q-106 0 -106 -82q0 -67 71 -113l175 -117q32 -19 32 -44v-35q0 -23 -17 -23q-8 0 -15 5z" />
    <glyph glyph-name="dieresis" unicode="&#xa8;" horiz-adv-x="328" 
d="M86 687v-31q0 -31 -31 -31h-24q-31 0 -31 31v31q0 32 31 32h24q31 0 31 -32zM328 687v-31q0 -31 -31 -31h-24q-31 0 -31 31v31q0 32 31 32h24q31 0 31 -32z" />
    <glyph glyph-name="copyright" unicode="&#xa9;" horiz-adv-x="859" 
d="M430 16q-166 0 -274.5 102t-108.5 265t108.5 265t274.5 102q165 0 274 -102.5t109 -264.5t-109 -264.5t-274 -102.5zM430 70q144 0 232 88t88 225t-88 224.5t-232 87.5q-145 0 -233 -87.5t-88 -224.5t88 -225t233 -88zM548 190q-42 -10 -79 -10q-101 0 -168 49.5
t-67 153.5q0 71 34.5 118t85.5 66t115 19q31 0 79 -12q15 -4 15 -18v-15q0 -15 -9 -15q-4 0 -6 1q-48 12 -79 12q-69 0 -112.5 -39t-43.5 -117t43.5 -117t112.5 -39q44 0 79 10q2 1 6 1q9 0 9 -14v-15q0 -15 -15 -19z" />
    <glyph glyph-name="ordfeminine" unicode="&#xaa;" horiz-adv-x="492" 
d="M199 323q-59 0 -96.5 36t-37.5 109v65q0 97 74 157t174 60h101q27 0 27 -23v-373q0 -25 -27 -25h-19q-28 0 -28 25v53l-33 -29q-64 -55 -135 -55zM341 449l26 26v215h-54q-76 0 -125 -42.5t-49 -114.5v-65q0 -85 74 -85q48 0 128 66z" />
    <glyph glyph-name="guillemotleft" unicode="&#xab;" horiz-adv-x="586" 
d="M94 394l156 133q9 8 18 8q13 0 13 -21v-38q0 -23 -31 -48l-109 -92l109 -91q31 -25 31 -48v-38q0 -22 -14 -22q-8 0 -17 8l-156 133q-32 29 -32 49v19q0 21 32 48zM344 394l156 133q9 8 18 8q13 0 13 -21v-38q0 -23 -31 -48l-109 -92l109 -91q31 -25 31 -48v-38
q0 -22 -14 -22q-8 0 -17 8l-156 133q-32 29 -32 49v19q0 21 32 48z" />
    <glyph glyph-name="logicalnot" unicode="&#xac;" 
d="M531 375v-195q0 -32 -31 -32h-16q-31 0 -31 32v148h-328q-31 0 -31 31v16q0 31 31 31h375q31 0 31 -31z" />
    <glyph glyph-name="registered" unicode="&#xae;" horiz-adv-x="859" 
d="M430 16q-166 0 -274.5 102t-108.5 265t108.5 265t274.5 102q165 0 274 -102.5t109 -264.5t-109 -264.5t-274 -102.5zM430 70q144 0 232 88t88 225t-88 224.5t-232 87.5q-145 0 -233 -87.5t-88 -224.5t88 -225t233 -88zM359 367h55q37 0 61.5 24.5t24.5 69.5
q0 39 -24 58.5t-62 19.5h-55v-172zM305 586h109q164 0 164 -125q0 -42 -21.5 -72t-60.5 -41l84 -145q4 -7 4 -12q0 -11 -19 -11h-38q-19 0 -32 23l-65 117h-71v-117q0 -23 -23 -23h-31q-24 0 -24 23v359q0 24 24 24z" />
    <glyph glyph-name="macron" unicode="&#xaf;" horiz-adv-x="250" 
d="M250 665v-17q0 -23 -23 -23h-204q-23 0 -23 23v17q0 23 23 23h204q23 0 23 -23z" />
    <glyph glyph-name="macron" unicode="&#x2c9;" horiz-adv-x="250" 
d="M250 665v-17q0 -23 -23 -23h-204q-23 0 -23 23v17q0 23 23 23h204q23 0 23 -23z" />
    <glyph glyph-name="degree" unicode="&#xb0;" horiz-adv-x="469" 
d="M238 320q-87 0 -128 53.5t-41 163.5q0 111 41 164.5t128 53.5t128 -53.5t41 -164.5q0 -110 -41 -163.5t-128 -53.5zM238 381q52 0 72.5 35t20.5 121t-20.5 122t-72.5 36t-72 -35.5t-20 -122.5q0 -84 20.5 -120t71.5 -36z" />
    <glyph glyph-name="plusminus" unicode="&#xb1;" 
d="M352 555v-149h148q31 0 31 -31v-16q0 -31 -31 -31h-148v-148q0 -32 -32 -32h-15q-32 0 -32 32v148h-148q-31 0 -31 31v16q0 31 31 31h148v149q0 31 32 31h15q32 0 32 -31zM125 0h375q31 0 31 -31v-16q0 -31 -31 -31h-375q-31 0 -31 31v16q0 31 31 31z" />
    <glyph glyph-name="twosuperior" unicode="&#xb2;" horiz-adv-x="412" 
d="M328 324h-253q-12 0 -19.5 7t-7.5 18v37q0 90 100 138l55 27q40 19 56 34t16 44q0 35 -21 48t-62 13h-106q-27 0 -27 25v11q0 24 27 24h106q159 0 159 -121q0 -43 -28.5 -73.5t-82.5 -54.5l-55 -25q-37 -17 -49.5 -38.5t-12.5 -52.5h205q27 0 27 -26v-10q0 -25 -27 -25z
" />
    <glyph glyph-name="threesuperior" unicode="&#xb3;" horiz-adv-x="412" 
d="M192 520h-60q-28 0 -28 24v11q0 24 27 24h91q53 27 53 62q0 28 -21 37.5t-67 9.5h-106q-28 0 -28 25v13q0 24 27 24h112q159 0 159 -99q0 -32 -11 -51.5t-43 -39.5q64 -32 64 -104q0 -63 -48.5 -97.5t-125.5 -34.5h-106q-28 0 -28 25v10q0 26 27 26h107q45 0 71 18t26 53
q0 64 -92 64z" />
    <glyph glyph-name="acute" unicode="&#xb4;" horiz-adv-x="190" 
d="M4 641l76 109q22 31 42 31h49q19 0 19 -15q0 -8 -6 -16l-110 -109q-14 -16 -30 -16h-32q-12 0 -12 7q0 1 4 9z" />
    <glyph glyph-name="mu" unicode="&#xb5;" horiz-adv-x="613" 
d="M446 31q-10 28 -12 70l-39 -38q-36 -35 -72 -53t-85 -18q-34 0 -62 11v-159q0 -32 -31 -32h-24q-31 0 -31 32v672q0 31 31 31h24q31 0 31 -31v-343q0 -103 86 -103q54 0 140 86l32 31v329q0 31 31 31h23q32 0 32 -31v-391q0 -58 12 -94q2 -8 2 -10q0 -21 -25 -21h-24
q-28 0 -39 31z" />
    <glyph glyph-name="mu" unicode="&#x3bc;" horiz-adv-x="613" 
d="M446 31q-10 28 -12 70l-39 -38q-36 -35 -72 -53t-85 -18q-34 0 -62 11v-159q0 -32 -31 -32h-24q-31 0 -31 32v672q0 31 31 31h24q31 0 31 -31v-343q0 -103 86 -103q54 0 140 86l32 31v329q0 31 31 31h23q32 0 32 -31v-391q0 -58 12 -94q2 -8 2 -10q0 -21 -25 -21h-24
q-28 0 -39 31z" />
    <glyph glyph-name="paragraph" unicode="&#xb6;" horiz-adv-x="727" 
d="M375 -156v343h-62q-123 0 -202.5 73.5t-79.5 208.5t79.5 208t202.5 73h117q31 0 31 -31v-875q0 -32 -31 -32h-24q-31 0 -31 32zM547 -156v874q0 32 31 32h24q31 0 31 -31v-875q0 -32 -31 -32h-24q-31 0 -31 32z" />
    <glyph glyph-name="periodcentered" unicode="&#xb7;" horiz-adv-x="273" 
d="M184 375v-31q0 -32 -32 -32h-31q-31 0 -31 32v31q0 31 31 31h31q32 0 32 -31z" />
    <glyph glyph-name="periodcentered" unicode="&#x2219;" horiz-adv-x="273" 
d="M184 375v-31q0 -32 -32 -32h-31q-31 0 -31 32v31q0 31 31 31h31q32 0 32 -31z" />
    <glyph glyph-name="cedilla" unicode="&#xb8;" horiz-adv-x="215" 
d="M23 -133h71q54 0 54 35q0 17 -15.5 35t-34.5 28v12h54q27 -12 45 -35.5t18 -46.5q0 -42 -31 -62.5t-79 -20.5h-82q-23 0 -23 24v8q0 23 23 23z" />
    <glyph glyph-name="onesuperior" unicode="&#xb9;" horiz-adv-x="412" 
d="M195 677l-110 -38q-8 -2 -11 -2q-20 0 -20 21v15q0 20 24 28l129 45q11 4 29 4h5q30 0 30 -24v-377q0 -25 -30 -25h-18q-28 0 -28 25v328z" />
    <glyph glyph-name="ordmasculine" unicode="&#xba;" horiz-adv-x="500" 
d="M250 387q72 0 101.5 41.5t29.5 117.5q0 74 -29 110t-102 36t-102 -36t-29 -110q0 -76 29.5 -117.5t101.5 -41.5zM250 327q-205 0 -205 219q0 97 52 151.5t153 54.5q205 0 205 -206q0 -106 -51.5 -162.5t-153.5 -56.5z" />
    <glyph glyph-name="guillemotright" unicode="&#xbb;" horiz-adv-x="586" 
d="M336 527l156 -133q31 -26 31 -48v-19q0 -21 -31 -49l-156 -133q-9 -8 -17 -8q-14 0 -14 22v38q0 23 31 48l109 91l-109 92q-31 25 -31 48v38q0 21 13 21q9 0 18 -8zM86 527l156 -133q31 -26 31 -48v-19q0 -21 -31 -49l-156 -133q-9 -8 -17 -8q-14 0 -14 22v38q0 23 31 48
l109 91l-109 92q-31 25 -31 48v38q0 21 13 21q9 0 18 -8z" />
    <glyph glyph-name="onequarter" unicode="&#xbc;" horiz-adv-x="938" 
d="M260 23l357 704q12 23 31 23h14q19 0 19 -13q0 -5 -3 -10l-358 -704q-12 -23 -31 -23h-14q-18 0 -18 13q0 5 3 10zM829 247v-95h33q28 0 28 -25v-9q0 -23 -28 -23h-33v-71q0 -24 -28 -24h-20q-28 0 -28 24v71h-193q-29 0 -29 23v5q0 19 7 26q68 85 110 254q7 23 31 23h20
q27 0 27 -22q0 -6 -8 -33q-30 -105 -101 -219h136v95q0 25 28 25h20q28 0 28 -25zM203 677l-110 -38q-8 -2 -11 -2q-20 0 -20 21v15q0 20 24 28l129 45q11 4 29 4h5q29 0 29 -24v-377q0 -25 -29 -25h-19q-27 0 -27 25v328z" />
    <glyph glyph-name="onehalf" unicode="&#xbd;" horiz-adv-x="938" 
d="M260 23l357 704q12 23 31 23h14q19 0 19 -13q0 -5 -3 -10l-358 -704q-12 -23 -31 -23h-14q-18 0 -18 13q0 5 3 10zM203 677l-110 -38q-8 -2 -11 -2q-20 0 -20 21v15q0 20 24 28l129 45q11 4 29 4h5q29 0 29 -24v-377q0 -25 -29 -25h-19q-27 0 -27 25v328zM834 0h-253
q-27 0 -27 24v38q0 90 100 138l55 27q40 19 56 34t16 44q0 35 -21 48t-62 13h-106q-28 0 -28 25v10q0 25 28 25h106q158 0 158 -121q0 -78 -110 -128l-56 -26q-36 -17 -48.5 -38.5t-12.5 -51.5h205q27 0 27 -26v-11q0 -24 -27 -24z" />
    <glyph glyph-name="threequarters" unicode="&#xbe;" horiz-adv-x="938" 
d="M260 23l357 704q12 23 31 23h14q19 0 19 -13q0 -5 -3 -10l-358 -704q-12 -23 -31 -23h-14q-18 0 -18 13q0 5 3 10zM193 520h-60q-29 0 -29 24v11q0 24 28 24h91q53 27 53 62q0 28 -21 37.5t-68 9.5h-105q-28 0 -28 25v13q0 24 27 24h112q159 0 159 -99q0 -32 -11 -51.5
t-43 -39.5q64 -32 64 -104q0 -63 -48.5 -97.5t-126.5 -34.5h-105q-28 0 -28 25v10q0 26 27 26h106q98 0 98 71q0 64 -92 64zM829 247v-95h33q28 0 28 -25v-9q0 -23 -28 -23h-33v-71q0 -24 -28 -24h-20q-28 0 -28 24v71h-193q-29 0 -29 23v5q0 19 7 26q68 85 110 254
q7 23 31 23h20q27 0 27 -22q0 -6 -8 -33q-30 -105 -101 -219h136v95q0 25 28 25h20q28 0 28 -25z" />
    <glyph glyph-name="questiondown" unicode="&#xbf;" horiz-adv-x="434" 
d="M219 473v58q0 31 31 31h23q32 0 32 -31v-39q0 -24 -14 -39l-92 -109q-82 -100 -82 -172q0 -94 117 -94h105q31 0 31 -31v-16q0 -31 -31 -31h-105q-105 0 -154 42t-49 130q0 77 89 183zM219 687v32q0 31 31 31h23q32 0 32 -31v-32q0 -31 -32 -31h-23q-31 0 -31 31z" />
    <glyph glyph-name="Agrave" unicode="&#xc0;" horiz-adv-x="672" 
d="M29 31q27 111 80 289q32 110 84.5 244.5t79.5 185.5h125q27 -50 79.5 -184.5t85.5 -245.5q63 -220 80 -289q1 -3 1 -8q0 -23 -29 -23h-35q-25 0 -33 31q-17 73 -39 153h-345q-22 -80 -39 -153q-8 -31 -33 -31h-34q-29 0 -29 23q0 5 1 8zM203 320q-2 -5 -16 -54h298
q-1 2 -7 22.5t-9 31.5q-65 222 -133 352q-68 -130 -133 -352zM339 953l77 -109q0 -2 1.5 -5t1.5 -4q0 -7 -11 -7h-33q-16 0 -30 16l-109 109q-7 7 -7 16q0 15 20 15h48q22 0 42 -31z" />
    <glyph glyph-name="Aacute" unicode="&#xc1;" horiz-adv-x="672" 
d="M29 31q27 111 80 289q32 110 84.5 244.5t79.5 185.5h125q27 -50 79.5 -184.5t85.5 -245.5q63 -220 80 -289q1 -3 1 -8q0 -23 -29 -23h-35q-25 0 -33 31q-17 73 -39 153h-345q-22 -80 -39 -153q-8 -31 -33 -31h-34q-29 0 -29 23q0 5 1 8zM203 320q-2 -5 -16 -54h298
q-1 2 -7 22.5t-9 31.5q-65 222 -133 352q-68 -130 -133 -352zM260 844l76 109q22 31 42 31h49q19 0 19 -15q0 -9 -6 -16l-110 -109q-14 -16 -30 -16h-32q-12 0 -12 7q0 1 4 9z" />
    <glyph glyph-name="Acircumflex" unicode="&#xc2;" horiz-adv-x="672" 
d="M29 31q27 111 80 289q32 110 84.5 244.5t79.5 185.5h125q27 -50 79.5 -184.5t85.5 -245.5q63 -220 80 -289q1 -3 1 -8q0 -23 -29 -23h-35q-25 0 -33 31q-17 73 -39 153h-345q-22 -80 -39 -153q-8 -31 -33 -31h-34q-29 0 -29 23q0 5 1 8zM203 320q-2 -5 -16 -54h298
q-1 2 -7 22.5t-9 31.5q-65 222 -133 352q-68 -130 -133 -352zM179 859l84 94q26 31 48 31h51q23 0 49 -31l82 -94q9 -11 9 -17q0 -14 -22 -14h-14q-19 0 -50 31l-79 82l-79 -82q-31 -31 -50 -31h-16q-22 0 -22 14q0 6 9 17z" />
    <glyph glyph-name="Atilde" unicode="&#xc3;" horiz-adv-x="672" 
d="M29 31q27 111 80 289q32 110 84.5 244.5t79.5 185.5h125q27 -50 79.5 -184.5t85.5 -245.5q63 -220 80 -289q1 -3 1 -8q0 -23 -29 -23h-35q-25 0 -33 31q-17 73 -39 153h-345q-22 -80 -39 -153q-8 -31 -33 -31h-34q-29 0 -29 23q0 5 1 8zM203 320q-2 -5 -16 -54h298
q-1 2 -7 22.5t-9 31.5q-65 222 -133 352q-68 -130 -133 -352zM476 862q-32 -34 -66 -34q-27 0 -79.5 39t-68.5 39q-34 0 -67 -44q-12 -17 -21 -17q-10 0 -10 19v16q0 19 31 53q32 36 67 36q29 0 81 -39t67 -39q34 0 66 43q13 19 22 19q10 0 10 -20v-12q0 -24 -32 -59z" />
    <glyph glyph-name="Adieresis" unicode="&#xc4;" horiz-adv-x="672" 
d="M29 31q27 111 80 289q32 110 84.5 244.5t79.5 185.5h125q27 -50 79.5 -184.5t85.5 -245.5q63 -220 80 -289q1 -3 1 -8q0 -23 -29 -23h-35q-25 0 -33 31q-17 73 -39 153h-345q-22 -80 -39 -153q-8 -31 -33 -31h-34q-29 0 -29 23q0 5 1 8zM203 320q-2 -5 -16 -54h298
q-1 2 -7 22.5t-9 31.5q-65 222 -133 352q-68 -130 -133 -352zM258 890v-31q0 -31 -31 -31h-24q-31 0 -31 31v31q0 32 31 32h24q31 0 31 -32zM500 890v-31q0 -31 -31 -31h-24q-31 0 -31 31v31q0 32 31 32h24q31 0 31 -32z" />
    <glyph glyph-name="Aring" unicode="&#xc5;" horiz-adv-x="672" 
d="M29 31q27 111 80 289q32 110 84.5 244.5t79.5 185.5h125q27 -50 79.5 -184.5t85.5 -245.5q63 -220 80 -289q1 -3 1 -8q0 -23 -29 -23h-35q-25 0 -33 31q-17 73 -39 153h-345q-22 -80 -39 -153q-8 -31 -33 -31h-34q-29 0 -29 23q0 5 1 8zM203 320q-2 -5 -16 -54h298
q-1 2 -7 22.5t-9 31.5q-65 222 -133 352q-68 -130 -133 -352zM336 828q-56 0 -84.5 29t-28.5 73t28.5 72.5t84.5 28.5t85 -29t29 -72q0 -44 -29 -73t-85 -29zM336 867q33 0 50 18.5t17 44.5t-17 44t-50 18t-49.5 -18t-16.5 -44t16.5 -44.5t49.5 -18.5z" />
    <glyph glyph-name="AE" unicode="&#xc6;" horiz-adv-x="883" 
d="M109 320q33 111 85.5 245.5t78.5 184.5h516q31 0 31 -31v-20q0 -31 -31 -31h-296v-231h265q31 0 31 -31v-19q0 -32 -31 -32h-265v-160q0 -113 101 -113h195q31 0 31 -31v-20q0 -31 -31 -31h-187q-195 0 -204 184h-235q-22 -80 -39 -153q-8 -31 -33 -31h-34q-29 0 -29 23
q0 5 1 8q27 111 80 289zM203 320q-2 -5 -16 -54h211v406h-62q-68 -130 -133 -352z" />
    <glyph glyph-name="Ccedilla" unicode="&#xc7;" horiz-adv-x="641" 
d="M555 97q9 3 14 3q17 0 17 -20v-25q0 -12 -1 -17.5t-5.5 -10.5t-13.5 -8q-69 -27 -136 -27h-47q-164 0 -246 91.5t-82 244.5v94q0 162 96 249t263 87q100 0 172 -35v-137q0 -31 -31 -31h-24q-31 0 -31 31v78q-47 12 -102 12q-113 0 -181.5 -62t-68.5 -192v-94
q0 -122 61.5 -188t173.5 -66h47q56 0 125 23zM291 -133h71q54 0 54 35q0 17 -15.5 35t-34.5 28v12h54q27 -12 45 -35.5t18 -46.5q0 -42 -31 -62.5t-79 -20.5h-82q-23 0 -23 24v8q0 23 23 23z" />
    <glyph glyph-name="Egrave" unicode="&#xc8;" horiz-adv-x="578" 
d="M484 0h-187q-203 0 -203 203v516q0 31 31 31h359q32 0 32 -31v-20q0 -31 -32 -31h-297v-231h266q31 0 31 -31v-19q0 -32 -31 -32h-266v-160q0 -57 27 -85t75 -28h195q32 0 32 -31v-20q0 -31 -32 -31zM296 953l77 -109q0 -2 1.5 -5t1.5 -4q0 -7 -11 -7h-33q-16 0 -30 16
l-109 109q-7 7 -7 16q0 15 20 15h48q22 0 42 -31z" />
    <glyph glyph-name="Eacute" unicode="&#xc9;" horiz-adv-x="578" 
d="M484 0h-187q-203 0 -203 203v516q0 31 31 31h359q32 0 32 -31v-20q0 -31 -32 -31h-297v-231h266q31 0 31 -31v-19q0 -32 -31 -32h-266v-160q0 -57 27 -85t75 -28h195q32 0 32 -31v-20q0 -31 -32 -31zM221 844l76 109q22 31 42 31h49q19 0 19 -15q0 -9 -6 -16l-110 -109
q-14 -16 -30 -16h-32q-12 0 -12 7q0 1 4 9z" />
    <glyph glyph-name="Ecircumflex" unicode="&#xca;" horiz-adv-x="578" 
d="M484 0h-187q-203 0 -203 203v516q0 31 31 31h359q32 0 32 -31v-20q0 -31 -32 -31h-297v-231h266q31 0 31 -31v-19q0 -32 -31 -32h-266v-160q0 -57 27 -85t75 -28h195q32 0 32 -31v-20q0 -31 -32 -31zM140 859l84 94q26 31 48 31h51q23 0 49 -31l82 -94q9 -11 9 -17
q0 -14 -22 -14h-14q-19 0 -50 31l-79 82l-79 -82q-31 -31 -50 -31h-16q-22 0 -22 14q0 6 9 17z" />
    <glyph glyph-name="Edieresis" unicode="&#xcb;" horiz-adv-x="578" 
d="M484 0h-187q-203 0 -203 203v516q0 31 31 31h359q32 0 32 -31v-20q0 -31 -32 -31h-297v-231h266q31 0 31 -31v-19q0 -32 -31 -32h-266v-160q0 -57 27 -85t75 -28h195q32 0 32 -31v-20q0 -31 -32 -31zM219 890v-31q0 -31 -31 -31h-24q-31 0 -31 31v31q0 32 31 32h24
q31 0 31 -32zM461 890v-31q0 -31 -31 -31h-24q-31 0 -31 31v31q0 32 31 32h24q31 0 31 -32z" />
    <glyph glyph-name="Igrave" unicode="&#xcc;" horiz-adv-x="281" 
d="M187 719v-688q0 -31 -31 -31h-31q-31 0 -31 31v688q0 31 31 31h31q31 0 31 -31zM151 953l77 -109q0 -2 1.5 -5t1.5 -4q0 -7 -11 -7h-33q-16 0 -30 16l-109 109q-7 7 -7 16q0 15 20 15h48q22 0 42 -31z" />
    <glyph glyph-name="Iacute" unicode="&#xcd;" horiz-adv-x="281" 
d="M187 719v-688q0 -31 -31 -31h-31q-31 0 -31 31v688q0 31 31 31h31q31 0 31 -31zM61 844l76 109q22 31 42 31h49q19 0 19 -15q0 -9 -6 -16l-110 -109q-14 -16 -30 -16h-32q-12 0 -12 7q0 1 4 9z" />
    <glyph glyph-name="Icircumflex" unicode="&#xce;" horiz-adv-x="281" 
d="M187 719v-688q0 -31 -31 -31h-31q-31 0 -31 31v688q0 31 31 31h31q31 0 31 -31zM-16 859l84 94q26 31 48 31h51q23 0 49 -31l82 -94q9 -11 9 -17q0 -14 -22 -14h-14q-19 0 -50 31l-79 82l-79 -82q-31 -31 -50 -31h-16q-22 0 -22 14q0 6 9 17z" />
    <glyph glyph-name="Idieresis" unicode="&#xcf;" horiz-adv-x="281" 
d="M187 719v-688q0 -31 -31 -31h-31q-31 0 -31 31v688q0 31 31 31h31q31 0 31 -31zM63 890v-31q0 -31 -31 -31h-24q-31 0 -31 31v31q0 32 31 32h24q31 0 31 -32zM305 890v-31q0 -31 -31 -31h-24q-31 0 -31 31v31q0 32 31 32h24q31 0 31 -32z" />
    <glyph glyph-name="Eth" unicode="&#xd0;" horiz-adv-x="711" 
d="M332 0h-207q-31 0 -31 31v324h-32q-31 0 -31 32v19q0 31 31 31h32v282q0 31 31 31h191q169 0 250.5 -78t81.5 -234v-110q0 -154 -76.5 -241t-239.5 -87zM282 355h-95v-273h145q118 0 170.5 60.5t52.5 185.5v110q0 121 -59.5 175.5t-179.5 54.5h-129v-231h95q31 0 31 -31
v-19q0 -32 -31 -32z" />
    <glyph glyph-name="Ntilde" unicode="&#xd1;" horiz-adv-x="750" 
d="M656 719v-688q0 -31 -31 -31h-12q-19 0 -34 20l-391 535l-1 4v-528q0 -31 -31 -31h-31q-31 0 -31 31v688q0 31 31 31h12q19 0 34 -20l391 -534v523q0 31 32 31h31q31 0 31 -31zM515 862q-32 -34 -66 -34q-27 0 -80 39t-68 39q-34 0 -67 -44q-12 -17 -21 -17q-10 0 -10 19
v16q0 19 31 53q32 36 67 36q29 0 81 -39t67 -39q34 0 66 43q13 19 22 19q10 0 10 -20v-12q0 -24 -32 -59z" />
    <glyph glyph-name="Ograve" unicode="&#xd2;" horiz-adv-x="734" 
d="M367 -8q-152 0 -232 90.5t-80 261.5v62q0 166 80.5 259t231.5 93q152 0 232.5 -91t80.5 -261v-62q0 -166 -81 -259t-232 -93zM367 74q110 0 164.5 65.5t54.5 204.5v62q0 139 -54.5 204.5t-164.5 65.5t-164.5 -65.5t-54.5 -204.5v-62q0 -139 54.5 -204.5t164.5 -65.5z
M374 953l77 -109q0 -2 1.5 -5t1.5 -4q0 -7 -11 -7h-33q-16 0 -30 16l-109 109q-7 7 -7 16q0 15 20 15h48q22 0 42 -31z" />
    <glyph glyph-name="Oacute" unicode="&#xd3;" horiz-adv-x="734" 
d="M367 -8q-152 0 -232 90.5t-80 261.5v62q0 166 80.5 259t231.5 93q152 0 232.5 -91t80.5 -261v-62q0 -166 -81 -259t-232 -93zM367 74q110 0 164.5 65.5t54.5 204.5v62q0 139 -54.5 204.5t-164.5 65.5t-164.5 -65.5t-54.5 -204.5v-62q0 -139 54.5 -204.5t164.5 -65.5z
M287 844l76 109q22 31 42 31h49q19 0 19 -15q0 -9 -6 -16l-110 -109q-14 -16 -30 -16h-32q-12 0 -12 7q0 1 4 9z" />
    <glyph glyph-name="Ocircumflex" unicode="&#xd4;" horiz-adv-x="734" 
d="M367 -8q-152 0 -232 90.5t-80 261.5v62q0 166 80.5 259t231.5 93q152 0 232.5 -91t80.5 -261v-62q0 -166 -81 -259t-232 -93zM367 74q110 0 164.5 65.5t54.5 204.5v62q0 139 -54.5 204.5t-164.5 65.5t-164.5 -65.5t-54.5 -204.5v-62q0 -139 54.5 -204.5t164.5 -65.5z
M210 859l84 94q26 31 48 31h51q23 0 49 -31l82 -94q9 -11 9 -17q0 -14 -22 -14h-14q-19 0 -50 31l-79 82l-79 -82q-31 -31 -50 -31h-16q-22 0 -22 14q0 6 9 17z" />
    <glyph glyph-name="Otilde" unicode="&#xd5;" horiz-adv-x="734" 
d="M367 -8q-152 0 -232 90.5t-80 261.5v62q0 166 80.5 259t231.5 93q152 0 232.5 -91t80.5 -261v-62q0 -166 -81 -259t-232 -93zM367 74q110 0 164.5 65.5t54.5 204.5v62q0 139 -54.5 204.5t-164.5 65.5t-164.5 -65.5t-54.5 -204.5v-62q0 -139 54.5 -204.5t164.5 -65.5z
M507 862q-32 -34 -66 -34q-27 0 -79.5 39t-68.5 39q-34 0 -67 -44q-12 -17 -21 -17q-10 0 -10 19v16q0 19 31 53q32 36 67 36q29 0 81 -39t67 -39q34 0 66 43q13 19 22 19q10 0 10 -20v-12q0 -24 -32 -59z" />
    <glyph glyph-name="Odieresis" unicode="&#xd6;" horiz-adv-x="734" 
d="M367 -8q-152 0 -232 90.5t-80 261.5v62q0 166 80.5 259t231.5 93q152 0 232.5 -91t80.5 -261v-62q0 -166 -81 -259t-232 -93zM367 74q110 0 164.5 65.5t54.5 204.5v62q0 139 -54.5 204.5t-164.5 65.5t-164.5 -65.5t-54.5 -204.5v-62q0 -139 54.5 -204.5t164.5 -65.5z
M289 890v-31q0 -31 -31 -31h-24q-31 0 -31 31v31q0 32 31 32h24q31 0 31 -32zM531 890v-31q0 -31 -31 -31h-24q-31 0 -31 31v31q0 32 31 32h24q31 0 31 -32z" />
    <glyph glyph-name="multiply" unicode="&#xd7;" 
d="M152 263l104 104l-104 105q-10 12 -10 22q0 11 10 23l11 10q11 11 23 11q11 0 22 -11l104 -104l105 104q11 11 22 11q12 0 23 -11l11 -10q10 -12 10 -23q0 -10 -10 -22l-105 -105l105 -104q10 -12 10 -23q0 -10 -10 -22l-11 -11q-11 -11 -23 -11q-11 0 -22 11l-105 104
l-104 -104q-11 -11 -22 -11q-12 0 -23 11l-11 11q-10 12 -10 22q0 11 10 23z" />
    <glyph glyph-name="Oslash" unicode="&#xd8;" horiz-adv-x="734" 
d="M671 728l-59 -77q68 -91 68 -245v-62q0 -166 -81 -259t-232 -93q-133 0 -210 69l-31 -40q-19 -21 -33 -21h-16q-17 0 -17 14q0 4 2 8l59 77q-66 89 -66 245v62q0 166 80.5 259t231.5 93q130 0 210 -69l31 40q19 21 34 21h14q18 0 18 -14q0 -5 -3 -8zM367 74
q110 0 164.5 65.5t54.5 204.5v62q0 106 -32 170l-344 -446q55 -56 157 -56zM148 344q0 -105 32 -169l343 444q-53 57 -156 57q-110 0 -164.5 -65.5t-54.5 -204.5v-62z" />
    <glyph glyph-name="Ugrave" unicode="&#xd9;" horiz-adv-x="719" 
d="M633 719v-461q0 -127 -74.5 -196.5t-199.5 -69.5q-129 0 -201 69.5t-72 196.5v461q0 31 31 31h31q32 0 32 -31v-461q0 -95 49 -139.5t130 -44.5q82 0 131 44.5t49 139.5v461q0 31 31 31h32q31 0 31 -31zM362 953l77 -109q0 -2 1.5 -5t1.5 -4q0 -7 -11 -7h-33
q-16 0 -30 16l-109 109q-7 7 -7 16q0 15 20 15h48q22 0 42 -31z" />
    <glyph glyph-name="Uacute" unicode="&#xda;" horiz-adv-x="719" 
d="M633 719v-461q0 -127 -74.5 -196.5t-199.5 -69.5q-129 0 -201 69.5t-72 196.5v461q0 31 31 31h31q32 0 32 -31v-461q0 -95 49 -139.5t130 -44.5q82 0 131 44.5t49 139.5v461q0 31 31 31h32q31 0 31 -31zM279 844l76 109q22 31 42 31h49q19 0 19 -15q0 -9 -6 -16
l-110 -109q-14 -16 -30 -16h-32q-12 0 -12 7q0 1 4 9z" />
    <glyph glyph-name="Ucircumflex" unicode="&#xdb;" horiz-adv-x="719" 
d="M633 719v-461q0 -127 -74.5 -196.5t-199.5 -69.5q-129 0 -201 69.5t-72 196.5v461q0 31 31 31h31q32 0 32 -31v-461q0 -95 49 -139.5t130 -44.5q82 0 131 44.5t49 139.5v461q0 31 31 31h32q31 0 31 -31zM202 859l84 94q26 31 48 31h51q23 0 49 -31l82 -94q9 -11 9 -17
q0 -14 -22 -14h-14q-19 0 -50 31l-79 82l-79 -82q-31 -31 -50 -31h-16q-22 0 -22 14q0 6 9 17z" />
    <glyph glyph-name="Udieresis" unicode="&#xdc;" horiz-adv-x="719" 
d="M633 719v-461q0 -127 -74.5 -196.5t-199.5 -69.5q-129 0 -201 69.5t-72 196.5v461q0 31 31 31h31q32 0 32 -31v-461q0 -95 49 -139.5t130 -44.5q82 0 131 44.5t49 139.5v461q0 31 31 31h32q31 0 31 -31zM281 890v-31q0 -31 -31 -31h-24q-31 0 -31 31v31q0 32 31 32h24
q31 0 31 -32zM523 890v-31q0 -31 -31 -31h-24q-31 0 -31 31v31q0 32 31 32h24q31 0 31 -32z" />
    <glyph glyph-name="Yacute" unicode="&#xdd;" horiz-adv-x="602" 
d="M309 391l174 328q18 31 40 31h35q23 0 23 -18q0 -6 -4 -13l-225 -410v-278q0 -31 -32 -31h-31q-31 0 -31 31v270l-226 418q-4 7 -4 13q0 18 25 18h42q21 0 39 -31zM229 844l76 109q22 31 42 31h49q19 0 19 -15q0 -9 -6 -16l-110 -109q-14 -16 -30 -16h-32q-12 0 -12 7
q0 1 4 9z" />
    <glyph glyph-name="Thorn" unicode="&#xde;" horiz-adv-x="609" 
d="M187 719v-94h149q227 0 227 -242q0 -120 -61.5 -189t-181.5 -69h-133v-94q0 -31 -31 -31h-31q-31 0 -31 31v688q0 31 31 31h31q31 0 31 -31zM328 543h-141v-336h133q87 0 118 45t31 131q0 85 -30.5 122.5t-110.5 37.5z" />
    <glyph glyph-name="germandbls" unicode="&#xdf;" horiz-adv-x="691" 
d="M344 79q37 -9 86 -9q55 0 86 22.5t31 67.5q0 21 -9 35.5t-20 21t-33 17.5l-55 28q-51 25 -76.5 55t-25.5 81q0 11 2.5 22t9.5 22t12 18.5t16.5 18.5t15.5 15t18.5 16t15.5 13q43 38 43 82q0 22 -11 36.5t-31 20.5t-36 8t-39 2q-42 0 -70.5 -7t-49.5 -32.5t-21 -69.5v-532
q0 -31 -31 -31h-24q-31 0 -31 31v438h-55q-31 0 -31 31v16q0 31 31 31h55v19q0 96 63.5 140t163.5 44q203 0 203 -133q0 -29 -11.5 -54t-23.5 -38t-35 -33q-2 -1 -12 -9.5t-14.5 -12.5t-13 -13t-12.5 -15.5t-7.5 -16.5t-3.5 -19q0 -18 8.5 -32t17.5 -20.5t29 -17.5l35 -20
q6 -4 27.5 -15.5t28.5 -15.5t23 -15t21.5 -20t14 -22.5t11.5 -30.5t3 -37q0 -76 -51 -122t-145 -46q-66 0 -105 9q-15 4 -19 9t-4 20v28q0 22 24 22q7 0 11 -1z" />
    <glyph glyph-name="agrave" unicode="&#xe0;" horiz-adv-x="590" 
d="M215 -8q-69 0 -112.5 46.5t-43.5 141.5v86q0 124 86 202.5t203 78.5h117q31 0 31 -31v-485q0 -31 -31 -31h-24q-31 0 -31 31v71l-39 -39q-73 -71 -156 -71zM379 156l31 32v281h-62q-90 0 -146.5 -55t-56.5 -148v-86q0 -110 85 -110q63 0 149 86zM321 750l77 -109
q0 -2 1.5 -5t1.5 -4q0 -7 -11 -7h-33q-16 0 -30 16l-109 109q-7 7 -7 16q0 15 20 15h48q22 0 42 -31z" />
    <glyph glyph-name="aacute" unicode="&#xe1;" horiz-adv-x="590" 
d="M215 -8q-69 0 -112.5 46.5t-43.5 141.5v86q0 124 86 202.5t203 78.5h117q31 0 31 -31v-485q0 -31 -31 -31h-24q-31 0 -31 31v71l-39 -39q-73 -71 -156 -71zM379 156l31 32v281h-62q-90 0 -146.5 -55t-56.5 -148v-86q0 -110 85 -110q63 0 149 86zM246 641l76 109
q22 31 42 31h49q19 0 19 -15q0 -8 -6 -16l-110 -109q-14 -16 -30 -16h-32q-12 0 -12 7q0 1 4 9z" />
    <glyph glyph-name="acircumflex" unicode="&#xe2;" horiz-adv-x="590" 
d="M215 -8q-69 0 -112.5 46.5t-43.5 141.5v86q0 124 86 202.5t203 78.5h117q31 0 31 -31v-485q0 -31 -31 -31h-24q-31 0 -31 31v71l-39 -39q-73 -71 -156 -71zM379 156l31 32v281h-62q-90 0 -146.5 -55t-56.5 -148v-86q0 -110 85 -110q63 0 149 86zM154 656l84 94
q26 31 48 31h51q23 0 49 -31l82 -94q9 -11 9 -17q0 -14 -22 -14h-14q-19 0 -50 31l-79 82l-79 -82q-31 -31 -50 -31h-16q-22 0 -22 14q0 7 9 17z" />
    <glyph glyph-name="atilde" unicode="&#xe3;" horiz-adv-x="590" 
d="M215 -8q-69 0 -112.5 46.5t-43.5 141.5v86q0 124 86 202.5t203 78.5h117q31 0 31 -31v-485q0 -31 -31 -31h-24q-31 0 -31 31v71l-39 -39q-73 -71 -156 -71zM379 156l31 32v281h-62q-90 0 -146.5 -55t-56.5 -148v-86q0 -110 85 -110q63 0 149 86zM447 659q-32 -34 -66 -34
q-27 0 -80 39t-68 39q-34 0 -67 -44q-12 -17 -21 -17q-10 0 -10 19v16q0 19 31 53q32 36 67 36q29 0 81 -39t67 -39q34 0 66 43q13 19 22 19q10 0 10 -20v-12q0 -24 -32 -59z" />
    <glyph glyph-name="adieresis" unicode="&#xe4;" horiz-adv-x="590" 
d="M215 -8q-69 0 -112.5 46.5t-43.5 141.5v86q0 124 86 202.5t203 78.5h117q31 0 31 -31v-485q0 -31 -31 -31h-24q-31 0 -31 31v71l-39 -39q-73 -71 -156 -71zM379 156l31 32v281h-62q-90 0 -146.5 -55t-56.5 -148v-86q0 -110 85 -110q63 0 149 86zM229 687v-31
q0 -31 -31 -31h-24q-31 0 -31 31v31q0 32 31 32h24q31 0 31 -32zM471 687v-31q0 -31 -31 -31h-24q-31 0 -31 31v31q0 32 31 32h24q31 0 31 -32z" />
    <glyph glyph-name="aring" unicode="&#xe5;" horiz-adv-x="590" 
d="M215 -8q-69 0 -112.5 46.5t-43.5 141.5v86q0 124 86 202.5t203 78.5h117q31 0 31 -31v-485q0 -31 -31 -31h-24q-31 0 -31 31v71l-39 -39q-73 -71 -156 -71zM379 156l31 32v281h-62q-90 0 -146.5 -55t-56.5 -148v-86q0 -110 85 -110q63 0 149 86zM302 625q-56 0 -84.5 29
t-28.5 73q0 43 28.5 72t84.5 29t85 -29t29 -72q0 -44 -29 -73t-85 -29zM302 664q33 0 50 18.5t17 44.5t-17 44t-50 18t-49.5 -18t-16.5 -44t16.5 -44.5t49.5 -18.5z" />
    <glyph glyph-name="ae" unicode="&#xe6;" horiz-adv-x="883" 
d="M213 -8q-69 0 -112.5 46.5t-43.5 141.5v86q0 124 86 202.5t203 78.5h297q86 0 136.5 -38.5t50.5 -117.5q0 -74 -45 -115.5t-127 -41.5h-164v-23q0 -73 40 -107t109 -34q21 0 44.5 3.5t38 8t28 9t14.5 4.5q8 2 13 2q18 0 18 -20v-22q0 -16 -3.5 -22.5t-16.5 -12.5
q-6 -3 -24.5 -9t-51 -12.5t-60.5 -6.5q-172 0 -220 124l-54 -53q-73 -71 -156 -71zM377 156l31 32v124q0 96 52 157h-114q-89 0 -146 -55.5t-57 -147.5v-86q0 -110 86 -110q62 0 148 86zM494 306h141q62 0 85.5 20.5t23.5 64.5q0 78 -101 78q-149 0 -149 -157v-6z" />
    <glyph glyph-name="ccedilla" unicode="&#xe7;" horiz-adv-x="500" 
d="M449 516v-110q0 -31 -31 -31h-16q-31 0 -31 31v55q-32 16 -78 16q-64 0 -106 -38.5t-42 -118.5v-93q0 -76 38.5 -116.5t109.5 -40.5q63 0 117 24q8 3 14 3q17 0 17 -21v-22q0 -16 -3.5 -22.5t-15.5 -12.5q-54 -27 -129 -27q-109 0 -171.5 60t-62.5 175v93q0 109 70 172
t164 63q92 0 156 -39zM189 -133h71q54 0 54 35q0 17 -15.5 35t-34.5 28v12h54q27 -12 45 -35.5t18 -46.5q0 -42 -31 -62.5t-79 -20.5h-82q-23 0 -23 24v8q0 23 23 23z" />
    <glyph glyph-name="egrave" unicode="&#xe8;" horiz-adv-x="531" 
d="M293 -8q-106 0 -170 54t-64 165v109q0 109 65.5 172t168.5 63q86 0 136.5 -39t50.5 -118q0 -73 -45 -114.5t-126 -41.5h-164v-31q0 -141 148 -141q21 0 44.5 3.5t38 8t28 9t14.5 4.5q10 2 14 2q17 0 17 -20v-22q0 -16 -3.5 -22.5t-15.5 -12.5q-6 -3 -24.5 -9t-51.5 -12.5
t-61 -6.5zM145 313h140q62 0 86 21t24 64q0 79 -102 79q-148 0 -148 -157v-7zM280 750l77 -109q0 -2 1.5 -5t1.5 -4q0 -7 -11 -7h-33q-16 0 -30 16l-109 109q-7 7 -7 16q0 15 20 15h48q22 0 42 -31z" />
    <glyph glyph-name="eacute" unicode="&#xe9;" horiz-adv-x="531" 
d="M293 -8q-106 0 -170 54t-64 165v109q0 109 65.5 172t168.5 63q86 0 136.5 -39t50.5 -118q0 -73 -45 -114.5t-126 -41.5h-164v-31q0 -141 148 -141q21 0 44.5 3.5t38 8t28 9t14.5 4.5q10 2 14 2q17 0 17 -20v-22q0 -16 -3.5 -22.5t-15.5 -12.5q-6 -3 -24.5 -9t-51.5 -12.5
t-61 -6.5zM145 313h140q62 0 86 21t24 64q0 79 -102 79q-148 0 -148 -157v-7zM193 641l76 109q22 31 42 31h49q19 0 19 -15q0 -8 -6 -16l-110 -109q-14 -16 -30 -16h-32q-12 0 -12 7q0 1 4 9z" />
    <glyph glyph-name="ecircumflex" unicode="&#xea;" horiz-adv-x="531" 
d="M293 -8q-106 0 -170 54t-64 165v109q0 109 65.5 172t168.5 63q86 0 136.5 -39t50.5 -118q0 -73 -45 -114.5t-126 -41.5h-164v-31q0 -141 148 -141q21 0 44.5 3.5t38 8t28 9t14.5 4.5q10 2 14 2q17 0 17 -20v-22q0 -16 -3.5 -22.5t-15.5 -12.5q-6 -3 -24.5 -9t-51.5 -12.5
t-61 -6.5zM145 313h140q62 0 86 21t24 64q0 79 -102 79q-148 0 -148 -157v-7zM116 656l84 94q26 31 48 31h51q23 0 49 -31l82 -94q9 -10 9 -17q0 -14 -22 -14h-14q-19 0 -50 31l-79 82l-79 -82q-31 -31 -50 -31h-16q-22 0 -22 14q0 7 9 17z" />
    <glyph glyph-name="edieresis" unicode="&#xeb;" horiz-adv-x="531" 
d="M293 -8q-106 0 -170 54t-64 165v109q0 109 65.5 172t168.5 63q86 0 136.5 -39t50.5 -118q0 -73 -45 -114.5t-126 -41.5h-164v-31q0 -141 148 -141q21 0 44.5 3.5t38 8t28 9t14.5 4.5q10 2 14 2q17 0 17 -20v-22q0 -16 -3.5 -22.5t-15.5 -12.5q-6 -3 -24.5 -9t-51.5 -12.5
t-61 -6.5zM145 313h140q62 0 86 21t24 64q0 79 -102 79q-148 0 -148 -157v-7zM195 687v-31q0 -31 -31 -31h-24q-31 0 -31 31v31q0 32 31 32h24q31 0 31 -32zM437 687v-31q0 -31 -31 -31h-24q-31 0 -31 31v31q0 32 31 32h24q31 0 31 -32z" />
    <glyph glyph-name="igrave" unicode="&#xec;" horiz-adv-x="289" 
d="M195 516v-485q0 -31 -31 -31h-23q-32 0 -32 31v438h-61q-31 0 -31 31v16q0 31 31 31h116q31 0 31 -31zM139 750l77 -109q0 -2 1.5 -5t1.5 -4q0 -7 -11 -7h-33q-16 0 -30 16l-109 109q-7 7 -7 16q0 15 20 15h48q22 0 42 -31z" />
    <glyph glyph-name="iacute" unicode="&#xed;" horiz-adv-x="289" 
d="M195 516v-485q0 -31 -31 -31h-23q-32 0 -32 31v438h-61q-31 0 -31 31v16q0 31 31 31h116q31 0 31 -31zM68 641l76 109q22 31 42 31h49q19 0 19 -15q0 -8 -6 -16l-110 -109q-14 -16 -30 -16h-32q-12 0 -12 7q0 1 4 9z" />
    <glyph glyph-name="icircumflex" unicode="&#xee;" horiz-adv-x="289" 
d="M195 516v-485q0 -31 -31 -31h-23q-32 0 -32 31v438h-61q-31 0 -31 31v16q0 31 31 31h116q31 0 31 -31zM-24 656l84 94q26 31 48 31h51q23 0 49 -31l82 -94q9 -10 9 -17q0 -14 -22 -14h-14q-19 0 -50 31l-79 82l-79 -82q-31 -31 -50 -31h-16q-22 0 -22 14q0 7 9 17z" />
    <glyph glyph-name="idieresis" unicode="&#xef;" horiz-adv-x="289" 
d="M195 516v-485q0 -31 -31 -31h-23q-32 0 -32 31v438h-61q-31 0 -31 31v16q0 31 31 31h116q31 0 31 -31zM47 687v-31q0 -31 -31 -31h-24q-31 0 -31 31v31q0 32 31 32h24q31 0 31 -32zM289 687v-31q0 -31 -31 -31h-24q-31 0 -31 31v31q0 32 31 32h24q31 0 31 -32z" />
    <glyph glyph-name="eth" unicode="&#xf0;" horiz-adv-x="590" 
d="M215 -8q-69 0 -112 46.5t-44 141.5v86q0 124 86 202.5t203 78.5h62v70h-94q-31 0 -31 28v15q0 31 31 31h94v28q0 31 31 31h24q31 0 31 -31v-28h31q32 0 32 -31v-15q0 -28 -32 -28h-31v-586q0 -31 -31 -31h-24q-31 0 -31 31v71l-39 -39q-73 -71 -156 -71zM145 266v-86
q0 -110 85 -110q63 0 149 86l31 32v281h-62q-90 0 -146.5 -55t-56.5 -148z" />
    <glyph glyph-name="ntilde" unicode="&#xf1;" horiz-adv-x="613" 
d="M180 516v-71l39 39q71 71 156 71q148 0 148 -188v-336q0 -31 -31 -31h-23q-32 0 -32 31v336q0 110 -85 110q-55 0 -141 -86l-31 -32v-328q0 -31 -32 -31h-23q-31 0 -31 31v485q0 31 31 31h23q32 0 32 -31zM447 659q-32 -34 -66 -34q-27 0 -80 39t-68 39q-34 0 -67 -44
q-12 -17 -21 -17q-10 0 -10 19v16q0 19 31 53q32 36 67 36q29 0 81 -39t67 -39q34 0 66 43q13 19 22 19q10 0 10 -20v-12q0 -24 -32 -59z" />
    <glyph glyph-name="ograve" unicode="&#xf2;" horiz-adv-x="586" 
d="M293 70q152 0 152 211q0 97 -34 146.5t-118 49.5t-118 -49.5t-34 -146.5q0 -211 152 -211zM293 -8q-238 0 -238 289q0 127 60.5 200.5t177.5 73.5q121 0 179.5 -72.5t58.5 -201.5q0 -137 -60 -213t-178 -76zM299 750l77 -109q0 -2 1.5 -5t1.5 -4q0 -7 -11 -7h-33
q-16 0 -30 16l-109 109q-7 7 -7 16q0 15 20 15h48q22 0 42 -31z" />
    <glyph glyph-name="oacute" unicode="&#xf3;" horiz-adv-x="586" 
d="M293 70q152 0 152 211q0 97 -34 146.5t-118 49.5t-118 -49.5t-34 -146.5q0 -211 152 -211zM293 -8q-238 0 -238 289q0 127 60.5 200.5t177.5 73.5q121 0 179.5 -72.5t58.5 -201.5q0 -137 -60 -213t-178 -76zM213 641l76 109q22 31 42 31h49q19 0 19 -15q0 -8 -6 -16
l-110 -109q-14 -16 -30 -16h-32q-12 0 -12 7q0 1 4 9z" />
    <glyph glyph-name="ocircumflex" unicode="&#xf4;" horiz-adv-x="586" 
d="M293 70q152 0 152 211q0 97 -34 146.5t-118 49.5t-118 -49.5t-34 -146.5q0 -211 152 -211zM293 -8q-238 0 -238 289q0 127 60.5 200.5t177.5 73.5q121 0 179.5 -72.5t58.5 -201.5q0 -137 -60 -213t-178 -76zM136 656l84 94q26 31 48 31h51q23 0 49 -31l82 -94
q9 -10 9 -17q0 -14 -22 -14h-14q-19 0 -50 31l-79 82l-79 -82q-31 -31 -50 -31h-16q-22 0 -22 14q0 7 9 17z" />
    <glyph glyph-name="otilde" unicode="&#xf5;" horiz-adv-x="586" 
d="M293 70q152 0 152 211q0 97 -34 146.5t-118 49.5t-118 -49.5t-34 -146.5q0 -211 152 -211zM293 -8q-238 0 -238 289q0 127 60.5 200.5t177.5 73.5q121 0 179.5 -72.5t58.5 -201.5q0 -137 -60 -213t-178 -76zM433 659q-32 -34 -66 -34q-27 0 -80 39t-68 39q-34 0 -67 -44
q-12 -17 -21 -17q-10 0 -10 19v16q0 19 31 53q32 36 67 36q29 0 81 -39t67 -39q34 0 66 43q13 19 22 19q10 0 10 -20v-12q0 -24 -32 -59z" />
    <glyph glyph-name="odieresis" unicode="&#xf6;" horiz-adv-x="586" 
d="M293 70q152 0 152 211q0 97 -34 146.5t-118 49.5t-118 -49.5t-34 -146.5q0 -211 152 -211zM293 -8q-238 0 -238 289q0 127 60.5 200.5t177.5 73.5q121 0 179.5 -72.5t58.5 -201.5q0 -137 -60 -213t-178 -76zM215 687v-31q0 -31 -31 -31h-24q-31 0 -31 31v31q0 32 31 32
h24q31 0 31 -32zM457 687v-31q0 -31 -31 -31h-24q-31 0 -31 31v31q0 32 31 32h24q31 0 31 -32z" />
    <glyph glyph-name="divide" unicode="&#xf7;" 
d="M125 406h375q31 0 31 -31v-16q0 -31 -31 -31h-375q-31 0 -31 31v16q0 31 31 31zM352 516v-16q0 -31 -32 -31h-15q-32 0 -32 31v16q0 31 32 31h15q32 0 32 -31zM352 234v-15q0 -32 -32 -32h-15q-32 0 -32 32v15q0 32 32 32h15q32 0 32 -32z" />
    <glyph glyph-name="oslash" unicode="&#xf8;" horiz-adv-x="586" 
d="M444 508l14 17q15 22 33 22h21q13 0 13 -10q0 -7 -4 -12l-42 -54q50 -69 50 -190q0 -137 -60 -213t-178 -76q-97 0 -153 47l-14 -18q-19 -21 -33 -21h-18q-13 0 -13 14q0 4 2 8l42 54q-51 71 -51 205q0 127 60.5 200.5t177.5 73.5q95 0 153 -47zM291 477
q-84 0 -118 -49.5t-34 -146.5q0 -83 22 -133l233 296q-38 33 -103 33zM291 70q152 0 152 211q0 74 -20 120l-233 -295q38 -36 101 -36z" />
    <glyph glyph-name="ugrave" unicode="&#xf9;" horiz-adv-x="613" 
d="M434 31v71l-39 -40q-72 -70 -157 -70q-148 0 -148 188v336q0 31 31 31h24q31 0 31 -31v-336q0 -110 86 -110q54 0 140 86l32 31v329q0 31 31 31h23q32 0 32 -31v-485q0 -31 -32 -31h-23q-31 0 -31 31zM313 750l77 -109q0 -2 1.5 -5t1.5 -4q0 -7 -11 -7h-33q-16 0 -30 16
l-109 109q-7 7 -7 16q0 15 20 15h48q22 0 42 -31z" />
    <glyph glyph-name="uacute" unicode="&#xfa;" horiz-adv-x="613" 
d="M434 31v71l-39 -40q-72 -70 -157 -70q-148 0 -148 188v336q0 31 31 31h24q31 0 31 -31v-336q0 -110 86 -110q54 0 140 86l32 31v329q0 31 31 31h23q32 0 32 -31v-485q0 -31 -32 -31h-23q-31 0 -31 31zM231 641l76 109q22 31 42 31h49q19 0 19 -15q0 -8 -6 -16l-110 -109
q-14 -16 -30 -16h-32q-12 0 -12 7q0 1 4 9z" />
    <glyph glyph-name="ucircumflex" unicode="&#xfb;" horiz-adv-x="613" 
d="M434 31v71l-39 -40q-72 -70 -157 -70q-148 0 -148 188v336q0 31 31 31h24q31 0 31 -31v-336q0 -110 86 -110q54 0 140 86l32 31v329q0 31 31 31h23q32 0 32 -31v-485q0 -31 -32 -31h-23q-31 0 -31 31zM150 656l84 94q26 31 48 31h51q23 0 49 -31l82 -94q9 -11 9 -17
q0 -14 -22 -14h-14q-19 0 -50 31l-79 82l-79 -82q-31 -31 -50 -31h-16q-22 0 -22 14q0 7 9 17z" />
    <glyph glyph-name="udieresis" unicode="&#xfc;" horiz-adv-x="613" 
d="M434 31v71l-39 -40q-72 -70 -157 -70q-148 0 -148 188v336q0 31 31 31h24q31 0 31 -31v-336q0 -110 86 -110q54 0 140 86l32 31v329q0 31 31 31h23q32 0 32 -31v-485q0 -31 -32 -31h-23q-31 0 -31 31zM229 687v-31q0 -31 -31 -31h-24q-31 0 -31 31v31q0 32 31 32h24
q31 0 31 -32zM471 687v-31q0 -31 -31 -31h-24q-31 0 -31 31v31q0 32 31 32h24q31 0 31 -32z" />
    <glyph glyph-name="yacute" unicode="&#xfd;" horiz-adv-x="613" 
d="M434 63v78l-39 -39q-71 -71 -159 -71q-146 0 -146 188v297q0 31 31 31h24q31 0 31 -31v-297q0 -110 84 -110q56 0 142 86l32 32v289q0 31 31 31h23q32 0 32 -31v-446q0 -136 -75.5 -197t-221.5 -61h-63q-31 0 -31 32v15q0 32 31 32h63q112 0 161.5 39.5t49.5 132.5z
M234 641l76 109q22 31 42 31h49q19 0 19 -15q0 -8 -6 -16l-110 -109q-14 -16 -30 -16h-32q-12 0 -12 7q0 1 4 9z" />
    <glyph glyph-name="thorn" unicode="&#xfe;" horiz-adv-x="590" 
d="M180 719v-274l39 39q71 71 156 71q69 0 112.5 -46.5t43.5 -141.5v-86q0 -124 -86 -202.5t-203 -78.5h-62v-156q0 -32 -32 -32h-23q-31 0 -31 32v875q0 31 31 31h23q32 0 32 -31zM211 391l-31 -32v-281h62q89 0 146 55.5t57 147.5v86q0 110 -86 110q-62 0 -148 -86z" />
    <glyph glyph-name="ydieresis" unicode="&#xff;" horiz-adv-x="613" 
d="M434 63v78l-39 -39q-71 -71 -159 -71q-146 0 -146 188v297q0 31 31 31h24q31 0 31 -31v-297q0 -110 84 -110q56 0 142 86l32 32v289q0 31 31 31h23q32 0 32 -31v-446q0 -136 -75.5 -197t-221.5 -61h-63q-31 0 -31 32v15q0 32 31 32h63q112 0 161.5 39.5t49.5 132.5z
M229 687v-31q0 -31 -31 -31h-24q-31 0 -31 31v31q0 32 31 32h24q31 0 31 -32zM471 687v-31q0 -31 -31 -31h-24q-31 0 -31 31v31q0 32 31 32h24q31 0 31 -32z" />
    <glyph glyph-name="Amacron" unicode="&#x100;" horiz-adv-x="672" 
d="M29 31q27 111 80 289q32 110 84.5 244.5t79.5 185.5h125q27 -50 79.5 -184.5t85.5 -245.5q63 -220 80 -289q1 -3 1 -8q0 -23 -29 -23h-35q-25 0 -33 31q-17 73 -39 153h-345q-22 -80 -39 -153q-8 -31 -33 -31h-34q-29 0 -29 23q0 5 1 8zM203 320q-2 -5 -16 -54h298
q-1 2 -7 22.5t-9 31.5q-65 222 -133 352q-68 -130 -133 -352zM461 868v-17q0 -23 -23 -23h-204q-23 0 -23 23v17q0 23 23 23h204q23 0 23 -23z" />
    <glyph glyph-name="amacron" unicode="&#x101;" horiz-adv-x="590" 
d="M215 -8q-69 0 -112.5 46.5t-43.5 141.5v86q0 124 86 202.5t203 78.5h117q31 0 31 -31v-485q0 -31 -31 -31h-24q-31 0 -31 31v71l-39 -39q-73 -71 -156 -71zM379 156l31 32v281h-62q-90 0 -146.5 -55t-56.5 -148v-86q0 -110 85 -110q63 0 149 86zM436 665v-17
q0 -23 -23 -23h-204q-23 0 -23 23v17q0 23 23 23h204q23 0 23 -23z" />
    <glyph glyph-name="Abreve" unicode="&#x102;" horiz-adv-x="672" 
d="M29 31q27 111 80 289q32 110 84.5 244.5t79.5 185.5h125q27 -50 79.5 -184.5t85.5 -245.5q63 -220 80 -289q1 -3 1 -8q0 -23 -29 -23h-35q-25 0 -33 31q-17 73 -39 153h-345q-22 -80 -39 -153q-8 -31 -33 -31h-34q-29 0 -29 23q0 5 1 8zM203 320q-2 -5 -16 -54h298
q-1 2 -7 22.5t-9 31.5q-65 222 -133 352q-68 -130 -133 -352zM442 947q8 22 25 22h5q19 0 19 -22q0 -45 -43.5 -82t-112.5 -37q-68 0 -111 37.5t-43 81.5q0 22 19 22h4q19 0 26 -22q9 -26 39 -41t66 -15t67 15t40 41z" />
    <glyph glyph-name="abreve" unicode="&#x103;" horiz-adv-x="590" 
d="M215 -8q-69 0 -112.5 46.5t-43.5 141.5v86q0 124 86 202.5t203 78.5h117q31 0 31 -31v-485q0 -31 -31 -31h-24q-31 0 -31 31v71l-39 -39q-73 -71 -156 -71zM379 156l31 32v281h-62q-90 0 -146.5 -55t-56.5 -148v-86q0 -110 85 -110q63 0 149 86zM412 744q8 22 25 22h5
q19 0 19 -22q0 -45 -43.5 -82t-112.5 -37q-68 0 -111 37.5t-43 81.5q0 22 19 22h4q19 0 26 -22q9 -26 39 -41t66 -15t67 15t40 41z" />
    <glyph glyph-name="Aogonek" unicode="&#x104;" horiz-adv-x="672" 
d="M29 31q27 111 80 289q32 110 84.5 244.5t79.5 185.5h125q27 -50 79.5 -184.5t85.5 -245.5q63 -220 80 -289q1 -3 1 -8q0 -23 -29 -23h-35q-25 0 -33 31q-17 73 -39 153h-345q-22 -80 -39 -153q-8 -31 -33 -31h-34q-29 0 -29 23q0 5 1 8zM203 320q-2 -5 -16 -54h298
q-1 2 -7 22.5t-9 31.5q-65 222 -133 352q-68 -130 -133 -352zM632 -133h70q24 0 24 -23v-8q0 -24 -24 -24h-82q-47 0 -78 20.5t-31 62.5q0 23 18 46.5t44 35.5h55v-12q-19 -10 -35 -28t-16 -35q0 -35 55 -35z" />
    <glyph glyph-name="aogonek" unicode="&#x105;" horiz-adv-x="590" 
d="M215 -8q-69 0 -112.5 46.5t-43.5 141.5v86q0 124 86 202.5t203 78.5h117q31 0 31 -31v-485q0 -31 -31 -31h-24q-31 0 -31 31v71l-39 -39q-73 -71 -156 -71zM379 156l31 32v281h-62q-90 0 -146.5 -55t-56.5 -148v-86q0 -110 85 -110q63 0 149 86zM484 -133h70q24 0 24 -23
v-8q0 -24 -24 -24h-82q-47 0 -78 20.5t-31 62.5q0 23 18 46.5t44 35.5h55v-12q-19 -10 -35 -28t-16 -35q0 -35 55 -35z" />
    <glyph glyph-name="Cacute" unicode="&#x106;" horiz-adv-x="641" 
d="M555 97q9 3 14 3q17 0 17 -20v-25q0 -12 -1 -17.5t-5.5 -10.5t-13.5 -8q-69 -27 -136 -27h-47q-164 0 -246 91.5t-82 244.5v94q0 162 96 249t263 87q100 0 172 -35v-137q0 -31 -31 -31h-24q-31 0 -31 31v78q-47 12 -102 12q-113 0 -181.5 -62t-68.5 -192v-94
q0 -122 61.5 -188t173.5 -66h47q56 0 125 23zM303 844l76 109q22 31 42 31h49q19 0 19 -15q0 -9 -6 -16l-110 -109q-14 -16 -30 -16h-32q-12 0 -12 7q0 1 4 9z" />
    <glyph glyph-name="cacute" unicode="&#x107;" horiz-adv-x="500" 
d="M449 516v-110q0 -31 -31 -31h-16q-31 0 -31 31v55q-32 16 -78 16q-64 0 -106 -38.5t-42 -118.5v-93q0 -76 38.5 -116.5t109.5 -40.5q63 0 117 24q8 3 14 3q17 0 17 -21v-22q0 -16 -3.5 -22.5t-15.5 -12.5q-54 -27 -129 -27q-109 0 -171.5 60t-62.5 175v93q0 109 70 172
t164 63q92 0 156 -39zM209 641l76 109q22 31 42 31h49q19 0 19 -15q0 -8 -6 -16l-110 -109q-14 -16 -30 -16h-32q-12 0 -12 7q0 1 4 9z" />
    <glyph glyph-name="Ccircumflex" unicode="&#x108;" horiz-adv-x="641" 
d="M555 97q9 3 14 3q17 0 17 -20v-25q0 -12 -1 -17.5t-5.5 -10.5t-13.5 -8q-69 -27 -136 -27h-47q-164 0 -246 91.5t-82 244.5v94q0 162 96 249t263 87q100 0 172 -35v-137q0 -31 -31 -31h-24q-31 0 -31 31v78q-47 12 -102 12q-113 0 -181.5 -62t-68.5 -192v-94
q0 -122 61.5 -188t173.5 -66h47q56 0 125 23zM202 859l84 94q26 31 48 31h51q23 0 49 -31l82 -94q9 -11 9 -17q0 -14 -22 -14h-14q-19 0 -50 31l-79 82l-79 -82q-31 -31 -50 -31h-16q-22 0 -22 14q0 6 9 17z" />
    <glyph glyph-name="ccircumflex" unicode="&#x109;" horiz-adv-x="500" 
d="M449 516v-110q0 -31 -31 -31h-16q-31 0 -31 31v55q-32 16 -78 16q-64 0 -106 -38.5t-42 -118.5v-93q0 -76 38.5 -116.5t109.5 -40.5q63 0 117 24q8 3 14 3q17 0 17 -21v-22q0 -16 -3.5 -22.5t-15.5 -12.5q-54 -27 -129 -27q-109 0 -171.5 60t-62.5 175v93q0 109 70 172
t164 63q92 0 156 -39zM120 656l84 94q26 31 48 31h51q23 0 49 -31l82 -94q9 -10 9 -17q0 -14 -22 -14h-14q-19 0 -50 31l-79 82l-79 -82q-31 -31 -50 -31h-16q-22 0 -22 14q0 7 9 17z" />
    <glyph glyph-name="Cdotaccent" unicode="&#x10a;" horiz-adv-x="641" 
d="M555 97q9 3 14 3q17 0 17 -20v-25q0 -12 -1 -17.5t-5.5 -10.5t-13.5 -8q-69 -27 -136 -27h-47q-164 0 -246 91.5t-82 244.5v94q0 162 96 249t263 87q100 0 172 -35v-137q0 -31 -31 -31h-24q-31 0 -31 31v78q-47 12 -102 12q-113 0 -181.5 -62t-68.5 -192v-94
q0 -122 61.5 -188t173.5 -66h47q56 0 125 23zM418 890v-31q0 -31 -31 -31h-24q-31 0 -31 31v31q0 32 31 32h24q31 0 31 -32z" />
    <glyph glyph-name="cdotaccent" unicode="&#x10b;" horiz-adv-x="500" 
d="M449 516v-110q0 -31 -31 -31h-16q-31 0 -31 31v55q-32 16 -78 16q-64 0 -106 -38.5t-42 -118.5v-93q0 -76 38.5 -116.5t109.5 -40.5q63 0 117 24q8 3 14 3q17 0 17 -21v-22q0 -16 -3.5 -22.5t-15.5 -12.5q-54 -27 -129 -27q-109 0 -171.5 60t-62.5 175v93q0 109 70 172
t164 63q92 0 156 -39zM324 687v-31q0 -31 -31 -31h-24q-31 0 -31 31v31q0 32 31 32h24q31 0 31 -32z" />
    <glyph glyph-name="Ccaron" unicode="&#x10c;" horiz-adv-x="641" 
d="M555 97q9 3 14 3q17 0 17 -20v-25q0 -12 -1 -17.5t-5.5 -10.5t-13.5 -8q-69 -27 -136 -27h-47q-164 0 -246 91.5t-82 244.5v94q0 162 96 249t263 87q100 0 172 -35v-137q0 -31 -31 -31h-24q-31 0 -31 31v78q-47 12 -102 12q-113 0 -181.5 -62t-68.5 -192v-94
q0 -122 61.5 -188t173.5 -66h47q56 0 125 23zM298 859l-84 94q-9 11 -9 17q0 14 22 14h16q21 0 50 -31l79 -82l79 82q29 31 50 31h14q22 0 22 -14q0 -6 -9 -17l-82 -94q-28 -31 -49 -31h-51q-14 0 -23.5 7t-24.5 24z" />
    <glyph glyph-name="ccaron" unicode="&#x10d;" horiz-adv-x="500" 
d="M449 516v-110q0 -31 -31 -31h-16q-31 0 -31 31v55q-32 16 -78 16q-64 0 -106 -38.5t-42 -118.5v-93q0 -76 38.5 -116.5t109.5 -40.5q63 0 117 24q8 3 14 3q17 0 17 -21v-22q0 -16 -3.5 -22.5t-15.5 -12.5q-54 -27 -129 -27q-109 0 -171.5 60t-62.5 175v93q0 109 70 172
t164 63q92 0 156 -39zM200 656l-84 94q-9 11 -9 17q0 14 22 14h16q21 0 50 -31l79 -82l79 82q29 31 50 31h14q22 0 22 -14q0 -6 -9 -17l-82 -94q-28 -31 -49 -31h-51q-14 0 -23.5 7t-24.5 24z" />
    <glyph glyph-name="Dcaron" unicode="&#x10e;" horiz-adv-x="711" 
d="M332 0h-207q-31 0 -31 31v688q0 31 31 31h191q169 0 250.5 -78t81.5 -234v-110q0 -154 -76.5 -241t-239.5 -87zM316 668h-129v-586h145q118 0 170.5 60.5t52.5 185.5v110q0 121 -59.5 175.5t-179.5 54.5zM247 859l-84 94q-9 11 -9 17q0 14 22 14h16q21 0 50 -31l79 -82
l79 82q29 31 50 31h14q22 0 22 -14q0 -6 -9 -17l-82 -94q-28 -31 -49 -31h-51q-14 0 -23.5 7t-24.5 24z" />
    <glyph glyph-name="dcaron" unicode="&#x10f;" horiz-adv-x="590" 
d="M215 -8q-69 0 -112 46.5t-44 141.5v86q0 124 86 202.5t203 78.5h62v172q0 31 31 31h24q31 0 31 -31v-688q0 -31 -31 -31h-24q-31 0 -31 31v71l-39 -39q-73 -71 -156 -71zM145 266v-86q0 -110 85 -110q63 0 149 86l31 32v281h-62q-90 0 -146.5 -55t-56.5 -148zM549 617
l30 110q6 23 27 23h41q24 0 24 -23v-8q0 -18 -10 -32l-45 -70q-15 -23 -34 -23h-16q-19 0 -19 14q0 3 2 9z" />
    <glyph glyph-name="Dcroat" unicode="&#x110;" horiz-adv-x="711" 
d="M332 0h-207q-31 0 -31 31v324h-32q-31 0 -31 32v19q0 31 31 31h32v282q0 31 31 31h191q169 0 250.5 -78t81.5 -234v-110q0 -154 -76.5 -241t-239.5 -87zM282 355h-95v-273h145q118 0 170.5 60.5t52.5 185.5v110q0 121 -59.5 175.5t-179.5 54.5h-129v-231h95q31 0 31 -31
v-19q0 -32 -31 -32z" />
    <glyph glyph-name="dcroat" unicode="&#x111;" horiz-adv-x="590" 
d="M215 -8q-69 0 -112 46.5t-44 141.5v86q0 124 86 202.5t203 78.5h62v70h-94q-31 0 -31 28v15q0 31 31 31h94v28q0 31 31 31h24q31 0 31 -31v-28h31q32 0 32 -31v-15q0 -28 -32 -28h-31v-586q0 -31 -31 -31h-24q-31 0 -31 31v71l-39 -39q-73 -71 -156 -71zM145 266v-86
q0 -110 85 -110q63 0 149 86l31 32v281h-62q-90 0 -146.5 -55t-56.5 -148z" />
    <glyph glyph-name="Emacron" unicode="&#x112;" horiz-adv-x="578" 
d="M484 0h-187q-203 0 -203 203v516q0 31 31 31h359q32 0 32 -31v-20q0 -31 -32 -31h-297v-231h266q31 0 31 -31v-19q0 -32 -31 -32h-266v-160q0 -57 27 -85t75 -28h195q32 0 32 -31v-20q0 -31 -32 -31zM426 868v-17q0 -23 -23 -23h-204q-23 0 -23 23v17q0 23 23 23h204
q23 0 23 -23z" />
    <glyph glyph-name="emacron" unicode="&#x113;" horiz-adv-x="531" 
d="M293 -8q-106 0 -170 54t-64 165v109q0 109 65.5 172t168.5 63q86 0 136.5 -39t50.5 -118q0 -73 -45 -114.5t-126 -41.5h-164v-31q0 -141 148 -141q21 0 44.5 3.5t38 8t28 9t14.5 4.5q10 2 14 2q17 0 17 -20v-22q0 -16 -3.5 -22.5t-15.5 -12.5q-6 -3 -24.5 -9t-51.5 -12.5
t-61 -6.5zM145 313h140q62 0 86 21t24 64q0 79 -102 79q-148 0 -148 -157v-7zM402 665v-17q0 -23 -23 -23h-204q-23 0 -23 23v17q0 23 23 23h204q23 0 23 -23z" />
    <glyph glyph-name="Ebreve" unicode="&#x114;" horiz-adv-x="578" 
d="M484 0h-187q-203 0 -203 203v516q0 31 31 31h359q32 0 32 -31v-20q0 -31 -32 -31h-297v-231h266q31 0 31 -31v-19q0 -32 -31 -32h-266v-160q0 -57 27 -85t75 -28h195q32 0 32 -31v-20q0 -31 -32 -31zM414 947q8 22 25 22h5q19 0 19 -22q0 -45 -43.5 -82t-112.5 -37
q-68 0 -111 37.5t-43 81.5q0 22 19 22h4q19 0 26 -22q9 -26 39 -41t66 -15t67 15t40 41z" />
    <glyph glyph-name="ebreve" unicode="&#x115;" horiz-adv-x="531" 
d="M293 -8q-106 0 -170 54t-64 165v109q0 109 65.5 172t168.5 63q86 0 136.5 -39t50.5 -118q0 -73 -45 -114.5t-126 -41.5h-164v-31q0 -141 148 -141q21 0 44.5 3.5t38 8t28 9t14.5 4.5q10 2 14 2q17 0 17 -20v-22q0 -16 -3.5 -22.5t-15.5 -12.5q-6 -3 -24.5 -9t-51.5 -12.5
t-61 -6.5zM145 313h140q62 0 86 21t24 64q0 79 -102 79q-148 0 -148 -157v-7zM383 744q8 22 25 22h5q19 0 19 -22q0 -45 -43.5 -82t-112.5 -37q-68 0 -111 37.5t-43 81.5q0 22 19 22h4q19 0 26 -22q9 -26 39 -41t66 -15t67 15t40 41z" />
    <glyph glyph-name="Edotaccent" unicode="&#x116;" horiz-adv-x="578" 
d="M484 0h-187q-203 0 -203 203v516q0 31 31 31h359q32 0 32 -31v-20q0 -31 -32 -31h-297v-231h266q31 0 31 -31v-19q0 -32 -31 -32h-266v-160q0 -57 27 -85t75 -28h195q32 0 32 -31v-20q0 -31 -32 -31zM348 890v-31q0 -31 -31 -31h-24q-31 0 -31 31v31q0 32 31 32h24
q31 0 31 -32z" />
    <glyph glyph-name="edotaccent" unicode="&#x117;" horiz-adv-x="531" 
d="M293 -8q-106 0 -170 54t-64 165v109q0 109 65.5 172t168.5 63q86 0 136.5 -39t50.5 -118q0 -73 -45 -114.5t-126 -41.5h-164v-31q0 -141 148 -141q21 0 44.5 3.5t38 8t28 9t14.5 4.5q10 2 14 2q17 0 17 -20v-22q0 -16 -3.5 -22.5t-15.5 -12.5q-6 -3 -24.5 -9t-51.5 -12.5
t-61 -6.5zM145 313h140q62 0 86 21t24 64q0 79 -102 79q-148 0 -148 -157v-7zM316 687v-31q0 -31 -31 -31h-24q-31 0 -31 31v31q0 32 31 32h24q31 0 31 -32z" />
    <glyph glyph-name="Eogonek" unicode="&#x118;" horiz-adv-x="578" 
d="M484 0h-187q-203 0 -203 203v516q0 31 31 31h359q32 0 32 -31v-20q0 -31 -32 -31h-297v-231h266q31 0 31 -31v-19q0 -32 -31 -32h-266v-160q0 -57 27 -85t75 -28h195q32 0 32 -31v-20q0 -31 -32 -31zM437 -133h70q24 0 24 -23v-8q0 -24 -24 -24h-82q-47 0 -78 20.5
t-31 62.5q0 23 18 46.5t44 35.5h55v-12q-19 -10 -35 -28t-16 -35q0 -35 55 -35z" />
    <glyph glyph-name="eogonek" unicode="&#x119;" horiz-adv-x="531" 
d="M293 -8q-106 0 -170 54t-64 165v109q0 109 65.5 172t168.5 63q86 0 136.5 -39t50.5 -118q0 -73 -45 -114.5t-126 -41.5h-164v-31q0 -141 148 -141q21 0 44.5 3.5t38 8t28 9t14.5 4.5q10 2 14 2q17 0 17 -20v-22q0 -16 -3.5 -22.5t-15.5 -12.5q-6 -3 -24.5 -9t-51.5 -12.5
t-61 -6.5zM145 313h140q62 0 86 21t24 64q0 79 -102 79q-148 0 -148 -157v-7zM320 -133h70q24 0 24 -23v-8q0 -24 -24 -24h-82q-47 0 -78 20.5t-31 62.5q0 23 18 46.5t44 35.5h55v-12q-19 -10 -35 -28t-16 -35q0 -35 55 -35z" />
    <glyph glyph-name="Ecaron" unicode="&#x11a;" horiz-adv-x="578" 
d="M484 0h-187q-203 0 -203 203v516q0 31 31 31h359q32 0 32 -31v-20q0 -31 -32 -31h-297v-231h266q31 0 31 -31v-19q0 -32 -31 -32h-266v-160q0 -57 27 -85t75 -28h195q32 0 32 -31v-20q0 -31 -32 -31zM232 859l-84 94q-9 11 -9 17q0 14 22 14h16q21 0 50 -31l79 -82l79 82
q29 31 50 31h14q22 0 22 -14q0 -6 -9 -17l-82 -94q-28 -31 -49 -31h-51q-14 0 -23.5 7t-24.5 24z" />
    <glyph glyph-name="ecaron" unicode="&#x11b;" horiz-adv-x="531" 
d="M293 -8q-106 0 -170 54t-64 165v109q0 109 65.5 172t168.5 63q86 0 136.5 -39t50.5 -118q0 -73 -45 -114.5t-126 -41.5h-164v-31q0 -141 148 -141q21 0 44.5 3.5t38 8t28 9t14.5 4.5q10 2 14 2q17 0 17 -20v-22q0 -16 -3.5 -22.5t-15.5 -12.5q-6 -3 -24.5 -9t-51.5 -12.5
t-61 -6.5zM145 313h140q62 0 86 21t24 64q0 79 -102 79q-148 0 -148 -157v-7zM200 656l-84 94q-9 11 -9 17q0 14 22 14h16q21 0 50 -31l79 -82l79 82q29 31 50 31h14q22 0 22 -14q0 -6 -9 -17l-82 -94q-28 -31 -49 -31h-51q-14 0 -23.5 7t-24.5 24z" />
    <glyph glyph-name="Gcircumflex" unicode="&#x11c;" horiz-adv-x="695" 
d="M406 367h184q12 0 19.5 -8.5t7.5 -22.5v-305q-23 -13 -79.5 -26t-99.5 -13h-32q-165 0 -254 92.5t-89 243.5v102q0 158 99 243t260 85q84 0 176 -28q19 -4 19 -35v-26q0 -20 -17 -20q-4 0 -14 2q-93 25 -164 25q-121 0 -193.5 -58.5t-72.5 -187.5v-102q0 -122 66 -188
t184 -66h32q45 0 93 13v198h-125q-31 0 -31 31v20q0 31 31 31zM230 859l84 94q26 31 48 31h51q23 0 49 -31l82 -94q9 -11 9 -17q0 -14 -22 -14h-14q-19 0 -50 31l-79 82l-79 -82q-31 -31 -50 -31h-16q-22 0 -22 14q0 6 9 17z" />
    <glyph glyph-name="gcircumflex" unicode="&#x11d;" horiz-adv-x="590" 
d="M410 63v23l-8 -4q-3 -2 -18 -9.5t-21.5 -10t-21 -9t-25 -9.5t-25 -6.5t-30 -5t-31.5 -1.5q-74 0 -122.5 51t-48.5 148v36q0 130 78.5 205.5t194.5 75.5h133q31 0 31 -31v-446q0 -136 -75.5 -197t-221.5 -61h-62q-32 0 -32 32v15q0 32 32 32h62q113 0 162 39t49 133z
M395 148l15 8v313h-78q-87 0 -137 -54.5t-50 -148.5v-36q0 -121 101 -121q69 0 149 39zM146 656l84 94q26 31 48 31h51q23 0 49 -31l82 -94q9 -10 9 -17q0 -14 -22 -14h-14q-19 0 -50 31l-79 82l-79 -82q-31 -31 -50 -31h-16q-22 0 -22 14q0 7 9 17z" />
    <glyph glyph-name="Gbreve" unicode="&#x11e;" horiz-adv-x="695" 
d="M406 367h184q12 0 19.5 -8.5t7.5 -22.5v-305q-23 -13 -79.5 -26t-99.5 -13h-32q-165 0 -254 92.5t-89 243.5v102q0 158 99 243t260 85q84 0 176 -28q19 -4 19 -35v-26q0 -20 -17 -20q-4 0 -14 2q-93 25 -164 25q-121 0 -193.5 -58.5t-72.5 -187.5v-102q0 -122 66 -188
t184 -66h32q45 0 93 13v198h-125q-31 0 -31 31v20q0 31 31 31zM489 947q8 22 25 22h5q19 0 19 -22q0 -45 -43.5 -82t-112.5 -37q-68 0 -111 37.5t-43 81.5q0 22 19 22h4q19 0 26 -22q9 -26 39 -41t66 -15t67 15t40 41z" />
    <glyph glyph-name="gbreve" unicode="&#x11f;" horiz-adv-x="590" 
d="M410 63v23l-8 -4q-3 -2 -18 -9.5t-21.5 -10t-21 -9t-25 -9.5t-25 -6.5t-30 -5t-31.5 -1.5q-74 0 -122.5 51t-48.5 148v36q0 130 78.5 205.5t194.5 75.5h133q31 0 31 -31v-446q0 -136 -75.5 -197t-221.5 -61h-62q-32 0 -32 32v15q0 32 32 32h62q113 0 162 39t49 133z
M395 148l15 8v313h-78q-87 0 -137 -54.5t-50 -148.5v-36q0 -121 101 -121q69 0 149 39zM412 744q8 22 25 22h5q19 0 19 -22q0 -45 -43.5 -82t-112.5 -37q-68 0 -111 37.5t-43 81.5q0 22 19 22h4q19 0 26 -22q9 -26 39 -41t66 -15t67 15t40 41z" />
    <glyph glyph-name="Gdotaccent" unicode="&#x120;" horiz-adv-x="695" 
d="M406 367h184q12 0 19.5 -8.5t7.5 -22.5v-305q-23 -13 -79.5 -26t-99.5 -13h-32q-165 0 -254 92.5t-89 243.5v102q0 158 99 243t260 85q84 0 176 -28q19 -4 19 -35v-26q0 -20 -17 -20q-4 0 -14 2q-93 25 -164 25q-121 0 -193.5 -58.5t-72.5 -187.5v-102q0 -122 66 -188
t184 -66h32q45 0 93 13v198h-125q-31 0 -31 31v20q0 31 31 31zM426 890v-31q0 -31 -31 -31h-24q-31 0 -31 31v31q0 32 31 32h24q31 0 31 -32z" />
    <glyph glyph-name="gdotaccent" unicode="&#x121;" horiz-adv-x="590" 
d="M410 63v23l-8 -4q-3 -2 -18 -9.5t-21.5 -10t-21 -9t-25 -9.5t-25 -6.5t-30 -5t-31.5 -1.5q-74 0 -122.5 51t-48.5 148v36q0 130 78.5 205.5t194.5 75.5h133q31 0 31 -31v-446q0 -136 -75.5 -197t-221.5 -61h-62q-32 0 -32 32v15q0 32 32 32h62q113 0 162 39t49 133z
M395 148l15 8v313h-78q-87 0 -137 -54.5t-50 -148.5v-36q0 -121 101 -121q69 0 149 39zM357 687v-31q0 -31 -31 -31h-24q-31 0 -31 31v31q0 32 31 32h24q31 0 31 -32z" />
    <glyph glyph-name="Gcommaaccent" unicode="&#x122;" horiz-adv-x="695" 
d="M406 367h184q12 0 19.5 -8.5t7.5 -22.5v-305q-23 -13 -79.5 -26t-99.5 -13h-32q-165 0 -254 92.5t-89 243.5v102q0 158 99 243t260 85q84 0 176 -28q19 -4 19 -35v-26q0 -20 -17 -20q-4 0 -14 2q-93 25 -164 25q-121 0 -193.5 -58.5t-72.5 -187.5v-102q0 -122 66 -188
t184 -66h32q45 0 93 13v198h-125q-31 0 -31 31v20q0 31 31 31zM322 -172l30 109q6 24 28 24h41q23 0 23 -24v-7q0 -18 -10 -32l-45 -70q-13 -23 -34 -23h-15q-20 0 -20 14q0 3 2 9z" />
    <glyph glyph-name="gcommaaccent" unicode="&#x123;" horiz-adv-x="590" 
d="M410 63v23l-8 -4q-3 -2 -18 -9.5t-21.5 -10t-21 -9t-25 -9.5t-25 -6.5t-30 -5t-31.5 -1.5q-74 0 -122.5 51t-48.5 148v36q0 130 78.5 205.5t194.5 75.5h133q31 0 31 -31v-446q0 -136 -75.5 -197t-221.5 -61h-62q-32 0 -32 32v15q0 32 32 32h62q113 0 162 39t49 133z
M395 148l15 8v313h-78q-87 0 -137 -54.5t-50 -148.5v-36q0 -121 101 -121q69 0 149 39zM390 727l-30 -110q-6 -23 -28 -23h-41q-23 0 -23 23v8q0 17 10 31l45 71q14 23 34 23h15q20 0 20 -15q0 -4 -2 -8z" />
    <glyph glyph-name="Hcircumflex" unicode="&#x124;" horiz-adv-x="742" 
d="M648 719v-688q0 -31 -31 -31h-31q-31 0 -31 31v324h-368v-324q0 -31 -31 -31h-31q-31 0 -31 31v688q0 31 31 31h31q31 0 31 -31v-281h368v281q0 31 31 31h31q31 0 31 -31zM214 859l84 94q26 31 48 31h51q23 0 49 -31l82 -94q9 -11 9 -17q0 -14 -22 -14h-14q-19 0 -50 31
l-79 82l-79 -82q-31 -31 -50 -31h-16q-22 0 -22 14q0 6 9 17z" />
    <glyph glyph-name="hcircumflex" unicode="&#x125;" horiz-adv-x="613" 
d="M180 719v-274l39 39q71 71 156 71q148 0 148 -188v-336q0 -31 -31 -31h-23q-32 0 -32 31v336q0 110 -85 110q-55 0 -141 -86l-31 -32v-328q0 -31 -32 -31h-23q-31 0 -31 31v688q0 31 31 31h23q32 0 32 -31zM-18 859l84 94q26 31 48 31h51q23 0 49 -31l82 -94q9 -11 9 -17
q0 -14 -22 -14h-14q-19 0 -50 31l-79 82l-79 -82q-31 -31 -50 -31h-16q-22 0 -22 14q0 6 9 17z" />
    <glyph glyph-name="Hbar" unicode="&#x126;" horiz-adv-x="742" 
d="M695 562h-47v-531q0 -31 -31 -31h-31q-31 0 -31 31v324h-368v-324q0 -31 -31 -31h-31q-31 0 -31 31v531h-47q-31 0 -31 32v15q0 32 31 32h47v78q0 31 31 31h31q31 0 31 -31v-78h368v78q0 31 31 31h31q31 0 31 -31v-78h47q32 0 32 -32v-15q0 -32 -32 -32zM187 562v-124
h368v124h-368z" />
    <glyph glyph-name="hbar" unicode="&#x127;" horiz-adv-x="613" 
d="M273 617h-93v-172l39 39q71 71 156 71q148 0 148 -188v-336q0 -31 -31 -31h-23q-32 0 -32 31v336q0 110 -85 110q-55 0 -141 -86l-31 -32v-328q0 -31 -32 -31h-23q-31 0 -31 31v586h-32q-31 0 -31 31v12q0 31 31 31h32v28q0 31 31 31h23q32 0 32 -31v-28h93q32 0 32 -31
v-12q0 -31 -32 -31z" />
    <glyph glyph-name="Itilde" unicode="&#x128;" horiz-adv-x="281" 
d="M187 719v-688q0 -31 -31 -31h-31q-31 0 -31 31v688q0 31 31 31h31q31 0 31 -31zM281 862q-32 -34 -66 -34q-28 0 -80.5 39t-67.5 39q-34 0 -67 -44q-12 -17 -21 -17q-10 0 -10 19v16q0 19 31 53q32 36 67 36q29 0 81 -39t67 -39q34 0 66 43q13 19 22 19q10 0 10 -20v-12
q0 -24 -32 -59z" />
    <glyph glyph-name="itilde" unicode="&#x129;" horiz-adv-x="289" 
d="M195 516v-485q0 -31 -31 -31h-23q-32 0 -32 31v438h-61q-31 0 -31 31v16q0 31 31 31h116q31 0 31 -31zM273 659q-32 -34 -66 -34q-27 0 -80 39t-68 39q-34 0 -67 -44q-12 -17 -21 -17q-10 0 -10 19v16q0 19 31 53q32 36 67 36q29 0 81 -39t67 -39q34 0 66 43q13 19 22 19
q10 0 10 -20v-12q0 -24 -32 -59z" />
    <glyph glyph-name="Imacron" unicode="&#x12a;" horiz-adv-x="281" 
d="M187 719v-688q0 -31 -31 -31h-31q-31 0 -31 31v688q0 31 31 31h31q31 0 31 -31zM266 868v-17q0 -23 -23 -23h-204q-23 0 -23 23v17q0 23 23 23h204q23 0 23 -23z" />
    <glyph glyph-name="imacron" unicode="&#x12b;" horiz-adv-x="289" 
d="M195 516v-485q0 -31 -31 -31h-23q-32 0 -32 31v438h-61q-31 0 -31 31v16q0 31 31 31h116q31 0 31 -31zM242 665v-17q0 -23 -23 -23h-204q-23 0 -23 23v17q0 23 23 23h204q23 0 23 -23z" />
    <glyph glyph-name="Ibreve" unicode="&#x12c;" horiz-adv-x="281" 
d="M187 719v-688q0 -31 -31 -31h-31q-31 0 -31 31v688q0 31 31 31h31q31 0 31 -31zM247 947q8 22 25 22h5q19 0 19 -22q0 -45 -43.5 -82t-112.5 -37q-68 0 -111 37.5t-43 81.5q0 22 19 22h4q19 0 26 -22q9 -26 39 -41t66 -15t67 15t40 41z" />
    <glyph glyph-name="ibreve" unicode="&#x12d;" horiz-adv-x="289" 
d="M195 516v-485q0 -31 -31 -31h-23q-32 0 -32 31v438h-61q-31 0 -31 31v16q0 31 31 31h116q31 0 31 -31zM236 744q8 22 25 22h5q19 0 19 -22q0 -45 -43.5 -82t-112.5 -37q-68 0 -111 37.5t-43 81.5q0 22 19 22h4q19 0 26 -22q9 -26 39 -41t66 -15t67 15t40 41z" />
    <glyph glyph-name="Iogonek" unicode="&#x12e;" horiz-adv-x="281" 
d="M187 719v-688q0 -31 -31 -31h-31q-31 0 -31 31v688q0 31 31 31h31q31 0 31 -31zM172 -133h70q24 0 24 -23v-8q0 -24 -24 -24h-82q-47 0 -78 20.5t-31 62.5q0 23 18 46.5t44 35.5h55v-12q-19 -10 -35 -28t-16 -35q0 -35 55 -35z" />
    <glyph glyph-name="iogonek" unicode="&#x12f;" horiz-adv-x="289" 
d="M195 516v-485q0 -31 -31 -31h-23q-32 0 -32 31v438h-61q-31 0 -31 31v16q0 31 30 31h117q31 0 31 -31zM195 719v-32q0 -31 -31 -31h-23q-32 0 -32 31v32q0 31 32 31h23q31 0 31 -31zM185 -133h70q24 0 24 -23v-8q0 -24 -24 -24h-82q-47 0 -78 20.5t-31 62.5q0 23 18 46.5
t44 35.5h55v-12q-19 -10 -35 -28t-16 -35q0 -35 55 -35z" />
    <glyph glyph-name="Idotaccent" unicode="&#x130;" horiz-adv-x="281" 
d="M187 719v-688q0 -31 -31 -31h-31q-31 0 -31 31v688q0 31 31 31h31q31 0 31 -31zM184 890v-31q0 -31 -31 -31h-24q-31 0 -31 31v31q0 32 31 32h24q31 0 31 -32z" />
    <glyph glyph-name="dotlessi" unicode="&#x131;" horiz-adv-x="289" 
d="M195 516v-485q0 -31 -31 -31h-23q-32 0 -32 31v438h-61q-31 0 -31 31v16q0 31 31 31h116q31 0 31 -31z" />
    <glyph glyph-name="IJ" unicode="&#x132;" horiz-adv-x="691" 
d="M316 82h63q59 0 92 36.5t33 100.5v449h-156q-32 0 -32 31v20q0 31 32 31h218q32 0 32 -31v-500q0 -100 -59.5 -159.5t-159.5 -59.5h-63q-31 0 -31 31v20q0 31 31 31zM187 719v-688q0 -31 -31 -31h-31q-31 0 -31 31v688q0 31 31 31h31q31 0 31 -31z" />
    <glyph glyph-name="ij" unicode="&#x133;" horiz-adv-x="570" 
d="M247 -188q-31 0 -31 32v15q0 32 32 32h13q71 0 100.5 38t29.5 118v422h-62q-31 0 -31 31v16q0 31 31 31h116q32 0 32 -30v-454q0 -130 -55 -190.5t-175 -60.5zM195 516v-485q0 -31 -31 -31h-23q-32 0 -32 31v438h-61q-31 0 -31 31v16q0 31 30 31h117q31 0 31 -31z
M195 719v-32q0 -31 -31 -31h-23q-32 0 -32 31v32q0 31 32 31h23q31 0 31 -31zM477 719v-32q0 -31 -32 -31h-23q-31 0 -31 31v32q0 31 31 31h23q32 0 32 -31z" />
    <glyph glyph-name="Jcircumflex" unicode="&#x134;" horiz-adv-x="453" 
d="M78 82h63q59 0 92 36.5t33 100.5v449h-157q-31 0 -31 31v20q0 31 31 31h219q31 0 31 -31v-500q0 -100 -59.5 -159.5t-158.5 -59.5h-63q-31 0 -31 31v20q0 31 31 31zM62 859l84 94q26 31 48 31h51q23 0 49 -31l82 -94q9 -11 9 -17q0 -14 -22 -14h-14q-19 0 -50 31l-79 82
l-79 -82q-31 -31 -50 -31h-16q-22 0 -22 14q0 6 9 17z" />
    <glyph glyph-name="jcircumflex" unicode="&#x135;" horiz-adv-x="297" 
d="M-26 -188q-32 0 -32 32v15q0 32 33 32h12q72 0 101 38t29 118v422h-61q-32 0 -32 31v16q0 31 32 31h116q14 0 22.5 -8t8.5 -22v-454q0 -130 -54.5 -190.5t-174.5 -60.5zM-32 656l84 94q26 31 48 31h51q23 0 49 -31l82 -94q9 -10 9 -17q0 -14 -22 -14h-14q-19 0 -50 31
l-79 82l-79 -82q-31 -31 -50 -31h-16q-22 0 -22 14q0 7 9 17z" />
    <glyph glyph-name="Kcommaaccent" unicode="&#x136;" horiz-adv-x="641" 
d="M494 31l-264 321h-43v-321q0 -31 -31 -31h-31q-31 0 -31 31v688q0 31 31 31h31q31 0 31 -31v-289h47l257 289q28 31 47 31h44q22 0 22 -15q0 -8 -7 -16l-288 -324l296 -364q9 -11 9 -17q0 -14 -21 -14h-52q-21 0 -47 31zM229 -172l30 109q6 24 28 24h41q23 0 23 -24v-7
q0 -18 -10 -32l-45 -70q-13 -23 -34 -23h-15q-20 0 -20 14q0 3 2 9z" />
    <glyph glyph-name="kcommaaccent" unicode="&#x137;" horiz-adv-x="539" 
d="M180 719v-383h54l154 180q26 31 49 31h38q23 0 23 -16q0 -8 -7 -15l-186 -215l197 -270q6 -9 6 -15q0 -16 -23 -16h-40q-23 0 -46 31l-165 227h-54v-227q0 -31 -32 -31h-23q-31 0 -31 31v688q0 31 31 31h23q32 0 32 -31zM193 -172l30 109q6 24 28 24h41q23 0 23 -24v-7
q0 -18 -10 -32l-45 -70q-13 -23 -34 -23h-15q-20 0 -20 14q0 3 2 9z" />
    <glyph glyph-name="Lacute" unicode="&#x139;" horiz-adv-x="516" 
d="M469 0h-172q-98 0 -150.5 51t-52.5 152v516q0 31 31 31h31q31 0 31 -31v-524q0 -57 27 -85t75 -28h180q31 0 31 -31v-20q0 -31 -31 -31zM119 844l76 109q22 31 42 31h49q19 0 19 -15q0 -9 -6 -16l-110 -109q-14 -16 -30 -16h-32q-12 0 -12 7q0 1 4 9z" />
    <glyph glyph-name="lacute" unicode="&#x13a;" horiz-adv-x="273" 
d="M180 719v-688q0 -31 -32 -31h-23q-31 0 -31 31v641h-61q-31 0 -31 31v16q0 31 30 31h116q32 0 32 -31zM84 844l76 109q22 31 42 31h49q19 0 19 -15q0 -9 -6 -16l-110 -109q-14 -16 -30 -16h-32q-12 0 -12 7q0 1 4 9z" />
    <glyph glyph-name="Lcommaaccent" unicode="&#x13b;" horiz-adv-x="516" 
d="M469 0h-172q-98 0 -150.5 51t-52.5 152v516q0 31 31 31h31q31 0 31 -31v-524q0 -57 27 -85t75 -28h180q31 0 31 -31v-20q0 -31 -31 -31zM229 -172l30 109q6 24 28 24h41q23 0 23 -24v-7q0 -18 -10 -32l-45 -70q-13 -23 -34 -23h-15q-20 0 -20 14q0 3 2 9z" />
    <glyph glyph-name="lcommaaccent" unicode="&#x13c;" horiz-adv-x="273" 
d="M180 719v-688q0 -31 -32 -31h-23q-31 0 -31 31v641h-61q-31 0 -31 31v16q0 31 30 31h116q32 0 32 -31zM57 -172l30 109q6 24 28 24h41q23 0 23 -24v-7q0 -18 -10 -32l-45 -70q-13 -23 -34 -23h-15q-20 0 -20 14q0 3 2 9z" />
    <glyph glyph-name="Lcaron" unicode="&#x13d;" horiz-adv-x="516" 
d="M469 0h-172q-98 0 -150.5 51t-52.5 152v516q0 31 31 31h31q32 0 32 -31v-524q0 -113 101 -113h180q31 0 31 -31v-20q0 -31 -31 -31zM304 617l30 110q6 23 27 23h41q24 0 24 -23v-8q0 -18 -10 -32l-45 -70q-15 -23 -34 -23h-16q-19 0 -19 14q0 3 2 9z" />
    <glyph glyph-name="lcaron" unicode="&#x13e;" horiz-adv-x="273" 
d="M180 719v-688q0 -31 -32 -31h-23q-31 0 -31 31v641h-61q-31 0 -31 31v16q0 31 30 31h116q32 0 32 -31zM233 617l31 110q6 23 27 23h41q23 0 23 -23v-8q0 -19 -9 -32l-45 -70q-15 -23 -34 -23h-16q-20 0 -20 14q0 3 2 9z" />
    <glyph glyph-name="Ldot" unicode="&#x13f;" horiz-adv-x="516" 
d="M469 0h-172q-98 0 -150.5 51t-52.5 152v516q0 31 31 31h31q32 0 32 -31v-524q0 -113 101 -113h180q31 0 31 -31v-20q0 -31 -31 -31zM383 437v-31q0 -31 -31 -31h-24q-31 0 -31 31v31q0 32 31 32h24q31 0 31 -32z" />
    <glyph glyph-name="ldot" unicode="&#x140;" horiz-adv-x="270" 
d="M180 719v-688q0 -31 -32 -31h-23q-31 0 -31 31v641h-61q-31 0 -31 31v16q0 31 30 31h116q32 0 32 -31zM312 437v-31q0 -31 -31 -31h-23q-31 0 -31 31v31q0 32 31 32h23q31 0 31 -32z" />
    <glyph glyph-name="Lslash" unicode="&#x141;" horiz-adv-x="516" 
d="M363 468l-176 -98v-175q0 -57 27 -85t75 -28h180q31 0 31 -31v-20q0 -31 -31 -31h-172q-98 0 -150.5 51t-52.5 152v116l-43 -24q-7 -4 -14 -4q-17 0 -17 24v9q0 25 31 42l43 24v329q0 31 31 31h31q31 0 31 -31v-278l176 98q7 4 14 4q18 0 18 -24v-9q0 -24 -32 -42z" />
    <glyph glyph-name="lslash" unicode="&#x142;" horiz-adv-x="273" 
d="M238 467l-58 -47v-389q0 -31 -32 -31h-23q-31 0 -31 31v320l-59 -47q-8 -7 -13 -7q-6 0 -6 11v34q0 20 15 32l63 51v247h-61q-31 0 -31 31v16q0 31 30 31h116q32 0 32 -31v-225l52 42q11 8 15 8q7 0 7 -11v-34q0 -18 -16 -32z" />
    <glyph glyph-name="Nacute" unicode="&#x143;" horiz-adv-x="750" 
d="M656 719v-688q0 -31 -31 -31h-12q-19 0 -34 20l-391 535l-1 4v-528q0 -31 -31 -31h-31q-31 0 -31 31v688q0 31 31 31h12q19 0 34 -20l391 -534v523q0 31 32 31h31q31 0 31 -31zM303 844l76 109q22 31 42 31h49q19 0 19 -15q0 -9 -6 -16l-110 -109q-14 -16 -30 -16h-32
q-12 0 -12 7q0 1 4 9z" />
    <glyph glyph-name="nacute" unicode="&#x144;" horiz-adv-x="613" 
d="M180 516v-71l39 39q71 71 156 71q148 0 148 -188v-336q0 -31 -31 -31h-23q-32 0 -32 31v336q0 110 -85 110q-55 0 -141 -86l-31 -32v-328q0 -31 -32 -31h-23q-31 0 -31 31v485q0 31 31 31h23q32 0 32 -31zM234 641l76 109q22 31 42 31h49q19 0 19 -15q0 -8 -6 -16
l-110 -109q-14 -16 -30 -16h-32q-12 0 -12 7q0 1 4 9z" />
    <glyph glyph-name="Ncommaaccent" unicode="&#x145;" horiz-adv-x="750" 
d="M656 719v-688q0 -31 -31 -31h-12q-19 0 -34 20l-391 535l-1 4v-528q0 -31 -31 -31h-31q-31 0 -31 31v688q0 31 31 31h12q19 0 34 -20l391 -534v523q0 31 32 31h31q31 0 31 -31zM287 -172l30 109q6 24 28 24h41q23 0 23 -24v-7q0 -18 -10 -32l-45 -70q-13 -23 -34 -23h-15
q-20 0 -20 14q0 3 2 9z" />
    <glyph glyph-name="ncommaaccent" unicode="&#x146;" horiz-adv-x="613" 
d="M180 516v-71l39 39q71 71 156 71q148 0 148 -188v-336q0 -31 -31 -31h-23q-32 0 -32 31v336q0 110 -85 110q-55 0 -141 -86l-31 -32v-328q0 -31 -32 -31h-23q-31 0 -31 31v485q0 31 31 31h23q32 0 32 -31zM227 -172l30 109q6 24 28 24h41q23 0 23 -24v-7q0 -18 -10 -32
l-45 -70q-13 -23 -34 -23h-15q-20 0 -20 14q0 3 2 9z" />
    <glyph glyph-name="Ncaron" unicode="&#x147;" horiz-adv-x="750" 
d="M656 719v-688q0 -31 -31 -31h-12q-19 0 -34 20l-391 535l-1 4v-528q0 -31 -31 -31h-31q-31 0 -31 31v688q0 31 31 31h12q19 0 34 -20l391 -534v523q0 31 32 31h31q31 0 31 -31zM294 859l-84 94q-9 11 -9 17q0 14 22 14h16q21 0 50 -31l79 -82l79 82q29 31 50 31h14
q22 0 22 -14q0 -6 -9 -17l-82 -94q-28 -31 -49 -31h-51q-14 0 -23.5 7t-24.5 24z" />
    <glyph glyph-name="ncaron" unicode="&#x148;" horiz-adv-x="613" 
d="M180 516v-71l39 39q71 71 156 71q148 0 148 -188v-336q0 -31 -31 -31h-23q-32 0 -32 31v336q0 110 -85 110q-55 0 -141 -86l-31 -32v-328q0 -31 -32 -31h-23q-31 0 -31 31v485q0 31 31 31h23q32 0 32 -31zM226 656l-84 94q-9 11 -9 17q0 14 22 14h16q21 0 50 -31l79 -82
l79 82q29 31 50 31h14q22 0 22 -14q0 -6 -9 -17l-82 -94q-28 -31 -49 -31h-51q-14 0 -23.5 7t-24.5 24z" />
    <glyph glyph-name="napostrophe" unicode="&#x149;" horiz-adv-x="613" 
d="M180 516v-71l39 39q71 71 156 71q148 0 148 -188v-336q0 -31 -31 -31h-23q-32 0 -32 31v336q0 110 -85 110q-55 0 -141 -86l-31 -32v-328q0 -31 -32 -31h-23q-31 0 -31 31v485q0 31 31 31h23q32 0 32 -31zM39 617l30 110q6 23 28 23h41q23 0 23 -23v-8q0 -18 -10 -32
l-45 -70q-14 -23 -34 -23h-15q-20 0 -20 14q0 3 2 9z" />
    <glyph glyph-name="Eng" unicode="&#x14a;" horiz-adv-x="750" 
d="M375 -137h62q59 0 92 36t33 101v42l-374 513l-1 4v-528q0 -31 -31 -31h-31q-31 0 -31 31v688q0 31 31 31h12q19 0 34 -20l391 -534v523q0 31 32 31h31q31 0 31 -31v-719q0 -100 -59.5 -159.5t-159.5 -59.5h-62q-31 0 -31 31v20q0 31 31 31z" />
    <glyph glyph-name="eng" unicode="&#x14b;" horiz-adv-x="613" 
d="M294 -188q-31 0 -31 32v15q0 32 32 32h13q71 0 100 38t29 118v320q0 110 -85 110q-55 0 -141 -86l-31 -32v-328q0 -31 -32 -31h-23q-31 0 -31 31v485q0 31 31 31h23q32 0 32 -31v-71l39 39q71 71 156 71q148 0 148 -188v-304q0 -130 -54.5 -190.5t-174.5 -60.5z" />
    <glyph glyph-name="Omacron" unicode="&#x14c;" horiz-adv-x="734" 
d="M367 -8q-152 0 -232 90.5t-80 261.5v62q0 166 80.5 259t231.5 93q152 0 232.5 -91t80.5 -261v-62q0 -166 -81 -259t-232 -93zM367 74q110 0 164.5 65.5t54.5 204.5v62q0 139 -54.5 204.5t-164.5 65.5t-164.5 -65.5t-54.5 -204.5v-62q0 -139 54.5 -204.5t164.5 -65.5z
M492 868v-17q0 -23 -23 -23h-204q-23 0 -23 23v17q0 23 23 23h204q23 0 23 -23z" />
    <glyph glyph-name="omacron" unicode="&#x14d;" horiz-adv-x="586" 
d="M293 70q152 0 152 211q0 97 -34 146.5t-118 49.5t-118 -49.5t-34 -146.5q0 -211 152 -211zM293 -8q-238 0 -238 289q0 127 60.5 200.5t177.5 73.5q121 0 179.5 -72.5t58.5 -201.5q0 -137 -60 -213t-178 -76zM418 665v-17q0 -23 -23 -23h-204q-23 0 -23 23v17q0 23 23 23
h204q23 0 23 -23z" />
    <glyph glyph-name="Obreve" unicode="&#x14e;" horiz-adv-x="734" 
d="M367 -8q-152 0 -232 90.5t-80 261.5v62q0 166 80.5 259t231.5 93q152 0 232.5 -91t80.5 -261v-62q0 -166 -81 -259t-232 -93zM367 74q110 0 164.5 65.5t54.5 204.5v62q0 139 -54.5 204.5t-164.5 65.5t-164.5 -65.5t-54.5 -204.5v-62q0 -139 54.5 -204.5t164.5 -65.5z
M473 947q8 22 25 22h5q19 0 19 -22q0 -45 -43.5 -82t-112.5 -37q-68 0 -111 37.5t-43 81.5q0 22 19 22h4q19 0 26 -22q9 -26 39 -41t66 -15t67 15t40 41z" />
    <glyph glyph-name="obreve" unicode="&#x14f;" horiz-adv-x="586" 
d="M293 70q152 0 152 211q0 97 -34 146.5t-118 49.5t-118 -49.5t-34 -146.5q0 -211 152 -211zM293 -8q-238 0 -238 289q0 127 60.5 200.5t177.5 73.5q121 0 179.5 -72.5t58.5 -201.5q0 -137 -60 -213t-178 -76zM399 744q8 22 25 22h5q19 0 19 -22q0 -45 -43.5 -82
t-112.5 -37q-68 0 -111 37.5t-43 81.5q0 22 19 22h4q19 0 26 -22q9 -26 39 -41t66 -15t67 15t40 41z" />
    <glyph glyph-name="Ohungarumlaut" unicode="&#x150;" horiz-adv-x="734" 
d="M367 -8q-152 0 -232 90.5t-80 261.5v62q0 166 80.5 259t231.5 93q152 0 232.5 -91t80.5 -261v-62q0 -166 -81 -259t-232 -93zM367 74q110 0 164.5 65.5t54.5 204.5v62q0 139 -54.5 204.5t-164.5 65.5t-164.5 -65.5t-54.5 -204.5v-62q0 -139 54.5 -204.5t164.5 -65.5z
M212 844l76 109q22 31 42 31h49q19 0 19 -15q0 -9 -6 -16l-110 -109q-14 -16 -30 -16h-32q-12 0 -12 7q0 1 4 9zM378 844l76 109q22 31 42 31h49q19 0 19 -15q0 -9 -6 -16l-110 -109q-14 -16 -30 -16h-32q-12 0 -12 7q0 1 4 9z" />
    <glyph glyph-name="ohungarumlaut" unicode="&#x151;" horiz-adv-x="586" 
d="M293 70q152 0 152 211q0 97 -34 146.5t-118 49.5t-118 -49.5t-34 -146.5q0 -211 152 -211zM293 -8q-238 0 -238 289q0 127 60.5 200.5t177.5 73.5q121 0 179.5 -72.5t58.5 -201.5q0 -137 -60 -213t-178 -76zM138 641l76 109q22 31 42 31h49q19 0 19 -15q0 -8 -6 -16
l-110 -109q-14 -16 -30 -16h-32q-12 0 -12 7q0 1 4 9zM304 641l76 109q22 31 42 31h49q19 0 19 -15q0 -8 -6 -16l-110 -109q-14 -16 -30 -16h-32q-12 0 -12 7q0 1 4 9z" />
    <glyph glyph-name="OE" unicode="&#x152;" horiz-adv-x="984" 
d="M891 0h-524q-152 0 -232 90.5t-80 261.5v46q0 166 80.5 259t231.5 93h524q31 0 31 -31v-20q0 -31 -31 -31h-297v-231h265q32 0 32 -31v-19q0 -32 -32 -32h-265v-273h297q31 0 31 -31v-20q0 -31 -31 -31zM148 352q0 -139 54.5 -204.5t164.5 -65.5h133v586h-133
q-110 0 -164.5 -65.5t-54.5 -204.5v-46z" />
    <glyph glyph-name="oe" unicode="&#x153;" horiz-adv-x="918" 
d="M291 -8q-238 0 -238 289q0 127 60.5 200.5t177.5 73.5q134 0 194 -92q65 92 193 92q86 0 136.5 -39t50.5 -118q0 -73 -45 -114.5t-127 -41.5h-164v-31q0 -73 40 -107t109 -34q21 0 44.5 3.5t38 8t28 9t14.5 4.5q10 2 13 2q18 0 18 -20v-22q0 -16 -3.5 -22.5t-16.5 -12.5
q-5 -3 -24 -9t-51.5 -12.5t-60.5 -6.5q-142 0 -200 87q-62 -87 -187 -87zM291 70q152 0 152 211v9q-2 92 -36.5 139.5t-115.5 47.5q-84 0 -118 -49.5t-34 -146.5q0 -211 152 -211zM529 313h141q61 0 85 21t24 64q0 79 -101 79q-149 0 -149 -157v-7z" />
    <glyph glyph-name="Racute" unicode="&#x154;" horiz-adv-x="656" 
d="M601 31q2 -8 2 -10q0 -21 -28 -21h-40q-13 0 -19.5 7t-13.5 24q-27 65 -76.5 141t-89.5 109h-149v-250q0 -31 -31 -31h-31q-31 0 -31 31v688q0 31 31 31h211q117 0 172 -54.5t55 -172.5q0 -86 -35 -136t-102 -78q49 -45 100 -128.5t75 -149.5zM328 668h-141v-305h126
q156 0 156 160q0 81 -31.5 113t-109.5 32zM229 844l76 109q22 31 42 31h49q19 0 19 -15q0 -9 -6 -16l-110 -109q-14 -16 -30 -16h-32q-12 0 -12 7q0 1 4 9z" />
    <glyph glyph-name="racute" unicode="&#x155;" horiz-adv-x="398" 
d="M352 453h-8q-61 0 -102 -39l-62 -62v-321q0 -31 -32 -31h-23q-31 0 -31 31v485q0 31 31 31h23q32 0 32 -31v-90l8 12q71 109 160 109h4q31 0 31 -31v-32q0 -31 -31 -31zM119 641l76 109q22 31 42 31h49q19 0 19 -15q0 -8 -6 -16l-110 -109q-14 -16 -30 -16h-32
q-12 0 -12 7q0 1 4 9z" />
    <glyph glyph-name="Rcommaaccent" unicode="&#x156;" horiz-adv-x="656" 
d="M601 31q2 -8 2 -10q0 -21 -28 -21h-40q-13 0 -19.5 7t-13.5 24q-27 65 -76.5 141t-89.5 109h-149v-250q0 -31 -31 -31h-31q-31 0 -31 31v688q0 31 31 31h211q117 0 172 -54.5t55 -172.5q0 -86 -35 -136t-102 -78q49 -45 100 -128.5t75 -149.5zM328 668h-141v-305h126
q156 0 156 160q0 81 -31.5 113t-109.5 32zM252 -172l30 109q6 24 28 24h41q23 0 23 -24v-7q0 -18 -10 -32l-45 -70q-13 -23 -34 -23h-15q-20 0 -20 14q0 3 2 9z" />
    <glyph glyph-name="rcommaaccent" unicode="&#x157;" horiz-adv-x="398" 
d="M352 453h-8q-61 0 -102 -39l-62 -62v-321q0 -31 -32 -31h-23q-31 0 -31 31v485q0 31 31 31h23q32 0 32 -31v-90l8 12q71 109 160 109h4q31 0 31 -31v-32q0 -31 -31 -31zM57 -172l30 109q6 24 28 24h41q23 0 23 -24v-7q0 -18 -10 -32l-45 -70q-13 -23 -34 -23h-15
q-20 0 -20 14q0 3 2 9z" />
    <glyph glyph-name="Rcaron" unicode="&#x158;" horiz-adv-x="656" 
d="M601 31q2 -8 2 -10q0 -21 -28 -21h-40q-13 0 -19.5 7t-13.5 24q-27 65 -76.5 141t-89.5 109h-149v-250q0 -31 -31 -31h-31q-31 0 -31 31v688q0 31 31 31h211q117 0 172 -54.5t55 -172.5q0 -86 -35 -136t-102 -78q49 -45 100 -128.5t75 -149.5zM328 668h-141v-305h126
q156 0 156 160q0 81 -31.5 113t-109.5 32zM224 859l-84 94q-9 11 -9 17q0 14 22 14h16q21 0 50 -31l79 -82l79 82q29 31 50 31h14q22 0 22 -14q0 -6 -9 -17l-82 -94q-28 -31 -49 -31h-51q-14 0 -23.5 7t-24.5 24z" />
    <glyph glyph-name="rcaron" unicode="&#x159;" horiz-adv-x="398" 
d="M352 453h-8q-61 0 -102 -39l-62 -62v-321q0 -31 -32 -31h-23q-31 0 -31 31v485q0 31 31 31h23q32 0 32 -31v-90l8 12q71 109 160 109h4q31 0 31 -31v-32q0 -31 -31 -31zM157 656l-84 94q-9 11 -9 17q0 14 22 14h16q21 0 50 -31l79 -82l79 82q29 31 50 31h14q22 0 22 -14
q0 -6 -9 -17l-82 -94q-28 -31 -49 -31h-51q-14 0 -23.5 7t-24.5 24z" />
    <glyph glyph-name="Sacute" unicode="&#x15a;" horiz-adv-x="586" 
d="M86 100q88 -26 164 -26h31q157 0 157 129q0 57 -26.5 83.5t-83.5 41.5l-101 27q-164 46 -164 200q0 91 65.5 147t176.5 56h23q73 0 152 -24q13 -4 16.5 -11.5t3.5 -23.5v-26q0 -20 -18 -20q-3 0 -13 2q-89 21 -141 21h-23q-149 0 -149 -121q0 -53 27.5 -77t82.5 -40
l97 -28q35 -10 60 -22t52 -34.5t41.5 -60.5t14.5 -90q0 -97 -66.5 -154t-183.5 -57h-31q-42 0 -96 9t-80 17q-19 4 -19 35v29q0 20 17 20q4 0 14 -2zM233 844l76 109q22 31 42 31h49q19 0 19 -15q0 -9 -6 -16l-110 -109q-14 -16 -30 -16h-32q-12 0 -12 7q0 1 4 9z" />
    <glyph glyph-name="sacute" unicode="&#x15b;" horiz-adv-x="516" 
d="M281 477q-125 0 -125 -79q0 -32 16 -43.5t54 -20.5q5 -1 8 -2l67 -16q73 -17 112.5 -52t39.5 -108q0 -85 -62 -124.5t-157 -39.5q-87 0 -136 14q-15 4 -19.5 9.5t-4.5 19.5v27q0 23 25 23q6 0 10 -1q63 -14 125 -14q133 0 133 86q0 59 -86 78l-82 20q-129 30 -129 144
q0 73 57 115t154 42q44 0 121 -11q15 -2 19.5 -8t4.5 -21v-28q0 -22 -26 -22q-2 0 -41 6t-78 6zM197 641l76 109q22 31 42 31h49q19 0 19 -15q0 -8 -6 -16l-110 -109q-14 -16 -30 -16h-32q-12 0 -12 7q0 1 4 9z" />
    <glyph glyph-name="Scircumflex" unicode="&#x15c;" horiz-adv-x="586" 
d="M86 100q88 -26 164 -26h31q157 0 157 129q0 57 -26.5 83.5t-83.5 41.5l-101 27q-164 46 -164 200q0 91 65.5 147t176.5 56h23q73 0 152 -24q13 -4 16.5 -11.5t3.5 -23.5v-26q0 -20 -18 -20q-3 0 -13 2q-89 21 -141 21h-23q-149 0 -149 -121q0 -53 27.5 -77t82.5 -40
l97 -28q35 -10 60 -22t52 -34.5t41.5 -60.5t14.5 -90q0 -97 -66.5 -154t-183.5 -57h-31q-42 0 -96 9t-80 17q-19 4 -19 35v29q0 20 17 20q4 0 14 -2zM144 859l84 94q26 31 48 31h51q23 0 49 -31l82 -94q9 -11 9 -17q0 -14 -22 -14h-14q-19 0 -50 31l-79 82l-79 -82
q-31 -31 -50 -31h-16q-22 0 -22 14q0 6 9 17z" />
    <glyph glyph-name="scircumflex" unicode="&#x15d;" horiz-adv-x="516" 
d="M281 477q-125 0 -125 -79q0 -32 16 -43.5t54 -20.5q5 -1 8 -2l67 -16q73 -17 112.5 -52t39.5 -108q0 -85 -62 -124.5t-157 -39.5q-87 0 -136 14q-15 4 -19.5 9.5t-4.5 19.5v27q0 23 25 23q6 0 10 -1q63 -14 125 -14q133 0 133 86q0 59 -86 78l-82 20q-129 30 -129 144
q0 73 57 115t154 42q44 0 121 -11q15 -2 19.5 -8t4.5 -21v-28q0 -22 -26 -22q-2 0 -41 6t-78 6zM109 656l84 94q26 31 48 31h51q23 0 49 -31l82 -94q9 -10 9 -17q0 -14 -22 -14h-14q-19 0 -50 31l-79 82l-79 -82q-31 -31 -50 -31h-16q-22 0 -22 14q0 7 9 17z" />
    <glyph glyph-name="Scedilla" unicode="&#x15e;" horiz-adv-x="586" 
d="M86 100q88 -26 164 -26h31q157 0 157 129q0 57 -26.5 83.5t-83.5 41.5l-101 27q-164 46 -164 200q0 91 65.5 147t176.5 56h23q73 0 152 -24q13 -4 16.5 -11.5t3.5 -23.5v-26q0 -20 -18 -20q-3 0 -13 2q-89 21 -141 21h-23q-149 0 -149 -121q0 -53 27.5 -77t82.5 -40
l97 -28q35 -10 60 -22t52 -34.5t41.5 -60.5t14.5 -90q0 -97 -66.5 -154t-183.5 -57h-31q-42 0 -96 9t-80 17q-19 4 -19 35v29q0 20 17 20q4 0 14 -2zM181 -133h71q54 0 54 35q0 17 -15.5 35t-34.5 28v12h54q27 -12 45 -35.5t18 -46.5q0 -42 -31 -62.5t-79 -20.5h-82
q-23 0 -23 24v8q0 23 23 23z" />
    <glyph glyph-name="Scedilla" unicode="&#xf6c1;" horiz-adv-x="586" 
d="M86 100q88 -26 164 -26h31q157 0 157 129q0 57 -26.5 83.5t-83.5 41.5l-101 27q-164 46 -164 200q0 91 65.5 147t176.5 56h23q73 0 152 -24q13 -4 16.5 -11.5t3.5 -23.5v-26q0 -20 -18 -20q-3 0 -13 2q-89 21 -141 21h-23q-149 0 -149 -121q0 -53 27.5 -77t82.5 -40
l97 -28q35 -10 60 -22t52 -34.5t41.5 -60.5t14.5 -90q0 -97 -66.5 -154t-183.5 -57h-31q-42 0 -96 9t-80 17q-19 4 -19 35v29q0 20 17 20q4 0 14 -2zM181 -133h71q54 0 54 35q0 17 -15.5 35t-34.5 28v12h54q27 -12 45 -35.5t18 -46.5q0 -42 -31 -62.5t-79 -20.5h-82
q-23 0 -23 24v8q0 23 23 23z" />
    <glyph glyph-name="scedilla" unicode="&#x15f;" horiz-adv-x="516" 
d="M281 477q-125 0 -125 -79q0 -32 16 -43.5t54 -20.5q5 -1 8 -2l67 -16q73 -17 112.5 -52t39.5 -108q0 -85 -62 -124.5t-157 -39.5q-87 0 -136 14q-15 4 -19.5 9.5t-4.5 19.5v27q0 23 25 23q6 0 10 -1q63 -14 125 -14q133 0 133 86q0 59 -86 78l-82 20q-129 30 -129 144
q0 73 57 115t154 42q44 0 121 -11q15 -2 19.5 -8t4.5 -21v-28q0 -22 -26 -22q-2 0 -41 6t-78 6zM154 -133h71q54 0 54 35q0 17 -15.5 35t-34.5 28v12h54q27 -12 45 -35.5t18 -46.5q0 -42 -31 -62.5t-79 -20.5h-82q-23 0 -23 24v8q0 23 23 23z" />
    <glyph glyph-name="scedilla" unicode="&#xf6c2;" horiz-adv-x="516" 
d="M281 477q-125 0 -125 -79q0 -32 16 -43.5t54 -20.5q5 -1 8 -2l67 -16q73 -17 112.5 -52t39.5 -108q0 -85 -62 -124.5t-157 -39.5q-87 0 -136 14q-15 4 -19.5 9.5t-4.5 19.5v27q0 23 25 23q6 0 10 -1q63 -14 125 -14q133 0 133 86q0 59 -86 78l-82 20q-129 30 -129 144
q0 73 57 115t154 42q44 0 121 -11q15 -2 19.5 -8t4.5 -21v-28q0 -22 -26 -22q-2 0 -41 6t-78 6zM154 -133h71q54 0 54 35q0 17 -15.5 35t-34.5 28v12h54q27 -12 45 -35.5t18 -46.5q0 -42 -31 -62.5t-79 -20.5h-82q-23 0 -23 24v8q0 23 23 23z" />
    <glyph glyph-name="Scaron" unicode="&#x160;" horiz-adv-x="586" 
d="M86 100q88 -26 164 -26h31q157 0 157 129q0 57 -26.5 83.5t-83.5 41.5l-101 27q-164 46 -164 200q0 91 65.5 147t176.5 56h23q73 0 152 -24q13 -4 16.5 -11.5t3.5 -23.5v-26q0 -20 -18 -20q-3 0 -13 2q-89 21 -141 21h-23q-149 0 -149 -121q0 -53 27.5 -77t82.5 -40
l97 -28q35 -10 60 -22t52 -34.5t41.5 -60.5t14.5 -90q0 -97 -66.5 -154t-183.5 -57h-31q-42 0 -96 9t-80 17q-19 4 -19 35v29q0 20 17 20q4 0 14 -2zM232 859l-84 94q-9 11 -9 17q0 14 22 14h16q21 0 50 -31l79 -82l79 82q29 31 50 31h14q22 0 22 -14q0 -6 -9 -17l-82 -94
q-28 -31 -49 -31h-51q-14 0 -23.5 7t-24.5 24z" />
    <glyph glyph-name="scaron" unicode="&#x161;" horiz-adv-x="516" 
d="M281 477q-125 0 -125 -79q0 -32 16 -43.5t54 -20.5q5 -1 8 -2l67 -16q73 -17 112.5 -52t39.5 -108q0 -85 -62 -124.5t-157 -39.5q-87 0 -136 14q-15 4 -19.5 9.5t-4.5 19.5v27q0 23 25 23q6 0 10 -1q63 -14 125 -14q133 0 133 86q0 59 -86 78l-82 20q-129 30 -129 144
q0 73 57 115t154 42q44 0 121 -11q15 -2 19.5 -8t4.5 -21v-28q0 -22 -26 -22q-2 0 -41 6t-78 6zM193 656l-84 94q-9 11 -9 17q0 14 22 14h16q21 0 50 -31l79 -82l79 82q29 31 50 31h14q22 0 22 -14q0 -6 -9 -17l-82 -94q-28 -31 -49 -31h-51q-14 0 -23.5 7t-24.5 24z" />
    <glyph glyph-name="Tcommaaccent" unicode="&#x162;" horiz-adv-x="594" 
d="M547 668h-203v-637q0 -31 -32 -31h-31q-31 0 -31 31v637h-203q-31 0 -31 31v20q0 31 31 31h500q31 0 31 -31v-20q0 -31 -31 -31zM197 -133h71q54 0 54 35q0 17 -15.5 35t-34.5 28v12h54q27 -12 45 -35.5t18 -46.5q0 -42 -31 -62.5t-79 -20.5h-82q-23 0 -23 24v8
q0 23 23 23z" />
    <glyph glyph-name="tcommaaccent" unicode="&#x163;" horiz-adv-x="406" 
d="M297 78h47q31 0 31 -31v-16q0 -31 -31 -31h-47q-83 0 -131.5 46.5t-48.5 133.5v289h-55q-30 0 -30 31v16q0 31 31 31h54v94q0 31 31 31h24q31 0 31 -31v-94h125q31 0 31 -31v-16q0 -31 -31 -31h-125v-289q0 -48 24.5 -75t69.5 -27zM181 -133h71q54 0 54 35q0 17 -15.5 35
t-34.5 28v12h54q27 -12 45 -35.5t18 -46.5q0 -42 -31 -62.5t-79 -20.5h-82q-23 0 -23 24v8q0 23 23 23z" />
    <glyph glyph-name="Tcaron" unicode="&#x164;" horiz-adv-x="594" 
d="M547 668h-203v-637q0 -31 -32 -31h-31q-31 0 -31 31v637h-203q-31 0 -31 31v20q0 31 31 31h500q31 0 31 -31v-20q0 -31 -31 -31zM224 859l-84 94q-9 11 -9 17q0 14 22 14h16q21 0 50 -31l79 -82l79 82q29 31 50 31h14q22 0 22 -14q0 -6 -9 -17l-82 -94q-28 -31 -49 -31
h-51q-14 0 -23.5 7t-24.5 24z" />
    <glyph glyph-name="tcaron" unicode="&#x165;" horiz-adv-x="406" 
d="M297 78h47q31 0 31 -31v-16q0 -31 -31 -31h-47q-83 0 -131.5 46.5t-48.5 133.5v289h-55q-30 0 -30 31v16q0 31 31 31h54v94q0 31 31 31h24q31 0 31 -31v-94h125q31 0 31 -31v-16q0 -31 -31 -31h-125v-289q0 -48 24.5 -75t69.5 -27zM268 617l30 110q6 23 27 23h41
q24 0 24 -23v-8q0 -18 -10 -32l-45 -70q-15 -23 -34 -23h-16q-19 0 -19 14q0 3 2 9z" />
    <glyph glyph-name="Tbar" unicode="&#x166;" horiz-adv-x="594" 
d="M500 371h-156v-340q0 -31 -32 -31h-31q-31 0 -31 31v340h-156q-32 0 -32 31v20q0 31 32 31h156v215h-203q-31 0 -31 31v20q0 31 31 31h500q31 0 31 -31v-20q0 -31 -31 -31h-203v-215h156q31 0 31 -31v-20q0 -31 -31 -31z" />
    <glyph glyph-name="tbar" unicode="&#x167;" horiz-adv-x="406" 
d="M203 336h125q31 0 31 -31v-16q0 -31 -31 -31h-125v-78q0 -48 24.5 -75t69.5 -27h47q31 0 31 -31v-16q0 -31 -31 -31h-47q-83 0 -131.5 46.5t-48.5 133.5v78h-55q-30 0 -30 31v16q0 31 31 31h54v133h-55q-30 0 -30 31v16q0 31 31 31h54v94q0 31 31 31h24q31 0 31 -31v-94
h125q31 0 31 -31v-16q0 -31 -31 -31h-125v-133z" />
    <glyph glyph-name="Utilde" unicode="&#x168;" horiz-adv-x="719" 
d="M633 719v-461q0 -127 -74.5 -196.5t-199.5 -69.5q-129 0 -201 69.5t-72 196.5v461q0 31 31 31h31q32 0 32 -31v-461q0 -95 49 -139.5t130 -44.5q82 0 131 44.5t49 139.5v461q0 31 31 31h32q31 0 31 -31zM499 862q-32 -34 -66 -34q-27 0 -80 39t-68 39q-34 0 -67 -44
q-12 -17 -21 -17q-10 0 -10 19v16q0 19 31 53q32 36 67 36q29 0 81 -39t67 -39q34 0 66 43q13 19 22 19q10 0 10 -20v-12q0 -24 -32 -59z" />
    <glyph glyph-name="utilde" unicode="&#x169;" horiz-adv-x="613" 
d="M434 31v71l-39 -40q-72 -70 -157 -70q-148 0 -148 188v336q0 31 31 31h24q31 0 31 -31v-336q0 -110 86 -110q54 0 140 86l32 31v329q0 31 31 31h23q32 0 32 -31v-485q0 -31 -32 -31h-23q-31 0 -31 31zM447 659q-32 -34 -66 -34q-27 0 -80 39t-68 39q-34 0 -67 -44
q-12 -17 -21 -17q-10 0 -10 19v16q0 19 31 53q32 36 67 36q29 0 81 -39t67 -39q34 0 66 43q13 19 22 19q10 0 10 -20v-12q0 -24 -32 -59z" />
    <glyph glyph-name="Umacron" unicode="&#x16a;" horiz-adv-x="719" 
d="M633 719v-461q0 -127 -74.5 -196.5t-199.5 -69.5q-129 0 -201 69.5t-72 196.5v461q0 31 31 31h31q32 0 32 -31v-461q0 -95 49 -139.5t130 -44.5q82 0 131 44.5t49 139.5v461q0 31 31 31h32q31 0 31 -31zM484 868v-17q0 -23 -23 -23h-204q-23 0 -23 23v17q0 23 23 23h204
q23 0 23 -23z" />
    <glyph glyph-name="umacron" unicode="&#x16b;" horiz-adv-x="613" 
d="M434 31v71l-39 -40q-72 -70 -157 -70q-148 0 -148 188v336q0 31 31 31h24q31 0 31 -31v-336q0 -110 86 -110q54 0 140 86l32 31v329q0 31 31 31h23q32 0 32 -31v-485q0 -31 -32 -31h-23q-31 0 -31 31zM432 665v-17q0 -23 -23 -23h-204q-23 0 -23 23v17q0 23 23 23h204
q23 0 23 -23z" />
    <glyph glyph-name="Ubreve" unicode="&#x16c;" horiz-adv-x="719" 
d="M633 719v-461q0 -127 -74.5 -196.5t-199.5 -69.5q-129 0 -201 69.5t-72 196.5v461q0 31 31 31h31q32 0 32 -31v-461q0 -95 49 -139.5t130 -44.5q82 0 131 44.5t49 139.5v461q0 31 31 31h32q31 0 31 -31zM465 947q8 22 25 22h5q19 0 19 -22q0 -45 -43.5 -82t-112.5 -37
q-68 0 -111 37.5t-43 81.5q0 22 19 22h4q19 0 26 -22q9 -26 39 -41t66 -15t67 15t40 41z" />
    <glyph glyph-name="ubreve" unicode="&#x16d;" horiz-adv-x="613" 
d="M434 31v71l-39 -40q-72 -70 -157 -70q-148 0 -148 188v336q0 31 31 31h24q31 0 31 -31v-336q0 -110 86 -110q54 0 140 86l32 31v329q0 31 31 31h23q32 0 32 -31v-485q0 -31 -32 -31h-23q-31 0 -31 31zM412 744q8 22 25 22h5q19 0 19 -22q0 -45 -43.5 -82t-112.5 -37
q-68 0 -111 37.5t-43 81.5q0 22 19 22h4q19 0 26 -22q9 -26 39 -41t66 -15t67 15t40 41z" />
    <glyph glyph-name="Uring" unicode="&#x16e;" horiz-adv-x="719" 
d="M633 719v-461q0 -127 -74.5 -196.5t-199.5 -69.5q-129 0 -201 69.5t-72 196.5v461q0 31 31 31h31q32 0 32 -31v-461q0 -95 49 -139.5t130 -44.5q82 0 131 44.5t49 139.5v461q0 31 31 31h32q31 0 31 -31zM359 828q-56 0 -84.5 29t-28.5 73t29 72.5t84 28.5q56 0 85 -29
t29 -72q0 -44 -29 -73t-85 -29zM359 867q33 0 50 18.5t17 44.5t-17 44t-50 18t-49.5 -18t-16.5 -44t16.5 -44.5t49.5 -18.5z" />
    <glyph glyph-name="uring" unicode="&#x16f;" horiz-adv-x="613" 
d="M434 31v71l-39 -40q-72 -70 -157 -70q-148 0 -148 188v336q0 31 31 31h24q31 0 31 -31v-336q0 -110 86 -110q54 0 140 86l32 31v329q0 31 31 31h23q32 0 32 -31v-485q0 -31 -32 -31h-23q-31 0 -31 31zM306 625q-56 0 -84.5 29t-28.5 73q0 43 28.5 72t84.5 29t85 -29
t29 -72q0 -44 -29 -73t-85 -29zM306 664q33 0 50 18.5t17 44.5t-17 44t-50 18t-49.5 -18t-16.5 -44t16.5 -44.5t49.5 -18.5z" />
    <glyph glyph-name="Uhungarumlaut" unicode="&#x170;" horiz-adv-x="719" 
d="M633 719v-461q0 -127 -74.5 -196.5t-199.5 -69.5q-129 0 -201 69.5t-72 196.5v461q0 31 31 31h31q32 0 32 -31v-461q0 -95 49 -139.5t130 -44.5q82 0 131 44.5t49 139.5v461q0 31 31 31h32q31 0 31 -31zM204 844l76 109q22 31 42 31h49q19 0 19 -15q0 -9 -6 -16
l-110 -109q-14 -16 -30 -16h-32q-12 0 -12 7q0 1 4 9zM370 844l76 109q22 31 42 31h49q19 0 19 -15q0 -9 -6 -16l-110 -109q-14 -16 -30 -16h-32q-12 0 -12 7q0 1 4 9z" />
    <glyph glyph-name="uhungarumlaut" unicode="&#x171;" horiz-adv-x="613" 
d="M434 31v71l-39 -40q-72 -70 -157 -70q-148 0 -148 188v336q0 31 31 31h24q31 0 31 -31v-336q0 -110 86 -110q54 0 140 86l32 31v329q0 31 31 31h23q32 0 32 -31v-485q0 -31 -32 -31h-23q-31 0 -31 31zM151 641l76 109q22 31 42 31h49q19 0 19 -15q0 -8 -6 -16l-110 -109
q-14 -16 -30 -16h-32q-12 0 -12 7q0 1 4 9zM317 641l76 109q22 31 42 31h49q19 0 19 -15q0 -8 -6 -16l-110 -109q-14 -16 -30 -16h-32q-12 0 -12 7q0 1 4 9z" />
    <glyph glyph-name="Uogonek" unicode="&#x172;" horiz-adv-x="719" 
d="M633 719v-461q0 -127 -74.5 -196.5t-199.5 -69.5q-129 0 -201 69.5t-72 196.5v461q0 31 31 31h31q32 0 32 -31v-461q0 -95 49 -139.5t130 -44.5q82 0 131 44.5t49 139.5v461q0 31 31 31h32q31 0 31 -31zM394 -133h70q24 0 24 -23v-8q0 -24 -24 -24h-82q-47 0 -78 20.5
t-31 62.5q0 23 18 46.5t44 35.5h55v-12q-19 -10 -35 -28t-16 -35q0 -35 55 -35z" />
    <glyph glyph-name="uogonek" unicode="&#x173;" horiz-adv-x="613" 
d="M434 31v71l-39 -40q-72 -70 -157 -70q-148 0 -148 188v336q0 31 31 31h24q31 0 31 -31v-336q0 -110 86 -110q54 0 140 86l32 31v329q0 31 31 31h23q32 0 32 -31v-485q0 -31 -32 -31h-23q-31 0 -31 31zM508 -133h70q24 0 24 -23v-8q0 -24 -24 -24h-82q-47 0 -78 20.5
t-31 62.5q0 23 18 46.5t44 35.5h55v-12q-19 -10 -35 -28t-16 -35q0 -35 55 -35z" />
    <glyph glyph-name="Wcircumflex" unicode="&#x174;" horiz-adv-x="992" 
d="M456 719q5 31 32 31h24q27 0 32 -31q59 -391 167 -641q103 218 167 641q5 31 32 31h27q28 0 28 -25q0 -12 -4 -34q-34 -213 -90.5 -406t-100.5 -285h-114q-32 64 -75 199t-81 297q-83 -351 -156 -496h-121q-45 92 -101.5 285t-90.5 406q-4 22 -4 34q0 25 28 25h35
q27 0 32 -31q59 -394 167 -641q103 222 167 641zM339 859l84 94q26 31 48 31h51q23 0 49 -31l82 -94q9 -11 9 -17q0 -14 -22 -14h-14q-19 0 -50 31l-79 82l-79 -82q-31 -31 -50 -31h-16q-22 0 -22 14q0 6 9 17z" />
    <glyph glyph-name="wcircumflex" unicode="&#x175;" horiz-adv-x="758" 
d="M703 516v-110q0 -129 -42.5 -243.5t-90.5 -162.5h-93q-24 26 -57 86.5t-41 101.5q-8 -41 -41 -101.5t-57 -86.5h-93q-48 48 -90.5 162.5t-42.5 243.5v110q0 31 31 31h23q32 0 32 -31v-110q0 -109 29 -202t68 -141q39 49 68.5 141.5t29.5 201.5v110q0 31 31 31h24
q31 0 31 -31v-110q0 -109 29.5 -201.5t68.5 -141.5q39 49 68 141.5t29 201.5v110q0 31 31 31h24q31 0 31 -31zM222 656l84 94q26 31 48 31h51q23 0 49 -31l82 -94q9 -11 9 -17q0 -14 -22 -14h-14q-19 0 -50 31l-79 82l-79 -82q-31 -31 -50 -31h-16q-22 0 -22 14q0 7 9 17z
" />
    <glyph glyph-name="Ycircumflex" unicode="&#x176;" horiz-adv-x="602" 
d="M309 391l174 328q18 31 40 31h35q23 0 23 -18q0 -6 -4 -13l-225 -410v-278q0 -31 -32 -31h-31q-31 0 -31 31v270l-226 418q-4 7 -4 13q0 18 25 18h42q21 0 39 -31zM144 859l84 94q26 31 48 31h51q23 0 49 -31l82 -94q9 -11 9 -17q0 -14 -22 -14h-14q-19 0 -50 31l-79 82
l-79 -82q-31 -31 -50 -31h-16q-22 0 -22 14q0 6 9 17z" />
    <glyph glyph-name="ycircumflex" unicode="&#x177;" horiz-adv-x="613" 
d="M434 63v78l-39 -39q-71 -71 -159 -71q-146 0 -146 188v297q0 31 31 31h24q31 0 31 -31v-297q0 -110 84 -110q56 0 142 86l32 32v289q0 31 31 31h23q32 0 32 -31v-446q0 -136 -75.5 -197t-221.5 -61h-63q-31 0 -31 32v15q0 32 31 32h63q112 0 161.5 39.5t49.5 132.5z
M150 656l84 94q26 31 48 31h51q23 0 49 -31l82 -94q9 -11 9 -17q0 -14 -22 -14h-14q-19 0 -50 31l-79 82l-79 -82q-31 -31 -50 -31h-16q-22 0 -22 14q0 7 9 17z" />
    <glyph glyph-name="Ydieresis" unicode="&#x178;" horiz-adv-x="602" 
d="M309 391l174 328q18 31 40 31h35q23 0 23 -18q0 -6 -4 -13l-225 -410v-278q0 -31 -32 -31h-31q-31 0 -31 31v270l-226 418q-4 7 -4 13q0 18 25 18h42q21 0 39 -31zM223 890v-31q0 -31 -31 -31h-24q-31 0 -31 31v31q0 32 31 32h24q31 0 31 -32zM465 890v-31q0 -31 -31 -31
h-24q-31 0 -31 31v31q0 32 31 32h24q31 0 31 -32z" />
    <glyph glyph-name="Zacute" unicode="&#x179;" horiz-adv-x="609" 
d="M94 750h429q12 0 20.5 -8.5t8.5 -20.5q0 -6 -4 -18q-50 -123 -164.5 -312.5t-203.5 -308.5h351q31 0 31 -31v-20q0 -31 -31 -31h-451q-15 0 -24 7.5t-9 19.5q0 6 0.5 10.5t3.5 9.5t4 7t6.5 8.5t6.5 8.5q101 135 211.5 309.5t154.5 287.5h-340q-32 0 -32 31v20q0 31 32 31
zM229 844l76 109q22 31 42 31h49q19 0 19 -15q0 -9 -6 -16l-110 -109q-14 -16 -30 -16h-32q-12 0 -12 7q0 1 4 9z" />
    <glyph glyph-name="zacute" unicode="&#x17a;" horiz-adv-x="500" 
d="M437 0h-351q-29 0 -31 31v16q0 21 15 39q76 80 161 189.5t132 193.5h-260q-33 0 -33 31v16q0 31 32 31h328q31 0 31 -31v-16q0 -25 -7 -39q-35 -77 -132.5 -203t-157.5 -180h273q32 0 32 -31v-16q0 -31 -32 -31zM197 641l76 109q22 31 42 31h49q19 0 19 -15q0 -8 -6 -16
l-110 -109q-14 -16 -30 -16h-32q-12 0 -12 7q0 1 4 9z" />
    <glyph glyph-name="Zdotaccent" unicode="&#x17b;" horiz-adv-x="609" 
d="M94 750h429q12 0 20.5 -8.5t8.5 -20.5q0 -6 -4 -18q-50 -123 -164.5 -312.5t-203.5 -308.5h351q31 0 31 -31v-20q0 -31 -31 -31h-451q-15 0 -24 7.5t-9 19.5q0 6 0.5 10.5t3.5 9.5t4 7t6.5 8.5t6.5 8.5q101 135 211.5 309.5t154.5 287.5h-340q-32 0 -32 31v20q0 31 32 31
zM344 890v-31q0 -31 -31 -31h-24q-31 0 -31 31v31q0 32 31 32h24q31 0 31 -32z" />
    <glyph glyph-name="zdotaccent" unicode="&#x17c;" horiz-adv-x="500" 
d="M437 0h-351q-29 0 -31 31v16q0 21 15 39q76 80 161 189.5t132 193.5h-260q-33 0 -33 31v16q0 31 32 31h328q31 0 31 -31v-16q0 -25 -7 -39q-35 -77 -132.5 -203t-157.5 -180h273q32 0 32 -31v-16q0 -31 -32 -31zM301 687v-31q0 -31 -31 -31h-24q-31 0 -31 31v31
q0 32 31 32h24q31 0 31 -32z" />
    <glyph glyph-name="Zcaron" unicode="&#x17d;" horiz-adv-x="609" 
d="M94 750h429q12 0 20.5 -8.5t8.5 -20.5q0 -6 -4 -18q-50 -123 -164.5 -312.5t-203.5 -308.5h351q31 0 31 -31v-20q0 -31 -31 -31h-451q-15 0 -24 7.5t-9 19.5q0 6 0.5 10.5t3.5 9.5t4 7t6.5 8.5t6.5 8.5q101 135 211.5 309.5t154.5 287.5h-340q-32 0 -32 31v20q0 31 32 31
zM232 859l-84 94q-9 11 -9 17q0 14 22 14h16q21 0 50 -31l79 -82l79 82q29 31 50 31h14q22 0 22 -14q0 -6 -9 -17l-82 -94q-28 -31 -49 -31h-51q-14 0 -23.5 7t-24.5 24z" />
    <glyph glyph-name="zcaron" unicode="&#x17e;" horiz-adv-x="500" 
d="M437 0h-351q-29 0 -31 31v16q0 21 15 39q76 80 161 189.5t132 193.5h-260q-33 0 -33 31v16q0 31 32 31h328q31 0 31 -31v-16q0 -25 -7 -39q-35 -77 -132.5 -203t-157.5 -180h273q32 0 32 -31v-16q0 -31 -32 -31zM197 656l-84 94q-9 11 -9 17q0 14 22 14h16q21 0 50 -31
l79 -82l79 82q29 31 50 31h14q22 0 22 -14q0 -6 -9 -17l-82 -94q-28 -31 -49 -31h-51q-14 0 -23.5 7t-24.5 24z" />
    <glyph glyph-name="longs" unicode="&#x17f;" horiz-adv-x="344" 
d="M328 672h-31q-52 0 -73 -24t-21 -78v-539q0 -31 -31 -31h-24q-31 0 -31 31v438h-54q-32 0 -32 31v16q2 31 31 31h55v23q0 87 48.5 133.5t131.5 46.5h31q31 0 31 -31v-16q0 -31 -31 -31z" />
    <glyph glyph-name="florin" unicode="&#x192;" 
d="M531 406v-19q0 -32 -31 -32h-156v-324q0 -105 -56.5 -162t-162.5 -57h-63q-31 0 -31 32v19q0 32 31 32h63q69 0 97 32t28 104v324h-94q-31 0 -31 32v19q0 31 31 31h94v94q0 105 54.5 162t164.5 57h62q31 0 31 -31v-20q0 -31 -31 -31h-62q-73 0 -99 -31.5t-26 -105.5v-94
h156q31 0 31 -31z" />
    <glyph glyph-name="Scommaaccent" unicode="&#x218;" horiz-adv-x="586" 
d="M86 100q88 -26 164 -26h31q157 0 157 129q0 57 -26.5 83.5t-83.5 41.5l-101 27q-164 46 -164 200q0 91 65.5 147t176.5 56h23q73 0 152 -24q13 -4 16.5 -11.5t3.5 -23.5v-26q0 -20 -18 -20q-3 0 -13 2q-89 21 -141 21h-23q-149 0 -149 -121q0 -53 27.5 -77t82.5 -40
l97 -28q35 -10 60 -22t52 -34.5t41.5 -60.5t14.5 -90q0 -97 -66.5 -154t-183.5 -57h-31q-42 0 -96 9t-80 17q-19 4 -19 35v29q0 20 17 20q4 0 14 -2zM193 -172l30 109q6 24 28 24h41q23 0 23 -24v-7q0 -18 -10 -32l-45 -70q-13 -23 -34 -23h-15q-20 0 -20 14q0 3 2 9z" />
    <glyph glyph-name="scommaaccent" unicode="&#x219;" horiz-adv-x="516" 
d="M281 477q-125 0 -125 -79q0 -32 16 -43.5t54 -20.5q5 -1 8 -2l67 -16q73 -17 112.5 -52t39.5 -108q0 -85 -62 -124.5t-157 -39.5q-87 0 -136 14q-15 4 -19.5 9.5t-4.5 19.5v27q0 23 25 23q6 0 10 -1q63 -14 125 -14q133 0 133 86q0 59 -86 78l-82 20q-129 30 -129 144
q0 73 57 115t154 42q44 0 121 -11q15 -2 19.5 -8t4.5 -21v-28q0 -22 -26 -22q-2 0 -41 6t-78 6zM166 -172l30 109q6 24 28 24h41q23 0 23 -24v-7q0 -18 -10 -32l-45 -70q-13 -23 -34 -23h-15q-20 0 -20 14q0 3 2 9z" />
    <glyph glyph-name="uni021A" unicode="&#x21a;" horiz-adv-x="594" 
d="M547 668h-203v-637q0 -31 -32 -31h-31q-31 0 -31 31v637h-203q-31 0 -31 31v20q0 31 31 31h500q31 0 31 -31v-20q0 -31 -31 -31zM217 -172l30 109q6 24 28 24h41q23 0 23 -24v-7q0 -18 -10 -32l-45 -70q-13 -23 -34 -23h-15q-20 0 -20 14q0 3 2 9z" />
    <glyph glyph-name="uni021B" unicode="&#x21b;" horiz-adv-x="406" 
d="M297 78h47q31 0 31 -31v-16q0 -31 -31 -31h-47q-83 0 -131.5 46.5t-48.5 133.5v289h-55q-30 0 -30 31v16q0 31 31 31h54v94q0 31 31 31h24q31 0 31 -31v-94h125q31 0 31 -31v-16q0 -31 -31 -31h-125v-289q0 -48 24.5 -75t69.5 -27zM213 -172l30 109q6 24 28 24h41
q23 0 23 -24v-7q0 -18 -10 -32l-45 -70q-13 -23 -34 -23h-15q-20 0 -20 14q0 3 2 9z" />
    <glyph glyph-name="circumflex" unicode="&#x2c6;" horiz-adv-x="332" 
d="M9 656l84 94q26 31 48 31h51q23 0 49 -31l82 -94q9 -10 9 -17q0 -14 -22 -14h-14q-19 0 -50 31l-79 82l-79 -82q-31 -31 -50 -31h-16q-22 0 -22 14q0 7 9 17z" />
    <glyph glyph-name="caron" unicode="&#x2c7;" horiz-adv-x="332" 
d="M93 656l-84 94q-9 11 -9 17q0 14 22 14h16q21 0 50 -31l79 -82l79 82q29 31 50 31h14q22 0 22 -14q0 -6 -9 -17l-82 -94q-28 -31 -49 -31h-51q-14 0 -23.5 7t-24.5 24z" />
    <glyph glyph-name="breve" unicode="&#x2d8;" horiz-adv-x="310" 
d="M261 744q8 22 25 22h5q19 0 19 -22q0 -45 -43.5 -82t-112.5 -37q-68 0 -111 37.5t-43 81.5q0 22 19 22h4q19 0 26 -22q9 -26 39 -41t66 -15t67 15t40 41z" />
    <glyph glyph-name="dotaccent" unicode="&#x2d9;" horiz-adv-x="86" 
d="M86 687v-31q0 -31 -31 -31h-24q-31 0 -31 31v31q0 32 31 32h24q31 0 31 -32z" />
    <glyph glyph-name="ring" unicode="&#x2da;" horiz-adv-x="227" 
d="M113 625q-56 0 -84.5 29t-28.5 73q0 43 29 72t84 29q56 0 85 -29t29 -72q0 -44 -29 -73t-85 -29zM113 664q33 0 50 18.5t17 44.5t-17 44t-50 18t-49.5 -18t-16.5 -44t16.5 -44.5t49.5 -18.5z" />
    <glyph glyph-name="ogonek" unicode="&#x2db;" horiz-adv-x="215" 
d="M121 -133h70q24 0 24 -23v-8q0 -24 -24 -24h-82q-47 0 -78 20.5t-31 62.5q0 23 18 46.5t44 35.5h55v-12q-19 -10 -35 -28t-16 -35q0 -35 55 -35z" />
    <glyph glyph-name="tilde" unicode="&#x2dc;" horiz-adv-x="344" 
d="M312 659q-32 -34 -66 -34q-28 0 -80 39t-68 39q-34 0 -67 -44q-12 -17 -21 -17q-10 0 -10 19v16q0 19 31 53q32 36 67 36q29 0 81 -39t67 -39q34 0 66 43q13 19 22 19q10 0 10 -20v-12q0 -24 -32 -59z" />
    <glyph glyph-name="hungarumlaut" unicode="&#x2dd;" horiz-adv-x="356" 
d="M4 641l76 109q22 31 42 31h49q19 0 19 -15q0 -8 -6 -16l-110 -109q-14 -16 -30 -16h-32q-12 0 -12 7q0 1 4 9zM170 641l76 109q22 31 42 31h49q19 0 19 -15q0 -8 -6 -16l-110 -109q-14 -16 -30 -16h-32q-12 0 -12 7q0 1 4 9z" />
    <glyph glyph-name="Delta" unicode="&#x394;" horiz-adv-x="680" 
d="M141 78h406l-203 578zM652 0h-617q-15 0 -15 16v4q0 1 0.5 3.5t0.5 4.5l261 691q11 31 37 31h50q26 0 37 -31l260 -691q2 -6 2 -8v-4q0 -16 -16 -16z" />
    <glyph glyph-name="Delta" unicode="&#x2206;" horiz-adv-x="680" 
d="M141 78h406l-203 578zM652 0h-617q-15 0 -15 16v4q0 1 0.5 3.5t0.5 4.5l261 691q11 31 37 31h50q26 0 37 -31l260 -691q2 -6 2 -8v-4q0 -16 -16 -16z" />
    <glyph glyph-name="Omega" unicode="&#x3a9;" horiz-adv-x="734" 
d="M470 91q56 49 86 126.5t30 165.5q0 293 -219 293t-219 -293q0 -89 30 -166t88 -126q31 -28 31 -48v-12q0 -31 -31 -31h-180q-31 0 -31 31v20q0 31 31 31h86q-117 117 -117 301q0 182 80 278.5t232 96.5t232.5 -96.5t80.5 -278.5q0 -184 -117 -301h85q32 0 32 -31v-20
q0 -31 -32 -31h-178q-32 0 -32 31v12q0 21 32 48z" />
    <glyph glyph-name="Omega" unicode="&#x2126;" horiz-adv-x="734" 
d="M470 91q56 49 86 126.5t30 165.5q0 293 -219 293t-219 -293q0 -89 30 -166t88 -126q31 -28 31 -48v-12q0 -31 -31 -31h-180q-31 0 -31 31v20q0 31 31 31h86q-117 117 -117 301q0 182 80 278.5t232 96.5t232.5 -96.5t80.5 -278.5q0 -184 -117 -301h85q32 0 32 -31v-20
q0 -31 -32 -31h-178q-32 0 -32 31v12q0 21 32 48z" />
    <glyph glyph-name="pi" unicode="&#x3c0;" horiz-adv-x="613" 
d="M523 516v-485q0 -31 -31 -31h-23q-32 0 -32 31v438h-257v-438q0 -31 -32 -31h-23q-31 0 -31 31v485q0 31 31 31h367q31 0 31 -31z" />
    <glyph glyph-name="endash" unicode="&#x2013;" horiz-adv-x="500" 
d="M437 328h-374q-32 0 -32 31v16q0 31 31 31h375q32 0 32 -31v-16q0 -31 -32 -31z" />
    <glyph glyph-name="emdash" unicode="&#x2014;" horiz-adv-x="1000" 
d="M937 328h-874q-32 0 -32 31v16q0 31 31 31h875q32 0 32 -31v-16q0 -31 -32 -31z" />
    <glyph glyph-name="quoteleft" unicode="&#x2018;" horiz-adv-x="273" 
d="M211 729l-44 -167q-8 -31 -37 -31h-34q-31 0 -31 31q0 18 6 29l76 139q10 20 25 20h22q18 0 18 -15q0 -4 -1 -6z" />
    <glyph glyph-name="quoteright" unicode="&#x2019;" horiz-adv-x="273" 
d="M62 552l44 167q8 31 38 31h34q30 0 30 -31q0 -18 -6 -29l-76 -139q-10 -20 -24 -20h-23q-17 0 -17 15v6z" />
    <glyph glyph-name="quotesinglbase" unicode="&#x201a;" horiz-adv-x="273" 
d="M57 -104l44 166q6 32 37 32h34q30 0 30 -32q0 -17 -6 -28l-76 -139q-10 -20 -24 -20h-23q-17 0 -17 15q0 4 1 6z" />
    <glyph glyph-name="quotedblleft" unicode="&#x201c;" horiz-adv-x="461" 
d="M403 729l-44 -167q-8 -31 -37 -31h-34q-30 0 -30 31q0 18 6 29l76 139q10 20 24 20h23q17 0 17 -15q0 -4 -1 -6zM216 729l-44 -167q-8 -31 -37 -31h-34q-31 0 -31 31q0 18 6 29l76 139q10 20 25 20h22q18 0 18 -15q0 -4 -1 -6z" />
    <glyph glyph-name="quotedblright" unicode="&#x201d;" horiz-adv-x="461" 
d="M62 552l44 167q8 31 38 31h34q30 0 30 -31q0 -18 -6 -29l-76 -139q-10 -20 -24 -20h-23q-17 0 -17 15v6zM250 552l44 167q8 31 37 31h34q31 0 31 -31q0 -18 -6 -29l-77 -139q-8 -20 -24 -20h-22q-18 0 -18 15q0 4 1 6z" />
    <glyph glyph-name="quotedblbase" unicode="&#x201e;" horiz-adv-x="461" 
d="M58 -104l44 166q6 32 37 32h34q30 0 30 -32q0 -17 -6 -28l-76 -139q-10 -20 -24 -20h-23q-17 0 -17 15q0 4 1 6zM245 -104l44 166q8 32 37 32h34q31 0 31 -32q0 -17 -6 -28l-76 -139q-10 -20 -25 -20h-22q-18 0 -18 15q0 4 1 6z" />
    <glyph glyph-name="dagger" unicode="&#x2020;" horiz-adv-x="516" 
d="M215 547v171q0 32 31 32h24q31 0 31 -31v-172h121q31 0 31 -31v-16q0 -31 -31 -31h-121v-563q0 -31 -31 -31h-24q-31 0 -31 31v563h-120q-33 0 -33 31v16q0 31 32 31h121z" />
    <glyph glyph-name="daggerdbl" unicode="&#x2021;" horiz-adv-x="516" 
d="M215 547v171q0 32 31 32h24q31 0 31 -31v-172h121q31 0 31 -31v-16q0 -31 -31 -31h-121v-313h121q31 0 31 -31v-16q0 -31 -31 -31h-121v-172q0 -31 -31 -31h-24q-31 0 -31 31v172h-120q-33 0 -33 31v16q0 31 32 31h121v313h-120q-33 0 -33 31v16q0 31 32 31h121z" />
    <glyph glyph-name="bullet" unicode="&#x2022;" horiz-adv-x="500" 
d="M250 125q-76 0 -131.5 49.5t-55.5 138.5t55.5 138t131.5 49t132 -49t56 -138t-56 -138.5t-132 -49.5z" />
    <glyph glyph-name="ellipsis" unicode="&#x2026;" horiz-adv-x="832" 
d="M184 62v-31q0 -31 -32 -31h-31q-31 0 -31 31v31q0 32 31 32h31q32 0 32 -32zM461 62v-31q0 -31 -31 -31h-32q-31 0 -31 31v31q0 32 31 32h32q31 0 31 -32zM742 62v-31q0 -31 -31 -31h-31q-32 0 -32 31v31q0 32 32 32h31q31 0 31 -32z" />
    <glyph glyph-name="perthousand" unicode="&#x2030;" horiz-adv-x="1320" 
d="M260 23l357 704q12 23 31 23h14q19 0 19 -13q0 -5 -3 -10l-358 -704q-12 -23 -31 -23h-14q-18 0 -18 13q0 5 3 10zM238 320q-87 0 -128 53.5t-41 163.5q0 111 41 164.5t128 53.5t128 -53.5t41 -164.5q0 -110 -41 -163.5t-128 -53.5zM238 381q52 0 72.5 35t20.5 121
t-20.5 122t-72.5 36t-72 -35.5t-20 -122.5q0 -84 20.5 -120t71.5 -36zM699 -4q-87 0 -128 53t-41 164q0 110 41 164t128 54q169 0 169 -218q0 -110 -41.5 -163.5t-127.5 -53.5zM699 57q52 0 72.5 35t20.5 121t-20.5 122t-72.5 36t-72.5 -36t-20.5 -122q0 -83 20.5 -119.5
t72.5 -36.5zM1114 -4q-87 0 -128 53t-41 164q0 110 41 164t128 54q169 0 169 -218q0 -110 -41.5 -163.5t-127.5 -53.5zM1114 57q52 0 72.5 35t20.5 121t-20.5 122t-72.5 36t-72.5 -36t-20.5 -122q0 -83 20.5 -119.5t72.5 -36.5z" />
    <glyph glyph-name="guilsinglleft" unicode="&#x2039;" horiz-adv-x="336" 
d="M94 394l156 133q9 8 18 8q13 0 13 -21v-38q0 -23 -31 -48l-109 -92l109 -91q31 -25 31 -48v-38q0 -22 -14 -22q-8 0 -17 8l-156 133q-32 29 -32 49v19q0 21 32 48z" />
    <glyph glyph-name="guilsinglright" unicode="&#x203a;" horiz-adv-x="336" 
d="M86 527l156 -133q31 -26 31 -48v-19q0 -21 -31 -49l-156 -133q-9 -8 -17 -8q-14 0 -14 22v38q0 23 31 48l109 91l-109 92q-31 25 -31 48v38q0 21 13 21q9 0 18 -8z" />
    <glyph glyph-name="fraction" unicode="&#x2044;" horiz-adv-x="8" 
d="M-209 23l357 704q12 23 32 23h13q19 0 19 -13q0 -5 -3 -10l-357 -704q-12 -23 -32 -23h-13q-19 0 -19 13q0 5 3 10z" />
    <glyph glyph-name="fraction" unicode="&#x2215;" horiz-adv-x="8" 
d="M-209 23l357 704q12 23 32 23h13q19 0 19 -13q0 -5 -3 -10l-357 -704q-12 -23 -32 -23h-13q-19 0 -19 13q0 5 3 10z" />
    <glyph glyph-name="uni2070" unicode="&#x2070;" horiz-adv-x="412" 
d="M202 320q-87 0 -128 53.5t-41 163.5q0 111 41 164.5t128 53.5q86 0 127.5 -53.5t41.5 -164.5q0 -110 -41.5 -163.5t-127.5 -53.5zM202 381q51 0 72 35.5t21 120.5q0 86 -21 122t-72 36q-52 0 -72.5 -36t-20.5 -122q0 -83 20.5 -119.5t72.5 -36.5z" />
    <glyph glyph-name="uni2074" unicode="&#x2074;" horiz-adv-x="412" 
d="M321 571v-94h33q28 0 28 -26v-9q0 -23 -28 -23h-33v-70q0 -25 -28 -25h-20q-28 0 -28 25v70h-193q-29 0 -29 23v5q0 18 7 27q66 82 111 254q7 22 30 22h20q27 0 27 -21q0 -7 -8 -34q-30 -106 -101 -218h136v94q0 26 28 26h20q28 0 28 -26z" />
    <glyph glyph-name="uni2075" unicode="&#x2075;" horiz-adv-x="412" 
d="M335 726v-11q0 -25 -27 -25h-174v-93h58q163 0 163 -130q0 -63 -40 -103t-123 -40h-112q-27 0 -27 25v10q0 26 27 26h112q88 0 88 82q0 39 -20.5 54t-67.5 15h-101q-28 0 -28 26v164q0 24 28 24h217q27 0 27 -24z" />
    <glyph glyph-name="uni2076" unicode="&#x2076;" horiz-adv-x="412" 
d="M320 726v-11q0 -25 -28 -25h-51q-123 0 -123 -101v-14q59 22 94 22q78 0 113.5 -33.5t35.5 -103.5q0 -64 -38.5 -102t-120.5 -38q-78 0 -118.5 36t-40.5 104v129q0 71 50.5 116t147.5 45h51q28 0 28 -24zM202 381q40 0 61 18t21 61q0 42 -17 59t-55 17q-45 0 -94 -17v-59
q0 -79 84 -79z" />
    <glyph glyph-name="uni2077" unicode="&#x2077;" horiz-adv-x="412" 
d="M209 392v-43q0 -11 -7.5 -18t-19.5 -7h-21q-12 0 -19.5 7t-7.5 18v35q0 163 145 306h-218q-29 0 -29 25v11q0 24 29 24h282q28 0 28 -24v-7q0 -15 -12 -25q-150 -136 -150 -302z" />
    <glyph glyph-name="uni2078" unicode="&#x2078;" horiz-adv-x="412" 
d="M192 320q-71 0 -112.5 30t-41.5 92q0 36 15.5 55.5t49.5 42.5l9 7q-64 32 -64 96q0 59 40.5 85.5t103.5 26.5h20q143 0 143 -112q0 -30 -14.5 -49.5t-43.5 -42.5l-5 -4q38 -17 56 -40.5t18 -64.5q0 -58 -44 -90t-110 -32h-20zM196 383h10q84 0 84 59q0 43 -50 60l-61 20
l-23 -13q-43 -27 -43 -67q0 -35 21.5 -47t61.5 -12zM228 569l9 8q15 12 22.5 19t14 19.5t6.5 27.5q0 30 -17.5 41.5t-50.5 11.5h-20q-34 0 -51.5 -11.5t-17.5 -41.5q0 -37 45 -53z" />
    <glyph glyph-name="uni2079" unicode="&#x2079;" horiz-adv-x="412" 
d="M110 324q-12 0 -19.5 7t-7.5 18v10q0 26 27 26h51q123 0 123 100v13q-48 -20 -92 -20q-149 0 -149 136q0 63 39.5 102t119.5 39q79 0 119 -36.5t40 -104.5v-129q0 -71 -51 -116t-149 -45h-51zM192 538q43 0 92 19v57q0 81 -82 81q-84 0 -84 -81q0 -41 18 -58.5t56 -17.5z
" />
    <glyph glyph-name="uni2080" unicode="&#x2080;" horiz-adv-x="412" 
d="M202 -4q-87 0 -128 53t-41 164q0 110 41 164t128 54q169 0 169 -218q0 -110 -41.5 -163.5t-127.5 -53.5zM202 57q51 0 72 35.5t21 120.5q0 86 -21 122t-72 36q-52 0 -72.5 -36t-20.5 -122q0 -83 20.5 -119.5t72.5 -36.5z" />
    <glyph glyph-name="uni2081" unicode="&#x2081;" horiz-adv-x="412" 
d="M195 353l-110 -39q-8 -2 -11 -2q-20 0 -20 22v15q0 20 24 28l129 45q11 4 29 4h5q30 0 30 -25v-377q0 -24 -30 -24h-18q-28 0 -28 24v329z" />
    <glyph glyph-name="uni2082" unicode="&#x2082;" horiz-adv-x="412" 
d="M328 0h-253q-12 0 -19.5 6.5t-7.5 17.5v38q0 90 100 138l55 27q40 19 56 34t16 44q0 35 -21 48t-62 13h-106q-27 0 -27 25v10q0 25 27 25h106q159 0 159 -121q0 -43 -28.5 -73.5t-82.5 -54.5l-55 -26q-37 -17 -49.5 -38t-12.5 -52h205q27 0 27 -26v-11q0 -24 -27 -24z
" />
    <glyph glyph-name="uni2083" unicode="&#x2083;" horiz-adv-x="412" 
d="M192 195h-60q-28 0 -28 25v10q0 25 27 25h91q53 25 53 61q0 28 -21 38t-67 10h-106q-28 0 -28 25v12q0 25 27 25h112q159 0 159 -99q0 -32 -11 -52t-43 -40q64 -30 64 -103q0 -63 -48.5 -97.5t-125.5 -34.5h-106q-28 0 -28 24v11q0 26 27 26h107q45 0 71 18t26 53
q0 34 -23 48.5t-69 14.5z" />
    <glyph glyph-name="uni2084" unicode="&#x2084;" horiz-adv-x="412" 
d="M321 247v-95h33q28 0 28 -25v-9q0 -23 -28 -23h-33v-71q0 -24 -28 -24h-20q-28 0 -28 24v71h-193q-29 0 -29 23v5q0 19 7 26q66 84 111 254q7 23 30 23h20q27 0 27 -22q0 -6 -8 -33q-30 -105 -101 -219h136v95q0 25 28 25h20q28 0 28 -25z" />
    <glyph glyph-name="uni2085" unicode="&#x2085;" horiz-adv-x="412" 
d="M335 401v-10q0 -25 -27 -25h-174v-94h58q163 0 163 -129q0 -63 -40 -103t-123 -40h-112q-27 0 -27 24v11q0 26 27 26h112q88 0 88 82q0 38 -21 53.5t-67 15.5h-101q-28 0 -28 25v164q0 25 28 25h217q27 0 27 -25z" />
    <glyph glyph-name="uni2086" unicode="&#x2086;" horiz-adv-x="412" 
d="M320 401v-10q0 -25 -28 -25h-51q-123 0 -123 -101v-14q57 21 94 21q78 0 113.5 -33.5t35.5 -102.5q0 -64 -38.5 -102t-120.5 -38q-78 0 -118.5 36t-40.5 104v129q0 71 50.5 116t147.5 45h51q28 0 28 -25zM202 57q40 0 61 18t21 61q0 41 -17 58.5t-55 17.5q-47 0 -94 -18
v-58q0 -79 84 -79z" />
    <glyph glyph-name="uni2087" unicode="&#x2087;" horiz-adv-x="412" 
d="M209 67v-43q0 -11 -7.5 -17.5t-19.5 -6.5h-21q-12 0 -19.5 6.5t-7.5 17.5v36q0 163 145 306h-218q-29 0 -29 25v10q0 25 29 25h282q28 0 28 -25v-6q0 -15 -12 -25q-150 -136 -150 -303z" />
    <glyph glyph-name="uni2088" unicode="&#x2088;" horiz-adv-x="412" 
d="M192 -4q-71 0 -112.5 30t-41.5 92q0 25 10 44t20.5 28t34.5 26l9 7q-64 32 -64 95q0 59 40.5 86t103.5 27h20q143 0 143 -113q0 -30 -14 -49t-44 -42l-5 -4q38 -17 56 -40.5t18 -64.5q0 -58 -44 -90t-110 -32h-20zM196 59h10q40 0 62 12.5t22 46.5q0 43 -50 60l-61 20
l-23 -13q-43 -27 -43 -67q0 -35 21.5 -47t61.5 -12zM228 245l9 8q22 16 32.5 30t10.5 35q0 54 -68 54h-20q-69 0 -69 -54q0 -37 45 -52z" />
    <glyph glyph-name="uni2089" unicode="&#x2089;" horiz-adv-x="412" 
d="M110 0q-12 0 -19.5 6.5t-7.5 17.5v11q0 26 27 26h51q123 0 123 100v13q-50 -21 -92 -21q-149 0 -149 137q0 63 39.5 102t119.5 39q79 0 119 -36.5t40 -104.5v-129q0 -71 -51 -116t-149 -45h-51zM192 214q40 0 92 18v58q0 81 -82 81q-84 0 -84 -81q0 -41 18 -58.5
t56 -17.5z" />
    <glyph glyph-name="Euro" unicode="&#x20ac;" 
d="M62 496h63v4q0 116 78 187t188 71h23q61 0 118 -19q31 -9 31 -38v-19q0 -27 -20 -27q-3 0 -11 2q-59 19 -118 19h-23q-72 0 -122 -44t-50 -132v-4h261q32 0 32 -31v-20q0 -31 -32 -31h-261v-78h261q32 0 32 -31v-20q0 -31 -32 -31h-261v-4q0 -83 51 -129.5t121 -46.5h31
q56 0 110 22q6 3 12 3q19 0 19 -27v-19q0 -28 -31 -39q-56 -22 -110 -22h-31q-114 0 -190 65t-76 193v4h-63q-31 0 -31 31v20q0 31 31 31h63v78h-63q-31 0 -31 31v20q0 31 31 31z" />
    <glyph glyph-name="trademark" unicode="&#x2122;" horiz-adv-x="758" 
d="M266 691h-75v-316q0 -23 -23 -23h-23q-24 0 -24 23v316h-74q-24 0 -24 24v12q0 23 24 23h219q23 0 23 -23v-12q0 -24 -23 -24zM680 727v-352q0 -23 -24 -23h-23q-24 0 -24 23v227l-78 -114q-8 -11 -19 -11h-8q-13 0 -21 11l-77 106v-219q0 -23 -23 -23h-24q-23 0 -23 23
v352q0 23 23 23h20q13 0 17 -9l117 -167l107 168q5 8 17 8h19q24 0 24 -23z" />
    <glyph glyph-name="partialdiff" unicode="&#x2202;" 
d="M313 74q140 0 140 160v114q-72 39 -156 39q-66 0 -95.5 -34.5t-29.5 -118.5q0 -87 36 -123.5t105 -36.5zM250 668h-77q-32 0 -32 31v20q0 31 31 31h78q146 0 221.5 -78.5t75.5 -202.5v-235q0 -118 -59 -180t-175 -62q-122 0 -178.5 66t-56.5 176q0 120 52 177.5t167 57.5
q63 0 156 -43v43q0 199 -203 199z" />
    <glyph glyph-name="product" unicode="&#x220f;" horiz-adv-x="742" 
d="M648 719v-688q0 -31 -31 -31h-31q-31 0 -31 31v637h-368v-637q0 -31 -31 -31h-31q-31 0 -31 31v688q0 31 31 31h492q31 0 31 -31z" />
    <glyph glyph-name="summation" unicode="&#x2211;" horiz-adv-x="609" 
d="M516 668h-317l196 -262q11 -20 11 -27v-8q0 -7 -11 -27l-196 -262h317q31 0 31 -31v-20q0 -31 -31 -31h-391q-31 0 -31 31v31q0 19 11 36l208 277l-208 277q-11 16 -11 32v35q0 31 31 31h391q31 0 31 -31v-20q0 -31 -31 -31z" />
    <glyph glyph-name="minus" unicode="&#x2212;" 
d="M125 406h375q31 0 31 -31v-16q0 -31 -31 -31h-375q-31 0 -31 31v16q0 31 31 31z" />
    <glyph glyph-name="radical" unicode="&#x221a;" 
d="M192 31l-165 485q-4 14 3 22.5t22 8.5h19q27 0 37 -31l134 -399l215 570q11 32 38 32h99q31 0 31 -32v-15q0 -31 -31 -31h-82l-227 -610q-11 -31 -37 -31h-19q-26 0 -37 31z" />
    <glyph glyph-name="infinity" unicode="&#x221e;" horiz-adv-x="598" 
d="M133 188q-60 0 -88.5 45t-28.5 111t28.5 111t88.5 45q35 0 61.5 -17.5t67.5 -68.5l31 -39q40 51 86 88t82 37q60 0 88.5 -44t28.5 -112q0 -66 -28.5 -111t-88.5 -45q-36 0 -66.5 18.5t-66.5 63.5l-35 43q-93 -125 -160 -125zM461 234q70 0 70 110q0 109 -70 109
q-26 0 -67.5 -31.5t-77.5 -73.5l39 -47q57 -67 106 -67zM133 234q56 0 137 106l-36 43q-58 70 -101 70q-70 0 -70 -109q0 -52 20 -81t50 -29z" />
    <glyph glyph-name="integral" unicode="&#x222b;" horiz-adv-x="344" 
d="M328 672h-39q-52 0 -73 -24t-21 -78v-578q0 -87 -44.5 -133.5t-127.5 -46.5h-31q-31 0 -31 32v15q0 32 31 32h31q52 0 73 25.5t21 79.5v574q0 87 48.5 133.5t131.5 46.5h31q31 0 31 -31v-16q0 -31 -31 -31z" />
    <glyph glyph-name="approxequal" unicode="&#x2248;" 
d="M531 454q0 -24 -31 -51q-39 -32 -86 -32q-37 0 -109 33t-98 33q-51 0 -82 -36q-12 -12 -20 -12q-11 0 -11 20v23q0 23 31 50q36 34 86 34q37 0 109 -33.5t98 -33.5q52 0 82 32q12 13 20 13q11 0 11 -20v-20zM531 235q0 -25 -31 -50q-38 -33 -86 -33q-37 0 -109 33.5
t-98 33.5q-49 0 -82 -36q-12 -13 -20 -13q-11 0 -11 20v23q0 23 31 51q36 33 86 33q37 0 109 -33.5t98 -33.5q52 0 82 33q12 12 20 12q11 0 11 -20v-20z" />
    <glyph glyph-name="notequal" unicode="&#x2260;" 
d="M190 125l32 94h-97q-31 0 -31 31v16q0 31 31 31h124l48 140h-172q-31 0 -31 32v15q0 32 31 32h199l32 93q11 32 39 32h15q27 0 27 -21q0 -3 -2 -11l-32 -93h97q31 0 31 -32v-15q0 -32 -31 -32h-124l-48 -140h172q31 0 31 -31v-16q0 -31 -31 -31h-199l-32 -94
q-11 -31 -39 -31h-15q-27 0 -27 20q0 3 2 11z" />
    <glyph glyph-name="lessequal" unicode="&#x2264;" 
d="M125 422l375 195q7 4 14 4q17 0 17 -24v-25q0 -26 -31 -41l-328 -164l328 -163q31 -16 31 -41v-24q0 -26 -18 -26q-3 0 -13 4l-375 195q-31 17 -31 42v26q0 25 31 42zM125 0h375q31 0 31 -31v-16q0 -31 -31 -31h-375q-31 0 -31 31v16q0 31 31 31z" />
    <glyph glyph-name="greaterequal" unicode="&#x2265;" 
d="M125 0h375q31 0 31 -31v-16q0 -31 -31 -31h-375q-31 0 -31 31v16q0 31 31 31zM125 617l375 -195q31 -17 31 -42v-26q0 -25 -31 -42l-375 -195q-10 -4 -13 -4q-18 0 -18 26v24q0 25 31 41l328 163l-328 164q-31 15 -31 41v25q0 24 17 24q7 0 14 -4z" />
    <glyph glyph-name="lozenge" unicode="&#x25ca;" horiz-adv-x="703" 
d="M352 121l214 254l-214 254l-215 -254zM53 400l273 321q11 14 24 15h3q13 -2 24 -15l273 -321q13 -15 13 -24v-3q0 -10 -13 -23l-273 -321q-12 -15 -24 -15h-3q-12 0 -24 15l-273 321q-13 13 -13 23v3q0 9 13 24z" />
    <glyph glyph-name="dotlessj" unicode="&#xf6be;" horiz-adv-x="297" 
d="M-26 -188q-32 0 -32 32v15q0 32 33 32h12q72 0 101 38t29 118v422h-61q-32 0 -32 31v16q0 31 32 31h116q14 0 22.5 -8t8.5 -22v-454q0 -130 -54.5 -190.5t-174.5 -60.5z" />
    <glyph glyph-name="commaaccent" unicode="&#xf6c3;" horiz-adv-x="124" 
d="M2 -172l30 109q6 24 28 24h41q23 0 23 -24v-7q0 -18 -10 -32l-45 -70q-13 -23 -34 -23h-15q-20 0 -20 14q0 3 2 9z" />
    <glyph glyph-name="CR" horiz-adv-x="200" 
 />
    <glyph glyph-name="a.superior" horiz-adv-x="507" 
d="M185 323q-60 0 -97 36t-37 109v65q0 97 73.5 157t174.5 60h100q28 0 28 -23v-373q0 -25 -28 -25h-19q-27 0 -27 25v53l-34 -29q-64 -55 -134 -55zM326 449l27 26v215h-54q-77 0 -126 -42.5t-49 -114.5v-65q0 -85 74 -85q51 0 128 66z" />
    <glyph glyph-name="b.superior" horiz-adv-x="507" 
d="M208 329h-101q-26 0 -26 25v529q0 23 26 23h21q26 0 26 -23v-211l34 30q63 54 134 54q60 0 97.5 -35.5t37.5 -108.5v-66q0 -96 -74.5 -156.5t-174.5 -60.5zM182 630l-28 -25v-215h54q77 0 126 42t49 114v66q0 84 -74 84q-55 0 -127 -66z" />
    <glyph glyph-name="c.superior" horiz-adv-x="430" 
d="M387 727v-85q0 -24 -28 -24h-13q-27 0 -27 24v42q-26 12 -67 12q-55 0 -91.5 -29.5t-36.5 -90.5v-72q0 -58 33.5 -89.5t94.5 -31.5q41 0 98 17q8 3 14 3q16 0 16 -15v-18q0 -11 -3 -16t-14 -10q-49 -21 -111 -21q-93 0 -147 46t-54 135v72q0 83 60 131.5t141 48.5
q77 0 135 -29z" />
    <glyph glyph-name="d.superior" horiz-adv-x="507" 
d="M185 323q-60 0 -97 36t-37 109v65q0 97 73.5 157t174.5 60h54v133q0 23 27 23h19q28 0 28 -23v-529q0 -25 -28 -25h-19q-27 0 -27 25v53l-34 -29q-64 -55 -134 -55zM124 533v-65q0 -85 74 -85q51 0 128 66l27 26v215h-54q-77 0 -126 -42.5t-49 -114.5z" />
    <glyph glyph-name="e.superior" horiz-adv-x="457" 
d="M252 323q-91 0 -146 41t-55 127v85q0 83 56.5 131.5t144.5 48.5q74 0 117.5 -29.5t43.5 -90.5q0 -56 -38.5 -88t-108.5 -32h-142v-25q0 -108 128 -108q44 0 107 18q8 2 12 2q16 0 16 -14v-18q0 -12 -3 -17t-15 -10q-4 -2 -20 -6.5t-44.5 -9.5t-52.5 -5zM124 570h121
q53 0 73.5 16t20.5 50q0 60 -87 60q-128 0 -128 -120v-6z" />
    <glyph glyph-name="f.superior" horiz-adv-x="296" 
d="M282 847h-27q-44 0 -62 -18.5t-18 -59.5v-19h94q27 0 27 -23v-13q0 -24 -27 -24h-94v-336q0 -25 -28 -25h-19q-27 0 -27 25v336h-46q-28 0 -28 24v13q0 23 27 23h47v19q0 66 41.5 101.5t112.5 35.5h27q27 0 27 -23v-13q0 -23 -27 -23z" />
    <glyph glyph-name="g.superior" horiz-adv-x="507" 
d="M353 378v18l-17 -8q-70 -34 -138 -34q-65 0 -106 38.5t-41 114.5v26q0 101 67.5 159t166.5 58h114q28 0 28 -23v-344q0 -105 -65 -151.5t-191 -46.5h-54q-26 0 -26 24v12q0 24 26 24h54q97 0 139.5 30t42.5 103zM339 443l14 6v241h-68q-75 0 -118 -42t-43 -115v-26
q0 -94 88 -94q60 0 127 30z" />
    <glyph glyph-name="h.superior" horiz-adv-x="527" 
d="M154 883v-211l34 30q61 54 134 54q128 0 128 -144v-258q0 -25 -27 -25h-20q-27 0 -27 25v258q0 84 -73 84q-49 0 -121 -66l-28 -25v-251q0 -25 -26 -25h-21q-26 0 -26 25v529q0 23 26 23h21q26 0 26 -23z" />
    <glyph glyph-name="i.superior" horiz-adv-x="249" 
d="M168 727v-373q0 -25 -27 -25h-20q-27 0 -27 25v336h-53q-26 0 -26 24v13q0 23 25 23h101q27 0 27 -23zM168 883v-25q0 -24 -27 -24h-20q-27 0 -27 24v25q0 23 27 23h20q27 0 27 -23z" />
    <glyph glyph-name="j.superior" horiz-adv-x="255" 
d="M-22 185q-28 0 -28 24v12q0 24 29 24h10q61 0 86.5 29.5t25.5 90.5v325h-53q-27 0 -27 24v13q0 23 27 23h99q28 0 28 -23v-349q0 -100 -47 -146.5t-150 -46.5zM175 883v-25q0 -24 -28 -24h-19q-27 0 -27 24v25q0 23 27 23h19q28 0 28 -23z" />
    <glyph glyph-name="k.superior" horiz-adv-x="464" 
d="M154 883v-295h47l132 139q25 23 42 23h33q21 0 21 -12q0 -6 -6 -11l-161 -166l170 -207q5 -6 5 -13q0 -12 -16 -12h-38q-19 0 -39 25l-143 173h-47v-173q0 -25 -26 -25h-21q-26 0 -26 25v529q0 23 26 23h21q26 0 26 -23z" />
    <glyph glyph-name="l.superior" horiz-adv-x="235" 
d="M154 883v-529q0 -25 -26 -25h-21q-26 0 -26 25v493h-53q-26 0 -26 23v13q0 23 25 23h101q26 0 26 -23z" />
    <glyph glyph-name="m.superior" horiz-adv-x="823" 
d="M154 727v-55l34 30q61 54 134 54q93 0 119 -78h12l28 24q63 54 137 54q128 0 128 -144v-258q0 -25 -27 -25h-20q-27 0 -27 25v258q0 84 -74 84q-47 0 -121 -66l-27 -25v-251q0 -25 -27 -25h-20q-27 0 -27 25v258q0 84 -73 84q-49 0 -121 -66l-28 -25v-251q0 -25 -26 -25
h-21q-26 0 -26 25v373q0 23 26 23h21q26 0 26 -23z" />
    <glyph glyph-name="n.superior" horiz-adv-x="527" 
d="M154 727v-55l34 30q61 54 134 54q128 0 128 -144v-258q0 -25 -27 -25h-20q-27 0 -27 25v258q0 84 -73 84q-49 0 -121 -66l-28 -25v-251q0 -25 -26 -25h-21q-26 0 -26 25v373q0 23 26 23h21q26 0 26 -23z" />
    <glyph glyph-name="o.superior" horiz-adv-x="504" 
d="M252 383q131 0 131 163q0 74 -29.5 112t-101.5 38t-101.5 -38t-29.5 -112q0 -163 131 -163zM252 323q-205 0 -205 223q0 97 52 153.5t153 56.5q104 0 154.5 -55.5t50.5 -154.5q0 -106 -51.5 -164.5t-153.5 -58.5z" />
    <glyph glyph-name="p.superior" horiz-adv-x="507" 
d="M154 329v-120q0 -24 -26 -24h-21q-26 0 -26 24v518q0 23 26 23h21q26 0 26 -23v-55l34 30q63 54 134 54q60 0 97.5 -35.5t37.5 -108.5v-66q0 -96 -74.5 -156.5t-174.5 -60.5h-54zM154 390h54q77 0 126 42t49 114v66q0 84 -74 84q-55 0 -127 -66l-28 -25v-215z" />
    <glyph glyph-name="q.superior" horiz-adv-x="507" 
d="M185 323q-60 0 -97 36t-37 109v65q0 97 73.5 157t174.5 60h100q28 0 28 -23v-518q0 -24 -28 -24h-19q-27 0 -27 24v198l-34 -29q-64 -55 -134 -55zM124 533v-65q0 -85 74 -85q51 0 128 66l27 26v215h-54q-77 0 -126 -42.5t-49 -114.5z" />
    <glyph glyph-name="r.superior" horiz-adv-x="343" 
d="M303 678h-7q-55 0 -88 -31l-54 -47v-246q0 -25 -26 -25h-21q-26 0 -26 25v373q0 23 26 23h21q26 0 26 -23v-70l8 10q59 83 137 83h4q26 0 26 -23v-25q0 -24 -26 -24z" />
    <glyph glyph-name="s.superior" horiz-adv-x="443" 
d="M242 696q-107 0 -107 -60q0 -17 8.5 -27.5t20 -14.5t31.5 -8q4 -1 6 -1l58 -13q63 -13 97 -40t34 -83q0 -65 -53.5 -95.5t-135.5 -30.5q-79 0 -117 11q-13 2 -17 6.5t-4 15.5v21q0 18 22 18q6 0 9 -1q1 0 12.5 -2t23.5 -4t32 -3.5t39 -1.5q114 0 114 66q0 44 -73 61
l-71 14q-110 24 -110 112q0 56 48.5 88t132.5 32q76 0 104 -8q13 -3 16.5 -7t3.5 -15v-22q0 -17 -21 -17q-3 0 -37 4.5t-66 4.5z" />
    <glyph glyph-name="t.superior" horiz-adv-x="350" 
d="M255 390h41q26 0 26 -25v-11q0 -25 -26 -25h-41q-71 0 -112.5 36t-41.5 103v222h-47q-27 0 -27 24v13q0 23 28 23h46v72q0 25 27 25h19q28 0 28 -25v-72h107q27 0 27 -23v-13q0 -24 -27 -24h-107v-222q0 -37 20.5 -57.5t59.5 -20.5z" />
    <glyph glyph-name="u.superior" horiz-adv-x="527" 
d="M373 354v53l-34 -30q-59 -54 -134 -54q-128 0 -128 145v259q0 23 27 23h20q27 0 27 -23v-259q0 -85 74 -85q21 0 48 14t38 22.5t35 29.5l27 25v253q0 23 26 23h21q27 0 27 -23v-373q0 -25 -27 -25h-21q-26 0 -26 25z" />
    <glyph glyph-name="v.superior" horiz-adv-x="450" 
d="M403 727v-85q0 -97 -48 -187.5t-93 -125.5h-80q-44 34 -89.5 124.5t-45.5 188.5v85q0 23 27 23h20q27 0 27 -23v-85q0 -84 31 -155.5t73 -108.5q42 37 73 108.5t31 155.5v85q0 23 27 23h20q27 0 27 -23z" />
    <glyph glyph-name="w.superior" horiz-adv-x="651" 
d="M604 727v-85q0 -100 -36.5 -188t-77.5 -125h-80q-21 23 -49 69t-35 77q-8 -32 -35.5 -78.5t-48.5 -67.5h-80q-42 37 -78.5 125t-36.5 188v85q0 23 27 23h20q27 0 27 -23v-85q0 -84 25 -155.5t59 -108.5q34 37 59 108.5t25 155.5v85q0 23 26 23h21q27 0 27 -23v-85
q0 -85 25 -156t59 -108q34 37 59 108.5t25 155.5v85q0 23 27 23h20q26 0 26 -23z" />
    <glyph glyph-name="x.superior" horiz-adv-x="430" 
d="M257 545l139 -191q4 -7 4 -12q0 -13 -19 -13h-31q-22 0 -38 25l-98 134l-102 -134q-18 -25 -37 -25h-28q-17 0 -17 13q0 4 5 12l141 187l-135 186q-5 5 -5 10q0 13 21 13h31q19 0 37 -23l94 -130l98 130q18 23 37 23h27q19 0 19 -13q0 -6 -4 -10z" />
    <glyph glyph-name="y.superior" horiz-adv-x="527" 
d="M373 378v59l-34 -30q-58 -53 -136 -53q-126 0 -126 143v230q0 23 27 23h20q27 0 27 -23v-230q0 -84 72 -84q49 0 123 66l27 25v223q0 23 26 23h21q27 0 27 -23v-344q0 -105 -65 -151.5t-191 -46.5h-53q-27 0 -27 24v12q0 24 27 24h53q97 0 139.5 30t42.5 103z" />
    <glyph glyph-name="z.superior" horiz-adv-x="430" 
d="M376 329h-302q-25 0 -27 25v11q0 17 14 31q65 60 138 144.5t113 149.5h-224q-27 0 -27 24v13q0 23 26 23h282q27 0 27 -23v-13q0 -21 -5 -30q-31 -59 -115 -156.5t-135 -137.5h235q27 0 27 -25v-11q0 -25 -27 -25z" />
    <glyph glyph-name="zero.numerator" horiz-adv-x="508" 
d="M253 320q-87 0 -128 53.5t-41 163.5q0 111 41 164.5t128 53.5q86 0 127.5 -53.5t41.5 -164.5q0 -110 -41.5 -163.5t-127.5 -53.5zM253 381q51 0 72 35.5t21 120.5q0 86 -21 122t-72 36q-52 0 -72.5 -36t-20.5 -122q0 -83 20.5 -119.5t72.5 -36.5z" />
    <glyph glyph-name="one.numerator" horiz-adv-x="508" 
d="M246 677l-110 -38q-8 -2 -11 -2q-21 0 -21 21v15q0 20 25 28l129 45q11 4 29 4h5q29 0 29 -24v-377q0 -25 -29 -25h-19q-27 0 -27 25v328z" />
    <glyph glyph-name="two.numerator" horiz-adv-x="508" 
d="M379 324h-253q-27 0 -27 25v37q0 90 100 138l55 27q40 19 56 34t16 44q0 35 -21 48t-62 13h-106q-28 0 -28 25v11q0 24 28 24h106q158 0 158 -121q0 -78 -110 -128l-56 -25q-36 -17 -48.5 -39t-12.5 -52h205q27 0 27 -26v-10q0 -25 -27 -25z" />
    <glyph glyph-name="three.numerator" horiz-adv-x="508" 
d="M243 520h-60q-29 0 -29 24v11q0 24 28 24h90q54 26 54 62q0 28 -21 37.5t-68 9.5h-105q-28 0 -28 25v13q0 24 27 24h112q158 0 158 -99q0 -32 -10.5 -52t-42.5 -39q64 -32 64 -104q0 -63 -48.5 -97.5t-126.5 -34.5h-105q-28 0 -28 25v10q0 26 27 26h106q98 0 98 71
q0 64 -92 64z" />
    <glyph glyph-name="four.numerator" horiz-adv-x="508" 
d="M372 571v-94h33q28 0 28 -26v-9q0 -23 -28 -23h-33v-70q0 -25 -28 -25h-20q-28 0 -28 25v70h-193q-29 0 -29 23v5q0 18 7 27q67 84 110 254q7 22 31 22h20q27 0 27 -21q0 -7 -8 -34q-30 -106 -101 -218h136v94q0 26 28 26h20q28 0 28 -26z" />
    <glyph glyph-name="five.numerator" horiz-adv-x="508" 
d="M386 726v-11q0 -25 -28 -25h-173v-93h58q163 0 163 -130q0 -63 -40.5 -103t-122.5 -40h-112q-27 0 -27 25v10q0 26 27 26h112q88 0 88 82q0 39 -20.5 54t-67.5 15h-101q-28 0 -28 26v164q0 24 28 24h216q28 0 28 -24z" />
    <glyph glyph-name="six.numerator" horiz-adv-x="508" 
d="M371 726v-11q0 -25 -28 -25h-51q-123 0 -123 -101v-14q57 22 94 22q78 0 113.5 -33.5t35.5 -103.5q0 -64 -38.5 -102t-120.5 -38q-159 0 -159 140v129q0 71 50.5 116t147.5 45h51q28 0 28 -24zM253 381q40 0 61 18t21 61q0 42 -17 59t-55 17q-47 0 -94 -17v-59
q0 -79 84 -79z" />
    <glyph glyph-name="seven.numerator" horiz-adv-x="508" 
d="M260 392v-43q0 -25 -28 -25h-20q-27 0 -27 25v35q0 163 145 306h-219q-28 0 -28 25v11q0 24 28 24h283q28 0 28 -24v-7q0 -15 -12 -25q-150 -136 -150 -302z" />
    <glyph glyph-name="eight.numerator" horiz-adv-x="508" 
d="M243 320q-154 0 -154 122q0 36 15 55.5t49 42.5l10 7q-64 32 -64 96q0 59 40.5 85.5t103.5 26.5h20q143 0 143 -112q0 -30 -14.5 -49.5t-43.5 -42.5l-5 -4q38 -17 56 -40.5t18 -64.5q0 -58 -44 -90t-110 -32h-20zM247 383h10q84 0 84 59q0 43 -50 60l-62 20l-22 -13
q-43 -26 -43 -67q0 -35 21.5 -47t61.5 -12zM278 569l10 8q15 12 22.5 19t14 19.5t6.5 27.5q0 30 -17.5 41.5t-50.5 11.5h-20q-34 0 -51.5 -11.5t-17.5 -41.5q0 -38 45 -53z" />
    <glyph glyph-name="nine.numerator" horiz-adv-x="508" 
d="M161 324q-12 0 -19.5 7t-7.5 18v10q0 26 27 26h51q123 0 123 100v13q-48 -20 -92 -20q-149 0 -149 136q0 63 39.5 102t119.5 39q78 0 118.5 -36.5t40.5 -104.5v-129q0 -71 -51 -116t-149 -45h-51zM243 538q43 0 92 19v57q0 81 -82 81q-84 0 -84 -81q0 -41 17.5 -58.5
t56.5 -17.5z" />
    <glyph glyph-name="zero.denominator" horiz-adv-x="508" 
d="M253 -4q-87 0 -128 53t-41 164q0 110 41 164t128 54q169 0 169 -218q0 -110 -41.5 -163.5t-127.5 -53.5zM253 57q51 0 72 35.5t21 120.5q0 86 -21 122t-72 36q-52 0 -72.5 -36t-20.5 -122q0 -83 20.5 -119.5t72.5 -36.5z" />
    <glyph glyph-name="one.denominator" horiz-adv-x="508" 
d="M246 353l-110 -39q-8 -2 -11 -2q-21 0 -21 22v15q0 20 25 28l129 45q11 4 29 4h5q29 0 29 -25v-377q0 -24 -29 -24h-19q-27 0 -27 24v329z" />
    <glyph glyph-name="two.denominator" horiz-adv-x="508" 
d="M379 0h-253q-27 0 -27 24v38q0 90 100 138l55 27q40 19 56 34t16 44q0 35 -21 48t-62 13h-106q-28 0 -28 25v10q0 25 28 25h106q158 0 158 -121q0 -78 -110 -128l-56 -26q-36 -17 -48.5 -38.5t-12.5 -51.5h205q27 0 27 -26v-11q0 -24 -27 -24z" />
    <glyph glyph-name="three.denominator" horiz-adv-x="508" 
d="M243 195h-60q-29 0 -29 25v10q0 25 28 25h90q54 25 54 61q0 28 -21 38t-68 10h-105q-28 0 -28 25v12q0 25 27 25h112q158 0 158 -99q0 -32 -10.5 -52t-42.5 -40q64 -30 64 -103q0 -63 -48.5 -97.5t-126.5 -34.5h-105q-28 0 -28 24v11q0 26 27 26h106q98 0 98 71
q0 34 -23 48.5t-69 14.5z" />
    <glyph glyph-name="four.denominator" horiz-adv-x="508" 
d="M372 247v-95h33q28 0 28 -25v-9q0 -23 -28 -23h-33v-71q0 -24 -28 -24h-20q-28 0 -28 24v71h-193q-29 0 -29 23v5q0 19 7 26q68 85 110 254q7 23 31 23h20q27 0 27 -22q0 -6 -8 -33q-30 -105 -101 -219h136v95q0 25 28 25h20q28 0 28 -25z" />
    <glyph glyph-name="five.denominator" horiz-adv-x="508" 
d="M386 401v-10q0 -25 -28 -25h-173v-94h58q163 0 163 -129q0 -63 -40.5 -103t-122.5 -40h-112q-27 0 -27 24v11q0 26 27 26h112q88 0 88 82q0 38 -21 53.5t-67 15.5h-101q-28 0 -28 25v164q0 25 28 25h216q28 0 28 -25z" />
    <glyph glyph-name="six.denominator" horiz-adv-x="508" 
d="M371 401v-10q0 -25 -28 -25h-51q-123 0 -123 -101v-14q55 21 94 21q78 0 113.5 -33.5t35.5 -102.5q0 -64 -38.5 -102t-120.5 -38q-159 0 -159 140v129q0 71 50.5 116t147.5 45h51q28 0 28 -25zM253 57q40 0 61 18t21 61q0 41 -17 58.5t-55 17.5q-49 0 -94 -18v-58
q0 -79 84 -79z" />
    <glyph glyph-name="seven.denominator" horiz-adv-x="508" 
d="M260 67v-43q0 -24 -28 -24h-20q-27 0 -27 24v36q0 163 145 306h-219q-28 0 -28 25v10q0 25 28 25h283q28 0 28 -25v-6q0 -15 -12 -25q-150 -136 -150 -303z" />
    <glyph glyph-name="eight.denominator" horiz-adv-x="508" 
d="M243 -4q-154 0 -154 122q0 25 10 44t20 28t34 26l10 7q-64 32 -64 95q0 59 40.5 86t103.5 27h20q143 0 143 -113q0 -30 -14 -49t-44 -42l-5 -4q38 -17 56 -40.5t18 -64.5q0 -58 -44 -90t-110 -32h-20zM247 59h10q40 0 62 12.5t22 46.5q0 43 -50 60l-62 20l-22 -13
q-43 -26 -43 -67q0 -35 21.5 -47t61.5 -12zM278 245l10 8q22 16 32.5 30t10.5 35q0 54 -68 54h-20q-69 0 -69 -54q0 -38 45 -52z" />
    <glyph glyph-name="nine.denominator" horiz-adv-x="508" 
d="M161 0q-12 0 -19.5 6.5t-7.5 17.5v11q0 26 27 26h51q123 0 123 100v13q-50 -21 -92 -21q-149 0 -149 137q0 63 39.5 102t119.5 39q78 0 118.5 -36.5t40.5 -104.5v-129q0 -71 -51 -116t-149 -45h-51zM243 214q40 0 92 18v58q0 81 -82 81q-84 0 -84 -81q0 -41 17.5 -58.5
t56.5 -17.5z" />
    <glyph glyph-name="Gcedilla" horiz-adv-x="695" 
d="M406 367h184q12 0 19.5 -8.5t7.5 -22.5v-305q-23 -13 -79.5 -26t-99.5 -13h-32q-165 0 -254 92.5t-89 243.5v102q0 158 99 243t260 85q84 0 176 -28q19 -4 19 -35v-26q0 -20 -17 -20q-4 0 -14 2q-93 25 -164 25q-121 0 -193.5 -58.5t-72.5 -187.5v-102q0 -122 66 -188
t184 -66h32q45 0 93 13v198h-125q-31 0 -31 31v20q0 31 31 31zM322 -172l30 109q6 24 28 24h41q23 0 23 -24v-7q0 -18 -10 -32l-45 -70q-13 -23 -34 -23h-15q-20 0 -20 14q0 3 2 9z" />
    <glyph glyph-name="gcedilla" horiz-adv-x="590" 
d="M410 63v23l-8 -4q-3 -2 -18 -9.5t-21.5 -10t-21 -9t-25 -9.5t-25 -6.5t-30 -5t-31.5 -1.5q-74 0 -122.5 51t-48.5 148v36q0 130 78.5 205.5t194.5 75.5h133q31 0 31 -31v-446q0 -136 -75.5 -197t-221.5 -61h-62q-32 0 -32 32v15q0 32 32 32h62q113 0 162 39t49 133z
M395 148l15 8v313h-78q-87 0 -137 -54.5t-50 -148.5v-36q0 -121 101 -121q69 0 149 39zM390 727l-30 -110q-6 -23 -28 -23h-41q-23 0 -23 23v8q0 17 10 31l45 71q14 23 34 23h15q20 0 20 -15q0 -4 -2 -8z" />
    <glyph glyph-name="Kcedilla" horiz-adv-x="641" 
d="M494 31l-264 321h-43v-321q0 -31 -31 -31h-31q-31 0 -31 31v688q0 31 31 31h31q31 0 31 -31v-289h47l257 289q28 31 47 31h44q22 0 22 -15q0 -8 -7 -16l-288 -324l296 -364q9 -11 9 -17q0 -14 -21 -14h-52q-21 0 -47 31zM229 -172l30 109q6 24 28 24h41q23 0 23 -24v-7
q0 -18 -10 -32l-45 -70q-13 -23 -34 -23h-15q-20 0 -20 14q0 3 2 9z" />
    <glyph glyph-name="kcedilla" horiz-adv-x="539" 
d="M180 719v-383h54l154 180q26 31 49 31h38q23 0 23 -16q0 -8 -7 -15l-186 -215l197 -270q6 -9 6 -15q0 -16 -23 -16h-40q-23 0 -46 31l-165 227h-54v-227q0 -31 -32 -31h-23q-31 0 -31 31v688q0 31 31 31h23q32 0 32 -31zM193 -172l30 109q6 24 28 24h41q23 0 23 -24v-7
q0 -18 -10 -32l-45 -70q-13 -23 -34 -23h-15q-20 0 -20 14q0 3 2 9z" />
    <glyph glyph-name="Lcedilla" horiz-adv-x="516" 
d="M469 0h-172q-98 0 -150.5 51t-52.5 152v516q0 31 31 31h31q31 0 31 -31v-524q0 -57 27 -85t75 -28h180q31 0 31 -31v-20q0 -31 -31 -31zM229 -172l30 109q6 24 28 24h41q23 0 23 -24v-7q0 -18 -10 -32l-45 -70q-13 -23 -34 -23h-15q-20 0 -20 14q0 3 2 9z" />
    <glyph glyph-name="lcedilla" horiz-adv-x="273" 
d="M180 719v-688q0 -31 -32 -31h-23q-31 0 -31 31v641h-61q-31 0 -31 31v16q0 31 30 31h116q32 0 32 -31zM57 -172l30 109q6 24 28 24h41q23 0 23 -24v-7q0 -18 -10 -32l-45 -70q-13 -23 -34 -23h-15q-20 0 -20 14q0 3 2 9z" />
    <glyph glyph-name="Ncedilla" horiz-adv-x="750" 
d="M656 719v-688q0 -31 -31 -31h-12q-19 0 -34 20l-391 535l-1 4v-528q0 -31 -31 -31h-31q-31 0 -31 31v688q0 31 31 31h12q19 0 34 -20l391 -534v523q0 31 32 31h31q31 0 31 -31zM287 -172l30 109q6 24 28 24h41q23 0 23 -24v-7q0 -18 -10 -32l-45 -70q-13 -23 -34 -23h-15
q-20 0 -20 14q0 3 2 9z" />
    <glyph glyph-name="ncedilla" horiz-adv-x="613" 
d="M180 516v-71l39 39q71 71 156 71q148 0 148 -188v-336q0 -31 -31 -31h-23q-32 0 -32 31v336q0 110 -85 110q-55 0 -141 -86l-31 -32v-328q0 -31 -32 -31h-23q-31 0 -31 31v485q0 31 31 31h23q32 0 32 -31zM227 -172l30 109q6 24 28 24h41q23 0 23 -24v-7q0 -18 -10 -32
l-45 -70q-13 -23 -34 -23h-15q-20 0 -20 14q0 3 2 9z" />
    <glyph glyph-name="Rcedilla" horiz-adv-x="656" 
d="M601 31q2 -8 2 -10q0 -21 -28 -21h-40q-13 0 -19.5 7t-13.5 24q-27 65 -76.5 141t-89.5 109h-149v-250q0 -31 -31 -31h-31q-31 0 -31 31v688q0 31 31 31h211q117 0 172 -54.5t55 -172.5q0 -86 -35 -136t-102 -78q49 -45 100 -128.5t75 -149.5zM328 668h-141v-305h126
q156 0 156 160q0 81 -31.5 113t-109.5 32zM252 -172l30 109q6 24 28 24h41q23 0 23 -24v-7q0 -18 -10 -32l-45 -70q-13 -23 -34 -23h-15q-20 0 -20 14q0 3 2 9z" />
    <glyph glyph-name="rcedilla" horiz-adv-x="398" 
d="M352 453h-8q-61 0 -102 -39l-62 -62v-321q0 -31 -32 -31h-23q-31 0 -31 31v485q0 31 31 31h23q32 0 32 -31v-90l8 12q71 109 160 109h4q31 0 31 -31v-32q0 -31 -31 -31zM57 -172l30 109q6 24 28 24h41q23 0 23 -24v-7q0 -18 -10 -32l-45 -70q-13 -23 -34 -23h-15
q-20 0 -20 14q0 3 2 9z" />
    <glyph glyph-name="caronquoteleft" horiz-adv-x="124" 
d="M122 727l-30 -110q-6 -23 -28 -23h-41q-23 0 -23 23v8q0 17 10 31l45 71q14 23 34 23h15q20 0 20 -15q0 -4 -2 -8z" />
    <glyph glyph-name="caronquoteright" horiz-adv-x="124" 
d="M2 617l30 110q6 23 28 23h41q23 0 23 -23v-8q0 -18 -10 -32l-45 -70q-14 -23 -34 -23h-15q-20 0 -20 14q0 3 2 9z" />
    </font>
</defs>
</svg>
